<svg width="1440" height="199" viewBox="0 0 1440 199" fill="none" xmlns="http://www.w3.org/2000/svg">
<g clip-path="url(#clip0_273_2739)">
<path d="M224.39 110.066C133.124 110.553 -50.11 126.667 -50.11 126.667V261.565H1789.89V126.18C1789.89 105.239 1706.92 119.849 1657.14 134.946C1607.36 150.043 1584.17 156.987 1562.05 154.913C1539.92 152.839 1500.89 155.065 1417.17 134.946C1333.45 114.826 1246.89 129.065 1163.89 142.738C1080.89 156.41 1017.39 121.566 940.89 121.566C864.39 121.566 817.89 141.565 792.89 142.738C767.89 143.91 734.103 112.508 645.39 129.065C591.379 139.146 611.557 103.552 488.89 121.566C384.751 141.581 315.656 109.579 224.39 110.066Z" fill="#56607A" fill-opacity="0.75"/>
<path d="M131.89 147.376C29.89 118.876 -100.11 130.977 -100.11 130.977V265.876H1939.89V130.49C1939.89 109.549 1847.91 124.159 1792.71 139.256C1737.52 154.353 1711.81 161.297 1687.28 159.223C1662.75 157.149 1598.12 140.717 1526.66 139.256C1455.19 137.795 1358.25 159.223 1281.83 159.223C1205.41 159.223 1166.28 115.662 1101.89 126.376C1037.5 137.09 957.89 147.048 957.89 147.048C957.89 147.048 873.246 116.318 774.89 132.876C715.008 142.957 564.39 155.974 492.39 132.876C416.39 124.474 233.89 175.876 131.89 147.376Z" fill="#37415F" fill-opacity="0.75"/>
<path d="M139.39 118.56C67.9645 119.047 -0.109985 139.962 -0.109985 139.962V271.06H1439.89V164.407C1439.89 152.232 1374.96 129.344 1336 144.44C1297.04 159.537 1278.89 166.482 1261.58 164.407C1244.26 162.333 1198.64 145.901 1148.19 144.44C1097.75 142.979 1029.32 164.407 975.375 164.407C921.431 164.407 848.007 141.518 802.555 152.232C757.102 162.946 668.89 152.232 668.89 152.232C668.89 152.232 581.818 135.675 512.39 152.232C470.12 162.313 433.89 121.948 337.89 139.962C256.39 159.977 210.815 118.073 139.39 118.56Z" fill="url(#paint0_linear_273_2739)"/>
</g>
<defs>
<linearGradient id="paint0_linear_273_2739" x1="-965.11" y1="67.6607" x2="-897.809" y2="720.831" gradientUnits="userSpaceOnUse">
<stop stop-color="#E6E9FF"/>
<stop offset="0.325521" stop-color="#F5F7FF"/>
<stop offset="0.627604" stop-color="#F2F5FF"/>
<stop offset="1" stop-color="#E0E7FF"/>
</linearGradient>
<clipPath id="clip0_273_2739">
<rect width="1440" height="200" fill="white" transform="translate(-0.109985 0.0599976)"/>
</clipPath>
</defs>
</svg>
