<svg width="1440" height="1024" viewBox="0 0 1440 1024" fill="none" xmlns="http://www.w3.org/2000/svg">
<g clip-path="url(#clip0_850_4678)">
<path fill-rule="evenodd" clip-rule="evenodd" d="M1437.43 376L1434.31 371H1351.35L1348.84 375.025L1349.54 376H1437.43ZM1449.9 396L1446.78 391H1360.33L1363.93 396H1449.9ZM1474.85 436L1471.74 431H1389.11L1392.71 436H1474.85ZM1291 467.75H1415.55L1407.1 456H1298.33L1291 467.75ZM1301.45 451L1310.8 436H1392.71L1403.5 451H1451.08C1452.46 451 1453.58 452.119 1453.58 453.5C1453.58 454.881 1452.46 456 1451.08 456H1407.1L1403.5 451H1301.45ZM1313.92 431H1389.11L1378.32 416H1323.28L1313.92 431ZM1326.4 411L1335.75 396H1363.93L1374.72 411H1422.33C1423.71 411 1424.83 412.119 1424.83 413.5C1424.83 414.881 1423.71 416 1422.33 416H1378.32L1374.72 411H1326.4ZM1338.87 391H1360.33L1349.54 376H1348.23L1338.87 391Z" fill="url(#paint0_linear_850_4678)" fill-opacity="0.69" style="mix-blend-mode:multiply"/>
<path d="M561.007 738.106C559.973 736.719 561.719 734.973 563.106 736.007L574.823 744.741C575.355 745.137 576.084 745.137 576.616 744.741L588.333 736.007C589.719 734.973 591.466 736.719 590.432 738.106L581.698 749.823C581.301 750.355 581.301 751.084 581.698 751.616L590.432 763.333C591.466 764.719 589.719 766.466 588.333 765.432L576.616 756.698C576.084 756.301 575.355 756.301 574.823 756.698L563.106 765.432C561.719 766.466 559.973 764.719 561.007 763.333L569.741 751.616C570.138 751.084 570.138 750.355 569.741 749.823L561.007 738.106Z" fill="#B7C5F2" fill-opacity="0.6"/>
<circle cx="245" cy="693" r="16" stroke="#505D84" stroke-opacity="0.49" stroke-width="8"/>
<circle cx="285" cy="66" r="20" fill="#DCE2FF"/>
<path fill-rule="evenodd" clip-rule="evenodd" d="M1367.41 724.122C1367.89 723.13 1369.09 722.719 1370.08 723.204L1444.75 759.705C1445.74 760.19 1446.15 761.388 1445.66 762.38C1445.18 763.373 1443.98 763.784 1442.99 763.299L1368.32 726.797C1367.33 726.312 1366.92 725.114 1367.41 724.122ZM1363.48 735.562C1363.6 735.313 1363.9 735.211 1364.15 735.332L1438.82 771.833C1439.06 771.955 1439.17 772.254 1439.05 772.502C1438.92 772.75 1438.62 772.853 1438.38 772.732L1363.71 736.23C1363.46 736.109 1363.36 735.81 1363.48 735.562ZM1318.15 724.042C1318.52 723.298 1319.41 722.99 1320.16 723.353L1470.19 796.7C1470.93 797.064 1471.24 797.962 1470.88 798.706C1470.52 799.45 1469.62 799.759 1468.87 799.395L1318.84 726.049C1318.1 725.685 1317.79 724.786 1318.15 724.042ZM1352.49 756.903C1352.74 756.407 1353.33 756.202 1353.83 756.444L1428.49 792.946C1428.99 793.188 1429.2 793.787 1428.95 794.283C1428.71 794.779 1428.11 794.985 1427.62 794.742L1352.95 758.241C1352.46 757.998 1352.25 757.399 1352.49 756.903ZM1333.12 760.791C1333.49 760.046 1334.38 759.738 1335.13 760.102L1437.1 809.951C1437.84 810.315 1438.15 811.213 1437.78 811.957C1437.42 812.702 1436.52 813.01 1435.78 812.646L1333.81 762.797C1333.07 762.433 1332.76 761.535 1333.12 760.791ZM1328.6 771.262C1328.84 770.766 1329.44 770.56 1329.94 770.803L1419.78 814.723C1420.27 814.965 1420.48 815.564 1420.24 816.06C1420 816.556 1419.4 816.762 1418.9 816.519L1329.06 772.599C1328.56 772.357 1328.36 771.758 1328.6 771.262ZM1365.03 803.104C1365.27 802.608 1365.87 802.402 1366.37 802.645L1384.34 811.429C1384.83 811.671 1385.04 812.27 1384.79 812.766C1384.55 813.263 1383.95 813.468 1383.46 813.226L1365.49 804.442C1364.99 804.199 1364.79 803.6 1365.03 803.104Z" fill="#B7C5F2" fill-opacity="0.63"/>
<path d="M1382.7 753.3L1457.37 789.801" stroke="#3F3D56" stroke-opacity="0.4" stroke-width="4" stroke-linecap="round" stroke-linejoin="round"/>
<path d="M1377.43 764.08L1452.1 800.582" stroke="#3F3D56" stroke-opacity="0.4" stroke-linecap="round" stroke-linejoin="round"/>
<path d="M1334.48 756.438L1484.51 829.785" stroke="#3F3D56" stroke-opacity="0.4" stroke-width="3" stroke-linecap="round" stroke-linejoin="round"/>
<path d="M1366.89 785.642L1441.56 822.143" stroke="#3F3D56" stroke-opacity="0.4" stroke-width="2" stroke-linecap="round" stroke-linejoin="round"/>
<path d="M1347.97 789.748L1449.94 839.597" stroke="#3F3D56" stroke-opacity="0.4" stroke-width="3" stroke-linecap="round" stroke-linejoin="round"/>
<path d="M1369.88 813.815L1417.49 837.092" stroke="#3F3D56" stroke-opacity="0.4" stroke-width="2" stroke-linecap="round" stroke-linejoin="round"/>
<path d="M1379.43 831.842L1397.4 840.626" stroke="#3F3D56" stroke-opacity="0.4" stroke-width="2" stroke-linecap="round" stroke-linejoin="round"/>
<path fill-rule="evenodd" clip-rule="evenodd" d="M1031.66 179.204L1029.27 159.734L1046.92 165.846L1031.66 179.204ZM1032.75 188.152L1048.83 175.164L1047.6 166.082L1056.32 169.105L1048.83 175.164L1049.61 180.96L1061.89 171.033L1064.88 172.069L1050.03 184.071L1050.81 189.867L1070.45 173.998L1082 177.998L1052.44 201.886L1053.22 207.681L1087.57 179.926L1119.42 190.959L1040.87 254.427L1037.99 230.924L1057.64 240.428L1053.22 207.681L1036.78 220.97L1036.06 215.12L1052.44 201.886L1052.02 198.774L1035.67 211.98L1034.96 206.131L1051.23 192.979L1050.81 189.867L1034.57 202.99L1033.86 197.141L1050.03 184.071L1049.61 180.96L1033.47 194.001L1032.75 188.152ZM1051.23 192.979L1052.02 198.774L1066.54 187.041C1067.61 186.174 1067.78 184.6 1066.91 183.526C1066.04 182.452 1064.47 182.285 1063.39 183.152L1051.23 192.979Z" fill="#B7C5F2" fill-opacity="0.3"/>
<path d="M439.349 250.252C441.458 243.831 450.542 243.831 452.651 250.252L453.492 252.816C454.732 256.589 458.859 258.577 462.582 257.193L465.111 256.253C471.446 253.898 477.11 261 473.404 266.652L471.925 268.909C469.747 272.23 470.767 276.697 474.17 278.745L476.482 280.136C482.273 283.62 480.252 292.476 473.522 293.103L470.835 293.354C466.881 293.722 464.024 297.304 464.545 301.241L464.899 303.916C465.785 310.617 457.601 314.558 452.915 309.687L451.044 307.743C448.291 304.881 443.709 304.881 440.956 307.743L439.085 309.687C434.399 314.558 426.215 310.617 427.101 303.916L427.455 301.241C427.976 297.304 425.119 293.722 421.165 293.354L418.478 293.103C411.748 292.476 409.727 283.62 415.518 280.136L417.83 278.745C421.233 276.697 422.253 272.23 420.075 268.909L418.596 266.652C414.89 261 420.554 253.898 426.889 256.253L429.418 257.193C433.141 258.577 437.268 256.589 438.508 252.816L439.349 250.252Z" fill="url(#paint1_linear_850_4678)"/>
<path d="M889.409 411.481L898.651 455.066C899.348 458.143 901.167 458.908 903.751 457.459L917.833 447.082L924.628 453.617C925.38 454.369 926.009 454.998 927.458 454.998L926.446 440.656L900.346 417.072C899.212 416.061 900.593 415.5 902.11 416.512L934.376 436.828L948.266 432.481C951.288 431.537 951.343 429.459 947.637 428.01L893.305 407.078C890.79 406.135 888.589 407.639 889.409 411.481Z" fill="url(#paint2_linear_850_4678)" style="mix-blend-mode:multiply"/>
<path d="M915.268 447.594C1187.37 735.197 791.884 941.894 803.944 723.901C816.004 505.907 1243.21 826.358 915.268 972.414" stroke="url(#paint3_linear_850_4678)" stroke-width="6" stroke-linecap="round" stroke-linejoin="round" stroke-dasharray="10 10" style="mix-blend-mode:multiply"/>
<path fill-rule="evenodd" clip-rule="evenodd" d="M183 405L177.75 402H167.25L162 405H183ZM158.5 407L153.25 410H191.75L186.5 407H158.5ZM144.5 415L149.75 412H195.25L200.5 415H144.5ZM141 417L135.75 420H209.25L204 417H141ZM127 425L132.25 422H212.75L218 425H127ZM123.5 427L120 429V489L121.75 490H223.25L225 489V487H121C120.448 487 120 486.552 120 486C120 485.448 120.448 485 121 485H225V482H121C120.448 482 120 481.552 120 481C120 480.448 120.448 480 121 480H225V477H121C120.448 477 120 476.552 120 476C120 475.448 120.448 475 121 475H225V472H121C120.448 472 120 471.552 120 471C120 470.448 120.448 470 121 470H225V467H121C120.448 467 120 466.552 120 466C120 465.448 120.448 465 121 465H225V462H121C120.448 462 120 461.552 120 461C120 460.448 120.448 460 121 460H225V457H121C120.448 457 120 456.552 120 456C120 455.448 120.448 455 121 455H225V452H121C120.448 452 120 451.552 120 451C120 450.448 120.448 450 121 450H225V447H121C120.448 447 120 446.552 120 446C120 445.448 120.448 445 121 445H225V442H121C120.448 442 120 441.552 120 441C120 440.448 120.448 440 121 440H225V437H121C120.448 437 120 436.552 120 436C120 435.448 120.448 435 121 435H225V432H121C120.448 432 120 431.552 120 431C120 430.448 120.448 430 121 430H225V429L221.5 427H123.5ZM130.5 495L125.25 492H219.75L214.5 495H130.5ZM134 497L139.25 500H205.75L211 497H134ZM148 505L142.75 502H202.25L197 505H148ZM151.5 507L156.75 510H188.25L193.5 507H151.5ZM165.5 515L160.25 512H184.75L179.5 515H165.5ZM172.5 399L174.25 400H170.75L172.5 399ZM169 517L172.5 519L176 517H169Z" fill="url(#paint4_linear_850_4678)" style="mix-blend-mode:multiply"/>
<path d="M406.408 930.269C442.544 936.949 454.765 912.979 486.677 955.034C518.588 997.089 534.451 1000.6 518.761 1022.3C503.072 1043.99 500.176 1040.7 443.774 1035.59C388.662 1048.97 419.91 1022.48 368.584 987.402C322.822 947.281 370.271 923.59 406.408 930.269Z" fill="url(#paint5_linear_850_4678)" fill-opacity="0.3" style="mix-blend-mode:multiply"/>
<path d="M465.439 894.578C472.208 892.176 472.469 901.914 472.469 901.914C468.821 907.133 466.377 908.634 460.852 907.146C460.852 907.146 455.384 905.122 454.955 900.993C454.526 896.865 458.669 896.98 465.439 894.578Z" fill="url(#paint6_linear_850_4678)"/>
<path d="M402.988 893.866C409.469 890.856 419.381 881.546 427.258 893.035C435.136 904.524 419.694 903.676 415.333 914.375C410.971 925.075 397.79 921.277 397.79 921.277C386.945 911.376 396.507 896.877 402.988 893.866Z" fill="url(#paint7_linear_850_4678)"/>
<path fill-rule="evenodd" clip-rule="evenodd" d="M1.51979 771.5L43 705L84.4802 771.5H1.51979ZM-0.990692 775.525L-0.289032 776.5H87.599L96.9554 791.5H10.503L14.1003 796.5H100.074L121.906 831.5H39.2817L42.879 836.5H125.025L169 907H-83L-58.8292 868.25H65.7221L57.2683 856.5H-51.5L-48.3812 851.5H53.671L42.879 836.5H-39.0247L-35.9059 831.5H39.2817L28.4897 816.5H-26.5495L-23.4307 811.5H24.8923L14.1003 796.5H-14.0743L-10.9554 791.5H10.503L-0.289032 776.5H-1.59901L-0.990692 775.525ZM24.8923 811.5L28.4897 816.5H72.5C73.8807 816.5 75 815.381 75 814C75 812.619 73.8807 811.5 72.5 811.5H24.8923ZM53.671 851.5L57.2683 856.5H101.25C102.631 856.5 103.75 855.381 103.75 854C103.75 852.619 102.631 851.5 101.25 851.5H53.671Z" fill="#B7C5F2" fill-opacity="0.35"/>
<path d="M26 253.426C26 254.601 24.8812 255.553 23.5 255.553H8.5C7.11875 255.553 6 254.601 6 253.426V247.043H-24V266.191C-24 269.596 -20.5 272.574 -16.5 272.574H48.5C52.5 272.574 56 269.596 56 266.191V247.043H26V253.426ZM48.5 225.766H36V219.383C36 215.979 32.5 213 28.5 213H3.5C-0.5 213 -4 215.979 -4 219.383V225.766H-16.5C-20.5 225.766 -24 228.745 -24 232.149V242.787H56V232.149C56 228.745 52.5 225.766 48.5 225.766ZM26 225.766H6V221.511H26V225.766Z" fill="url(#paint8_linear_850_4678)" style="mix-blend-mode:multiply"/>
<path d="M567 531.064H541C540.45 531.064 540 531.499 540 532.031V533.964C540 534.496 540.45 534.931 541 534.931H567C567.55 534.931 568 534.496 568 533.964V532.031C568 531.499 567.55 531.064 567 531.064ZM571 511.733C569.344 511.733 568 513.032 568 514.632C568 515.061 568.1 515.46 568.275 515.829L563.75 518.45C562.788 519.006 561.544 518.692 560.987 517.75L555.894 509.135C556.562 508.603 557 507.806 557 506.9C557 505.299 555.656 504 554 504C552.344 504 551 505.299 551 506.9C551 507.806 551.438 508.603 552.106 509.135L547.012 517.75C546.456 518.692 545.206 519.006 544.25 518.45L539.731 515.829C539.9 515.466 540.006 515.061 540.006 514.632C540.006 513.032 538.662 511.733 537.006 511.733C535.35 511.733 534 513.032 534 514.632C534 516.233 535.344 517.532 537 517.532C537.162 517.532 537.325 517.508 537.481 517.484L542 529.131H566L570.519 517.484C570.675 517.508 570.838 517.532 571 517.532C572.656 517.532 574 516.233 574 514.632C574 513.032 572.656 511.733 571 511.733Z" fill="url(#paint9_linear_850_4678)" style="mix-blend-mode:multiply"/>
<path d="M1218.85 309.752C1218.06 309.039 1218.47 309.24 1216.56 308.78C1215.7 308.57 1214.93 308.168 1214.24 307.687L1210.11 316.813C1209.71 317.697 1210.46 318.657 1211.52 318.621L1216.32 318.456L1219.62 321.596C1220.35 322.289 1221.63 322.073 1222.03 321.189L1226.77 310.719C1225.79 311.215 1224.69 311.505 1223.56 311.505C1221.78 311.505 1220.11 310.882 1218.85 309.752ZM1244.89 316.813L1240.76 307.687C1240.07 308.169 1239.3 308.57 1238.44 308.78C1236.52 309.242 1236.94 309.041 1236.15 309.752C1234.89 310.882 1233.22 311.505 1231.44 311.505C1230.31 311.505 1229.21 311.214 1228.22 310.719L1232.97 321.189C1233.37 322.073 1234.65 322.289 1235.38 321.596L1238.68 318.456L1243.48 318.621C1244.54 318.657 1245.29 317.696 1244.89 316.813ZM1233.97 307.895C1235.36 306.619 1235.52 306.729 1237.51 306.243C1238.77 305.932 1239.76 305.025 1240.1 303.865C1240.78 301.535 1240.61 301.817 1242.47 300.112C1243.39 299.263 1243.76 298.025 1243.42 296.865C1242.74 294.536 1242.73 294.861 1243.42 292.53C1243.76 291.37 1243.39 290.132 1242.47 289.283C1240.61 287.578 1240.78 287.859 1240.1 285.53C1239.76 284.369 1238.77 283.463 1237.51 283.152C1234.97 282.528 1235.27 282.691 1233.41 280.985C1232.48 280.136 1231.13 279.804 1229.87 280.115C1227.33 280.738 1227.68 280.739 1225.13 280.115C1223.87 279.804 1222.52 280.135 1221.59 280.985C1219.73 282.69 1220.04 282.528 1217.49 283.152C1216.23 283.463 1215.24 284.369 1214.9 285.53C1214.22 287.859 1214.39 287.578 1212.53 289.283C1211.61 290.132 1211.24 291.37 1211.58 292.53C1212.27 294.857 1212.27 294.532 1211.58 296.864C1211.25 298.024 1211.61 299.262 1212.53 300.112C1214.39 301.817 1214.22 301.535 1214.9 303.865C1215.24 305.025 1216.23 305.932 1217.49 306.243C1219.53 306.743 1219.69 306.665 1221.03 307.895C1222.23 309 1224.11 309.198 1225.56 308.373C1226.14 308.042 1226.81 307.866 1227.5 307.866C1228.19 307.866 1228.86 308.042 1229.44 308.373C1230.89 309.198 1232.77 309 1233.97 307.895ZM1218.9 294.437C1218.9 290.086 1222.75 286.559 1227.5 286.559C1232.25 286.559 1236.1 290.086 1236.1 294.437C1236.1 298.788 1232.25 302.315 1227.5 302.315C1222.75 302.315 1218.9 298.788 1218.9 294.437Z" fill="url(#paint10_linear_850_4678)" style="mix-blend-mode:multiply"/>
<path d="M856.544 372.017C857.088 372.662 857.969 372.662 858.513 372.017L859.498 370.849C860.042 370.204 860.042 369.158 859.498 368.512L856.389 364.825L859.497 361.137C860.041 360.491 860.041 359.445 859.497 358.8L858.513 357.632C857.969 356.987 857.087 356.987 856.543 357.632L851.464 363.656C850.92 364.301 850.92 365.347 851.464 365.993L856.544 372.017ZM864.901 370.85L865.885 372.018C866.429 372.663 867.311 372.663 867.855 372.018L872.933 365.994C873.477 365.348 873.477 364.303 872.933 363.657L867.855 357.633C867.311 356.988 866.429 356.988 865.885 357.633L864.901 358.801C864.357 359.446 864.357 360.492 864.901 361.138L868.009 364.825L864.901 368.513C864.357 369.159 864.357 370.205 864.901 370.85ZM888.661 387.954H867.556C867.491 390 866.275 391.258 864.706 391.258H859.413C857.787 391.258 856.539 389.454 856.561 387.954H835.737C834.971 387.954 834.344 388.698 834.344 389.606V391.258C834.344 394.893 836.851 397.867 839.915 397.867H884.483C887.547 397.867 890.053 394.893 890.053 391.258V389.606C890.053 388.698 889.427 387.954 888.661 387.954ZM884.483 349.956C884.483 347.23 882.602 345 880.304 345H844.093C841.795 345 839.915 347.23 839.915 349.956V384.65H884.483V349.956ZM878.912 378.042H845.486V351.608H878.912V378.042Z" fill="url(#paint11_linear_850_4678)" style="mix-blend-mode:multiply"/>
<path d="M864.96 952.393C857.195 953.909 850.937 960.151 849.405 967.894C846.515 982.503 859.695 993.394 869.625 991.855C872.843 991.355 874.422 987.59 872.945 984.691C871.14 981.144 873.718 977.003 877.703 977.003H883.93C886.727 977.003 888.992 974.691 889 971.902C888.961 959.589 877.758 949.901 864.96 952.393ZM856.499 977.003C855.116 977.003 853.999 975.886 853.999 974.503C853.999 973.12 855.116 972.003 856.499 972.003C857.882 972.003 858.999 973.12 858.999 974.503C858.999 975.886 857.882 977.003 856.499 977.003ZM858.999 967.003C857.616 967.003 856.499 965.886 856.499 964.503C856.499 963.12 857.616 962.003 858.999 962.003C860.382 962.003 861.499 963.12 861.499 964.503C861.499 965.886 860.382 967.003 858.999 967.003ZM869 962.003C867.617 962.003 866.499 960.886 866.499 959.503C866.499 958.12 867.617 957.003 869 957.003C870.382 957.003 871.5 958.12 871.5 959.503C871.5 960.886 870.382 962.003 869 962.003ZM879 967.003C877.617 967.003 876.5 965.886 876.5 964.503C876.5 963.12 877.617 962.003 879 962.003C880.383 962.003 881.5 963.12 881.5 964.503C881.5 965.886 880.383 967.003 879 967.003Z" fill="url(#paint12_linear_850_4678)" style="mix-blend-mode:multiply"/>
<path d="M1283.11 960.869L1272.48 971.497C1271.97 972.009 1271.14 972.009 1270.62 971.497L1269.38 970.257C1268.87 969.746 1268.87 968.916 1269.38 968.403L1277.81 959.941L1269.38 951.478C1268.87 950.965 1268.87 950.136 1269.38 949.624L1270.62 948.384C1271.14 947.872 1271.97 947.872 1272.48 948.384L1283.11 959.013C1283.62 959.525 1283.62 960.356 1283.11 960.869ZM1304 970.878V969.128C1304 968.403 1303.41 967.816 1302.69 967.816H1286.06C1285.34 967.816 1284.75 968.403 1284.75 969.128V970.878C1284.75 971.603 1285.34 972.191 1286.06 972.191H1302.69C1303.41 972.191 1304 971.603 1304 970.878Z" fill="url(#paint13_linear_850_4678)" style="mix-blend-mode:multiply"/>
</g>
<defs>
<linearGradient id="paint0_linear_850_4678" x1="1382.93" y1="371" x2="1382.93" y2="467.75" gradientUnits="userSpaceOnUse">
<stop stop-color="#D9DFFF"/>
<stop offset="0.520833" stop-color="#D6DCF9"/>
<stop offset="0.71875" stop-color="#C6CEFB"/>
<stop offset="1" stop-color="#C5CFFF"/>
</linearGradient>
<linearGradient id="paint1_linear_850_4678" x1="328.986" y1="196.627" x2="545.326" y2="418.99" gradientUnits="userSpaceOnUse">
<stop stop-color="#F5F7FF"/>
<stop offset="0.333333" stop-color="#DEE2FF"/>
<stop offset="0.677083" stop-color="#D9E1FF"/>
<stop offset="1" stop-color="#F2F5FF"/>
</linearGradient>
<linearGradient id="paint2_linear_850_4678" x1="919.857" y1="406.805" x2="919.857" y2="458.167" gradientUnits="userSpaceOnUse">
<stop stop-color="#D9DFFF"/>
<stop offset="0.520833" stop-color="#D6DCF9"/>
<stop offset="0.71875" stop-color="#C6CEFB"/>
<stop offset="1" stop-color="#C5CFFF"/>
</linearGradient>
<linearGradient id="paint3_linear_850_4678" x1="1039.13" y1="567.64" x2="776.853" y2="838.267" gradientUnits="userSpaceOnUse">
<stop stop-color="#D9DFFF"/>
<stop offset="0.520833" stop-color="#D6DCF9"/>
<stop offset="0.71875" stop-color="#C6CEFB"/>
<stop offset="1" stop-color="#C5CFFF"/>
</linearGradient>
<linearGradient id="paint4_linear_850_4678" x1="172.5" y1="399" x2="172.5" y2="519" gradientUnits="userSpaceOnUse">
<stop stop-color="#D9DFFF"/>
<stop offset="0.520833" stop-color="#D6DCF9"/>
<stop offset="0.71875" stop-color="#C6CEFB"/>
<stop offset="1" stop-color="#C5CFFF"/>
</linearGradient>
<linearGradient id="paint5_linear_850_4678" x1="497.399" y1="923.719" x2="395.601" y2="1021.28" gradientUnits="userSpaceOnUse">
<stop stop-color="#D9DFFF"/>
<stop offset="0.520833" stop-color="#D6DCF9"/>
<stop offset="0.71875" stop-color="#C6CEFB"/>
<stop offset="1" stop-color="#C5CFFF"/>
</linearGradient>
<linearGradient id="paint6_linear_850_4678" x1="389.683" y1="743.319" x2="321.8" y2="1218.82" gradientUnits="userSpaceOnUse">
<stop stop-color="#F5F7FF"/>
<stop offset="0.333333" stop-color="#EBEDFF"/>
<stop offset="0.677083" stop-color="#EBEFFF"/>
<stop offset="1" stop-color="#F2F5FF"/>
</linearGradient>
<linearGradient id="paint7_linear_850_4678" x1="389.683" y1="743.319" x2="321.8" y2="1218.82" gradientUnits="userSpaceOnUse">
<stop stop-color="#F5F7FF"/>
<stop offset="0.333333" stop-color="#EBEDFF"/>
<stop offset="0.677083" stop-color="#EBEFFF"/>
<stop offset="1" stop-color="#F2F5FF"/>
</linearGradient>
<linearGradient id="paint8_linear_850_4678" x1="16" y1="213" x2="16" y2="272.574" gradientUnits="userSpaceOnUse">
<stop stop-color="#D9DFFF"/>
<stop offset="0.520833" stop-color="#D6DCF9"/>
<stop offset="0.71875" stop-color="#C6CEFB"/>
<stop offset="1" stop-color="#C5CFFF"/>
</linearGradient>
<linearGradient id="paint9_linear_850_4678" x1="554" y1="504" x2="554" y2="534.931" gradientUnits="userSpaceOnUse">
<stop stop-color="#D9DFFF"/>
<stop offset="0.520833" stop-color="#D6DCF9"/>
<stop offset="0.71875" stop-color="#C6CEFB"/>
<stop offset="1" stop-color="#C5CFFF"/>
</linearGradient>
<linearGradient id="paint10_linear_850_4678" x1="1227.5" y1="280" x2="1227.5" y2="322.007" gradientUnits="userSpaceOnUse">
<stop stop-color="#D9DFFF"/>
<stop offset="0.520833" stop-color="#D6DCF9"/>
<stop offset="0.71875" stop-color="#C6CEFB"/>
<stop offset="1" stop-color="#C5CFFF"/>
</linearGradient>
<linearGradient id="paint11_linear_850_4678" x1="862.199" y1="345" x2="862.199" y2="397.867" gradientUnits="userSpaceOnUse">
<stop stop-color="#D9DFFF"/>
<stop offset="0.520833" stop-color="#D6DCF9"/>
<stop offset="0.71875" stop-color="#C6CEFB"/>
<stop offset="1" stop-color="#C5CFFF"/>
</linearGradient>
<linearGradient id="paint12_linear_850_4678" x1="869" y1="952" x2="869" y2="992" gradientUnits="userSpaceOnUse">
<stop stop-color="#D9DFFF"/>
<stop offset="0.520833" stop-color="#D6DCF9"/>
<stop offset="0.71875" stop-color="#C6CEFB"/>
<stop offset="1" stop-color="#C5CFFF"/>
</linearGradient>
<linearGradient id="paint13_linear_850_4678" x1="1286.5" y1="948" x2="1286.5" y2="972.191" gradientUnits="userSpaceOnUse">
<stop stop-color="#D9DFFF"/>
<stop offset="0.520833" stop-color="#D6DCF9"/>
<stop offset="0.71875" stop-color="#C6CEFB"/>
<stop offset="1" stop-color="#C5CFFF"/>
</linearGradient>
<clipPath id="clip0_850_4678">
<rect width="1440" height="1024" fill="white"/>
</clipPath>
</defs>
</svg>
