<svg width="18" height="18" fill="none" xmlns="http://www.w3.org/2000/svg"><path d="M14.25 3.219H4.257c-.932 0-2.007.772-2.007 1.704v8c0 .932 1.075 1.858 2.007 1.858h9.993c.932 0 1.5-.926 1.5-1.858v-8c0-.932-.568-1.704-1.5-1.704zm-6.825 6.09C4.237 6.994 4.27 6.988 3.413 6.321v-.884c0-.466.378-.844.844-.844h9.563c.466 0 .843.378.843.844v.884c-.857.667-.824.673-4.012 2.986-.369.27-1.103.919-1.613.91-.51.008-1.243-.64-1.613-.91zm7.238-1.559v5a.844.844 0 01-.844.844H4.258a.844.844 0 01-.844-.844v-5c.491.38 1.172.887 3.35 2.468.499.364 1.336 1.13 2.275 1.126.945.005 1.794-.775 2.275-1.126 2.179-1.58 2.86-2.089 3.35-2.468z" fill="#EEF0FF"/></svg>