<svg width="480" height="307" fill="none" xmlns="http://www.w3.org/2000/svg"><path d="M160.835 137.111c-.31.255-.483.711-.519 1.367a5.453 5.453 0 00.328 1.969 5.042 5.042 0 001.148 1.75c.511.51 1.149.765 1.914.765.493 0 .912-.118 1.258-.355.365-.237.656-.529.875-.875.237-.365.41-.766.52-1.203a5.31 5.31 0 00.164-1.285c0-.602-.119-1.103-.356-1.504a3.244 3.244 0 00-.902-1.039 4.728 4.728 0 00-1.285-.766c-.474-.219-.957-.438-1.449-.656a74.847 74.847 0 01-1.641-.684 9.15 9.15 0 01-1.832-1.121 6.865 6.865 0 01-1.504-1.723c-.401-.692-.601-1.54-.601-2.543 0-.656.173-1.321.519-1.996.346-.674.839-1.285 1.477-1.832.638-.565 1.403-1.021 2.296-1.367.912-.346 1.933-.519 3.063-.519 1.112 0 2.014.1 2.707.3.693.201 1.23.465 1.613.793.383.31.638.657.766 1.039.146.365.219.711.219 1.039 0 .329-.101.666-.301 1.012a5.792 5.792 0 01-.711.93 7.926 7.926 0 01-.848.738 3.873 3.873 0 01-.711.41 6.88 6.88 0 00.274-.984 2.284 2.284 0 00-.082-1.258c-.128-.419-.447-.784-.957-1.094-.492-.31-1.295-.464-2.407-.464-.638 0-1.257.1-1.859.3a6.363 6.363 0 00-1.613.793c-.456.31-.82.666-1.094 1.067-.273.401-.41.811-.41 1.23 0 .401.137.775.41 1.121a5.72 5.72 0 001.149.957c.492.292 1.048.584 1.667.875.639.292 1.304.584 1.997.875.674.292 1.339.611 1.996.957a8.545 8.545 0 011.75 1.149c.528.437.948.929 1.257 1.476.31.547.465 1.176.465 1.887 0 .766-.146 1.504-.437 2.215a5.353 5.353 0 01-1.203 1.832 5.53 5.53 0 01-1.887 1.258c-.747.328-1.595.492-2.543.492a6.88 6.88 0 01-2.379-.41 7.278 7.278 0 01-1.969-1.067 5.72 5.72 0 01-1.312-1.449c-.328-.529-.492-1.048-.492-1.558 0-.547.118-1.012.355-1.395.255-.383.565-.684.93-.902a3.585 3.585 0 011.121-.493c.401-.091.756-.109 1.066-.054zm26.129 6.289a1.868 1.868 0 01-.629.574 2.463 2.463 0 01-.683.301c-.255.073-.529.1-.821.082a.903.903 0 01-.355-.082 2.066 2.066 0 01-.356-.164.79.79 0 01-.328-.274 62.807 62.807 0 01-.683-2.652c-.201-.857-.374-1.622-.52-2.297a49.948 49.948 0 01-.465-2.215 44.133 44.133 0 00-2.214 0c-.967 0-2.015.055-3.145.164a66.526 66.526 0 00-.82 2.762 24.745 24.745 0 00-.438 1.859c-.091.493-.127.894-.109 1.204.018.328.073.61.164.847a2.497 2.497 0 01-.766.547c-.237.128-.455.21-.656.246-.237.055-.465.073-.684.055a2.972 2.972 0 01-.711-.164.701.701 0 01-.41-.301c-.073-.128-.1-.319-.082-.574a9.86 9.86 0 01.219-1.012c.109-.364.31-1.012.602-1.941.31-.948.656-2.024 1.039-3.227-.693.055-1.231.018-1.614-.109-.364-.128-.619-.474-.765-1.039.291-.091.601-.173.929-.246.347-.092.675-.174.985-.247a19.64 19.64 0 011.066-.191c.383-1.203.775-2.388 1.176-3.555.401-1.166.775-2.214 1.121-3.144l1.586-4.238c.037-.11.228-.228.574-.356a6.653 6.653 0 011.149-.301c.419-.091.82-.136 1.203-.136.383 0 .629.082.738.246.055.383.128.856.219 1.422.109.565.209 1.112.301 1.64.109.62.237 1.258.382 1.914.165.912.338 1.923.52 3.035.201 1.112.447 2.297.738 3.555a66.54 66.54 0 001.039 3.91 36.372 36.372 0 001.504 4.102zm-7.601-8.559a48.534 48.534 0 011.449-.027c.383 0 .711.009.984.027l-.082-.41a561.52 561.52 0 00-.355-2.16 85.551 85.551 0 00-.356-2.27c-.109-.747-.218-1.458-.328-2.132-.109-.675-.2-1.267-.273-1.778a61.171 61.171 0 00-.629 1.723c-.237.656-.492 1.376-.766 2.16a335.03 335.03 0 00-.847 2.461 430.41 430.41 0 01-.821 2.543c.328-.036.656-.064.985-.082.328-.018.674-.037 1.039-.055zm13.332 2.27c-.31.255-.483.711-.52 1.367a5.453 5.453 0 00.328 1.969 5.045 5.045 0 001.149 1.75c.51.51 1.148.765 1.914.765.492 0 .911-.118 1.258-.355.364-.237.656-.529.875-.875.237-.365.41-.766.519-1.203a5.26 5.26 0 00.164-1.285c0-.602-.118-1.103-.355-1.504a3.26 3.26 0 00-.903-1.039 4.713 4.713 0 00-1.285-.766c-.474-.219-.957-.438-1.449-.656a74.847 74.847 0 01-1.641-.684 9.178 9.178 0 01-1.832-1.121 6.885 6.885 0 01-1.504-1.723c-.401-.692-.601-1.54-.601-2.543 0-.656.173-1.321.519-1.996a6.08 6.08 0 011.477-1.832c.638-.565 1.404-1.021 2.297-1.367.911-.346 1.932-.519 3.062-.519 1.112 0 2.015.1 2.707.3.693.201 1.231.465 1.614.793.382.31.638.657.765 1.039.146.365.219.711.219 1.039 0 .329-.1.666-.301 1.012-.2.328-.437.638-.711.93a8.015 8.015 0 01-.847.738 3.94 3.94 0 01-.711.41c.091-.237.182-.565.273-.984a2.284 2.284 0 00-.082-1.258c-.127-.419-.446-.784-.957-1.094-.492-.31-1.294-.464-2.406-.464-.638 0-1.258.1-1.86.3a6.363 6.363 0 00-1.613.793c-.456.31-.82.666-1.094 1.067-.273.401-.41.811-.41 1.23 0 .401.137.775.41 1.121a5.72 5.72 0 001.149.957c.492.292 1.048.584 1.668.875.638.292 1.303.584 1.996.875.674.292 1.34.611 1.996.957.656.328 1.24.711 1.75 1.149a5.31 5.31 0 011.258 1.476c.31.547.465 1.176.465 1.887 0 .766-.146 1.504-.438 2.215a5.324 5.324 0 01-1.203 1.832c-.51.529-1.139.948-1.887 1.258-.747.328-1.595.492-2.543.492a6.885 6.885 0 01-2.379-.41 7.272 7.272 0 01-1.968-1.067 5.725 5.725 0 01-1.313-1.449c-.328-.529-.492-1.048-.492-1.558 0-.547.119-1.012.356-1.395.255-.383.565-.684.929-.902a3.595 3.595 0 011.121-.493c.401-.091.757-.109 1.067-.054zm15.218 0c-.309.255-.483.711-.519 1.367a5.453 5.453 0 00.328 1.969 5.042 5.042 0 001.148 1.75c.511.51 1.149.765 1.915.765.492 0 .911-.118 1.257-.355.365-.237.657-.529.875-.875.237-.365.411-.766.52-1.203a5.31 5.31 0 00.164-1.285c0-.602-.119-1.103-.356-1.504a3.244 3.244 0 00-.902-1.039 4.713 4.713 0 00-1.285-.766c-.474-.219-.957-.438-1.449-.656a74.847 74.847 0 01-1.641-.684 9.15 9.15 0 01-1.832-1.121 6.865 6.865 0 01-1.504-1.723c-.401-.692-.601-1.54-.601-2.543 0-.656.173-1.321.519-1.996a6.08 6.08 0 011.477-1.832c.638-.565 1.403-1.021 2.297-1.367.911-.346 1.932-.519 3.062-.519 1.112 0 2.014.1 2.707.3.693.201 1.231.465 1.613.793.383.31.638.657.766 1.039.146.365.219.711.219 1.039 0 .329-.1.666-.301 1.012a5.735 5.735 0 01-.711.93 7.926 7.926 0 01-.848.738 3.873 3.873 0 01-.711.41 6.88 6.88 0 00.274-.984 2.284 2.284 0 00-.082-1.258c-.128-.419-.447-.784-.957-1.094-.492-.31-1.294-.464-2.406-.464-.638 0-1.258.1-1.86.3a6.363 6.363 0 00-1.613.793c-.456.31-.82.666-1.094 1.067-.273.401-.41.811-.41 1.23 0 .401.137.775.41 1.121a5.72 5.72 0 001.149.957c.492.292 1.048.584 1.668.875.638.292 1.303.584 1.996.875.674.292 1.34.611 1.996.957a8.545 8.545 0 011.75 1.149c.528.437.948.929 1.258 1.476.31.547.464 1.176.464 1.887 0 .766-.145 1.504-.437 2.215a5.338 5.338 0 01-1.203 1.832 5.521 5.521 0 01-1.887 1.258c-.747.328-1.595.492-2.543.492a6.885 6.885 0 01-2.379-.41 7.293 7.293 0 01-1.969-1.067 5.74 5.74 0 01-1.312-1.449c-.328-.529-.492-1.048-.492-1.558 0-.547.118-1.012.355-1.395.255-.383.565-.684.93-.902a3.595 3.595 0 011.121-.493c.401-.091.757-.109 1.066-.054z" fill="#B7C5F2" fill-opacity=".6"/><path d="M47.695 49.052c.593 0 1.21.094 1.851.281.64.188 1.227.493 1.758.915.547.406.992.945 1.336 1.617.344.656.516 1.46.516 2.414a6.64 6.64 0 01-.492 2.508 7.3 7.3 0 01-1.36 2.226 8.242 8.242 0 01-2.11 1.735 8.405 8.405 0 01-2.765.96c0 .641.023 1.196.07 1.665.016.437.032.812.047 1.125.032.296.055.554.07.773.032.219.063.414.094.586.032.187.07.367.117.539a3.847 3.847 0 01-.89.516 5 5 0 01-.75.234c-.25.062-.484.078-.703.047a5.478 5.478 0 01-.352-1.617 39.634 39.634 0 01-.023-1.477c0-.61.015-1.383.047-2.32a3.22 3.22 0 00-.399-.024 3.02 3.02 0 01-.398-.07c-.11-.25-.18-.469-.211-.656a2.95 2.95 0 01-.047-.469c0-.156.016-.281.047-.375l.375.047h.351c.125.016.243.023.352.023.031-.718.063-1.46.094-2.226.047-.782.078-1.54.093-2.274.032-.734.055-1.437.07-2.11a115.9 115.9 0 00.071-1.827 4.834 4.834 0 00-1.242 1.219c-.344.5-.57 1.078-.68 1.734a.85.85 0 01-.515-.281 3.366 3.366 0 01-.352-.516 3.857 3.857 0 01-.281-.68 1.72 1.72 0 010-.89 2.75 2.75 0 01.328-.867c.156-.282.336-.524.539-.727.203-.219.398-.39.586-.516.344-.203.687-.382 1.031-.539a5.719 5.719 0 011.172-.422 4.1 4.1 0 01.563-.468c.218-.14.43-.227.632-.258.25-.063.391.101.422.492.14-.016.29-.023.446-.023.156-.016.32-.024.492-.024zm-1.266 10.899a8.587 8.587 0 001.383-.563c.5-.25.969-.578 1.406-.984a5.42 5.42 0 001.102-1.547c.297-.61.445-1.344.445-2.203 0-.657-.117-1.211-.352-1.664a3.018 3.018 0 00-.867-1.125 3.27 3.27 0 00-1.195-.633 3.98 3.98 0 00-1.266-.211h-.234c-.078 0-.156.008-.234.023-.047.5-.07 1.04-.07 1.618 0 .39-.008.867-.024 1.43a871.517 871.517 0 00-.094 3.797v2.062zm9.086.023a.845.845 0 01-.586-.023 1.616 1.616 0 01-.516-.422 2.245 2.245 0 01-.374-.657 2.654 2.654 0 01-.118-.796c.203-.032.422-.063.657-.094.234-.047.453-.086.656-.117l.68-.094c.015-.906.03-1.766.046-2.578.032-.828.055-1.563.07-2.203.032-.657.055-1.203.071-1.64.031-.454.055-.759.07-.915 0-.078.04-.156.117-.234.126-.094.305-.227.54-.399.25-.172.53-.328.843-.469.266-.109.438-.07.516.118.094.172.14.507.14 1.007a165.08 165.08 0 00-.093 2.836 618.881 618.881 0 00-.094 4.196c.25-.032.492-.055.727-.07.234-.016.484-.032.75-.047a78.33 78.33 0 002.086-.118 11.5 11.5 0 011.804 0c.078-2.234.102-3.906.07-5.015-.03-1.125-.046-1.79-.046-1.992 0-.094.101-.204.304-.329.203-.125.422-.234.657-.328.25-.11.476-.18.68-.21.202-.048.312-.04.327.023.016.11.016.383 0 .82 0 .438-.007 1.055-.023 1.852v2.93c.016 1.171.047 2.538.094 4.1a51.933 51.933 0 00-.047 2.25c0 .673.016 1.423.047 2.25.031.829.101 1.665.21 2.509a2.38 2.38 0 01-.656.398c-.234.094-.46.172-.68.234-.25.063-.5.11-.75.141a.449.449 0 01-.35-.094.493.493 0 01-.165-.257 1.738 1.738 0 01-.07-.305v-.891a7.56 7.56 0 01.047-.422c.03-.671.07-1.484.117-2.437.047-.953.094-2.016.14-3.188a2.154 2.154 0 00-.304-.023 8.278 8.278 0 00-.328-.047 18.733 18.733 0 00-2.297 0 29.49 29.49 0 00-2.39.234 50.729 50.729 0 000 2.18c.015.672.03 1.29.046 1.852.031.547.063 1.023.094 1.43.031.39.062.68.093.867.016.156-.007.265-.07.328-.062.078-.156.18-.281.304a1.77 1.77 0 01-.445.352 2.167 2.167 0 01-.633.305 2.46 2.46 0 01-.867.14c-.157 0-.235-.07-.235-.21v-.962c.016-.437.024-.968.024-1.593.015-.625.023-1.32.023-2.086.016-.782.031-1.61.047-2.485a4.582 4.582 0 00-.21.047 2.308 2.308 0 01-.165.047zm18.367-10.922c.594 0 1.211.094 1.852.281.64.188 1.226.493 1.758.915.546.406.992.945 1.335 1.617.344.656.516 1.46.516 2.414a6.64 6.64 0 01-.492 2.508 7.3 7.3 0 01-1.36 2.226 8.242 8.242 0 01-2.109 1.735 8.413 8.413 0 01-2.765.96c0 .641.023 1.196.07 1.665.016.437.031.812.047 1.125.031.296.055.554.07.773.031.219.063.414.094.586.031.187.07.367.117.539-.313.234-.61.406-.89.516a5 5 0 01-.75.234c-.25.062-.485.078-.704.047a5.478 5.478 0 01-.352-1.617 39.634 39.634 0 01-.023-1.477c0-.61.016-1.383.047-2.32a3.22 3.22 0 00-.398-.024 3.02 3.02 0 01-.399-.07c-.11-.25-.18-.469-.21-.656a2.95 2.95 0 01-.047-.469c0-.156.015-.281.046-.375l.375.047h.352c.125.016.242.023.352.023.03-.718.062-1.46.093-2.226.047-.782.078-1.54.094-2.274.031-.734.055-1.437.07-2.11a115.9 115.9 0 00.07-1.827 4.834 4.834 0 00-1.242 1.219c-.343.5-.57 1.078-.68 1.734a.85.85 0 01-.515-.281 3.366 3.366 0 01-.352-.516 3.857 3.857 0 01-.28-.68 1.72 1.72 0 010-.89c.062-.313.171-.602.327-.867.157-.282.336-.524.54-.727.203-.219.398-.39.585-.516.344-.203.688-.382 1.032-.539a5.719 5.719 0 011.171-.422 4.1 4.1 0 01.563-.468c.219-.14.43-.227.633-.258.25-.063.39.101.422.492a3.94 3.94 0 01.445-.023c.156-.016.32-.024.492-.024zm-1.265 10.899a8.587 8.587 0 001.382-.563c.5-.25.97-.578 1.407-.984a5.42 5.42 0 001.101-1.547c.297-.61.445-1.344.445-2.203 0-.657-.117-1.211-.351-1.664a3.018 3.018 0 00-.867-1.125 3.27 3.27 0 00-1.195-.633 3.98 3.98 0 00-1.266-.211h-.234a1.24 1.24 0 00-.235.023c-.047.5-.07 1.04-.07 1.618 0 .39-.008.867-.024 1.43l-.046 1.78a554.15 554.15 0 00-.047 2.016v2.063z" fill="#B7C5F2" fill-opacity=".33"/><path d="M3.859 185.279c-.25.083-.51.073-.781-.032a2.154 2.154 0 01-.688-.562 3.002 3.002 0 01-.5-.875 3.544 3.544 0 01-.156-1.063c.27-.041.562-.083.875-.125.312-.062.604-.114.875-.156.312-.041.614-.083.906-.125.02-1.208.042-2.354.063-3.437.041-1.104.072-2.084.093-2.938.042-.875.073-1.604.094-2.187a48.9 48.9 0 01.094-1.219c0-.104.052-.208.156-.313a84.6 84.6 0 01.719-.531 7.243 7.243 0 011.125-.625c.354-.146.583-.094.687.156.125.23.188.678.188 1.344-.042.938-.084 2.198-.125 3.781a827.184 827.184 0 00-.125 5.594c.333-.041.656-.073.969-.094.312-.02.645-.041 1-.062a110.22 110.22 0 002.78-.156c.917-.063 1.72-.063 2.407 0 .104-2.979.135-5.209.094-6.688-.042-1.5-.063-2.385-.063-2.656 0-.125.136-.271.407-.438.27-.166.562-.312.875-.437.333-.146.635-.24.906-.281.27-.063.416-.052.437.031.021.146.021.51 0 1.094 0 .583-.01 1.406-.031 2.468v3.907c.02 1.562.063 3.385.125 5.468a69.136 69.136 0 00-.063 3c0 .896.021 1.896.063 3 .042 1.105.135 2.219.281 3.344a3.18 3.18 0 01-.875.531c-.312.125-.614.23-.906.313a8.364 8.364 0 01-1 .187.594.594 0 01-.469-.125.653.653 0 01-.218-.343 2.321 2.321 0 01-.094-.407v-1.187c.02-.229.041-.417.062-.563.042-.895.094-1.979.157-3.25.062-1.27.125-2.687.187-4.25a3.012 3.012 0 00-.406-.031 11.027 11.027 0 00-.438-.062 24.794 24.794 0 00-3.062 0 39.019 39.019 0 00-3.188.312 70.33 70.33 0 000 2.906c.021.896.042 1.719.063 2.469.041.729.083 1.365.125 1.906.041.521.083.907.125 1.157.02.208-.01.354-.094.437-.083.104-.208.24-.375.406a2.359 2.359 0 01-.594.469c-.229.167-.51.302-.843.406a3.282 3.282 0 01-1.157.188c-.208 0-.312-.094-.312-.281v-1.282c.02-.583.031-1.291.031-2.125.02-.833.031-1.76.031-2.781.021-1.041.042-2.146.063-3.312a6.152 6.152 0 00-.281.062 2.983 2.983 0 01-.22.063zm16.156-10.375a1.496 1.496 0 01-.25-.438 4.521 4.521 0 01-.156-.5 5.253 5.253 0 01-.094-.562v-.532c0-.145.01-.281.031-.406a.59.59 0 01.157-.344 15.225 15.225 0 012.093-.375c.75-.104 1.459-.197 2.125-.281a97.852 97.852 0 012.282-.219 2.62 2.62 0 01.562-.312c.167-.063.302-.063.406 0 .042 0 .084.083.125.25h.125l2.157-.063c.583-.02 1.156-.02 1.718 0 .584 0 1.032.011 1.344.032.167.021.292.146.375.375.083.229.104.521.063.875a3.73 3.73 0 01-.282 1.156c-.166.417-.437.812-.812 1.187a8.704 8.704 0 00-1.5-.25c-.521-.062-.99-.114-1.407-.156a18.78 18.78 0 00-1.468-.062h-.157c.021.833.032 1.76.032 2.781 0 1-.01 2.021-.032 3.062 0 1.021-.01 2.032-.03 3.032-.022.979-.042 1.854-.063 2.625v3.187c0 .875.031 1.625.093 2.25.063.604.157 1.094.282 1.469.125.375.302.677.531.906l-.188.188a1.59 1.59 0 01-.375.375 2.359 2.359 0 01-.562.343 1.339 1.339 0 01-.719.125c-.687-.02-1.198-.25-1.531-.687-.333-.438-.563-1.052-.688-1.844-.125-.791-.177-1.75-.156-2.875a184.5 184.5 0 01.188-3.844c.062-.979.114-1.989.156-3.031.063-1.041.115-2.041.156-3 .063-.979.115-1.885.157-2.719.041-.854.083-1.593.125-2.218-.521.021-1.053.062-1.594.125-.48.041-1 .093-1.563.156a38.07 38.07 0 00-1.656.219zm31.063 19.812c-.626-.021-1.053-.219-1.282-.594-.229-.354-.364-.854-.406-1.5-.042-.645-.02-1.406.063-2.281.083-.896.124-1.864.124-2.906.021-2.063.094-3.938.22-5.625a40.08 40.08 0 00.124-4.969v-.344c0-.104-.01-.208-.031-.312-.104.354-.23.76-.375 1.219-.125.437-.281.927-.469 1.468-.375 1.167-.75 2.365-1.125 3.594a267.79 267.79 0 01-1.062 3.594 170.554 170.554 0 01-.969 3.219 63.7 63.7 0 01-.781 2.468c-.23.667-.459 1.157-.688 1.469-.208.334-.427.563-.656.688a1.06 1.06 0 01-.656.156l-.625-.063a22.097 22.097 0 00-.469-2.5 65.488 65.488 0 00-.719-2.75 75.969 75.969 0 00-.968-3.125 71.97 71.97 0 00-1.5-5.031 101.44 101.44 0 01-1.22-3.75 51.775 51.775 0 00-.28 3.656c-.063 1.375-.105 2.75-.126 4.125-.02 1.375-.01 2.678.032 3.907a40.19 40.19 0 00.187 2.937c.021.313.063.625.125.938.042.271.094.541.157.812.083.292.177.552.28.781a1.542 1.542 0 01-.374.219 2.97 2.97 0 01-.469.156 4.91 4.91 0 01-.594.157c-.812.166-1.406.146-1.781-.063-.354-.208-.573-.625-.656-1.25-.042-.312-.073-.896-.094-1.75-.02-.854-.031-1.833-.031-2.937.02-1.125.052-2.302.093-3.532.042-1.229.105-2.375.188-3.437.083-.854.167-1.781.25-2.781.083-.875.167-1.886.25-3.032.083-1.145.177-2.385.281-3.718a.756.756 0 01.313-.313c.146-.104.302-.187.468-.25a2.73 2.73 0 01.626-.187c.354-.063.666-.115.937-.157a9.73 9.73 0 01.625-.093c.208-.021.292-.021.25 0 .27.562.48 1.031.625 1.406.146.354.292.781.438 1.281.166.5.364 1.156.593 1.969.25.812.604 1.948 1.063 3.406a348.005 348.005 0 011.593 5.281c.459 1.5.803 2.646 1.032 3.438.146-.271.291-.563.437-.875.146-.333.292-.729.438-1.188.166-.458.333-.989.5-1.593.187-.625.396-1.365.625-2.219.291-.938.593-1.948.906-3.031.25-.917.52-1.959.813-3.125.312-1.188.604-2.417.874-3.688a19.165 19.165 0 011.626-.594c.416-.145.74-.26.968-.343a5.14 5.14 0 01.594-.157c.125.021.25.084.375.188.104.104.23.25.375.437.146.188.302.469.469.844v3.656c0 .834-.01 1.74-.032 2.719l-.062 2.969c0 .979-.01 1.937-.031 2.875 0 .937-.01 1.771-.032 2.5a44.417 44.417 0 00-.03 2.812c.04.771.103 1.417.187 1.938.104.5.229.906.375 1.219.166.312.364.562.593.75a3.045 3.045 0 01-.374.187 2.93 2.93 0 01-.626.281 4.75 4.75 0 01-.78.25 3.229 3.229 0 01-.72.094zm5.25-1.094c.083-.27.156-.729.218-1.375.084-.625.146-1.26.188-1.906.062-.75.114-1.562.156-2.437.063-.646.115-1.459.156-2.438.042-.979.073-2.021.094-3.125a184.6 184.6 0 00.031-3.344c0-1.145-.01-2.208-.031-3.187a38.671 38.671 0 00-.125-2.531c-.042-.709-.104-1.188-.188-1.438.396-.229.75-.396 1.063-.5.313-.104.583-.177.813-.219a2.02 2.02 0 01.687-.062c.167.021.333.052.5.094.146.041.281.104.406.187a.615.615 0 01.282.281 262.99 262.99 0 01-.157 3.969 147.074 147.074 0 01-.156 3.625 663.64 663.64 0 01-.25 3.719c-.063 1.25-.125 2.333-.188 3.25a173.1 173.1 0 01-.124 2.375 76.183 76.183 0 00-.094 1.812 38.99 38.99 0 00-.032 1.563c.5-.104 1.094-.219 1.782-.344a54.948 54.948 0 012.343-.437c.834-.125 1.532-.157 2.094-.094.563.042 1.01.167 1.344.375.333.187.563.427.688.719.124.312.177.656.156 1.031-.042.417-.073.74-.094.969-.02.229-.031.406-.031.531-.23-.146-.542-.25-.938-.313a24.133 24.133 0 00-1.187-.156 10.966 10.966 0 00-1.438-.031 30.7 30.7 0 00-1.781.125c-.542.042-1.177.104-1.906.187-.73.084-1.49.209-2.282.375a27.523 27.523 0 00-1.406-.937 21.723 21.723 0 00-.593-.313z" fill="#B7C5F2" fill-opacity=".75"/><path d="M275.781 89.81c-1.125 0-2.146-.281-3.063-.844-.917-.541-1.698-1.291-2.344-2.25-.625-.958-1.114-2.083-1.468-3.375-.334-1.291-.5-2.687-.5-4.187 0-2.146.25-4.063.75-5.75.5-1.688 1.156-3.115 1.968-4.281.834-1.167 1.771-2.063 2.813-2.688 1.062-.625 2.146-.938 3.25-.938 1.042 0 1.917.188 2.625.563.708.375 1.271.854 1.687 1.438.438.583.73 1.229.875 1.937.167.688.219 1.344.157 1.969-.105 1.208-.521 2.187-1.25 2.937-.709.75-1.532 1.125-2.469 1.125a5.495 5.495 0 01-.969-.156 4.623 4.623 0 01-.906-.375 3.09 3.09 0 01-.875-.719c.875.063 1.552-.114 2.031-.531a4.008 4.008 0 001.063-1.406c.25-.604.395-1.313.437-2.125 0-.459-.073-.854-.219-1.188a2.117 2.117 0 00-.593-.843 2.177 2.177 0 00-1.532-.656c-.562 0-1.177.218-1.843.656-.646.437-1.261 1.104-1.844 2-.583.874-1.073 2-1.469 3.374-.375 1.355-.562 2.97-.562 4.844 0 1.854.166 3.375.5 4.563.333 1.166.739 2.083 1.218 2.75.48.646.98 1.094 1.5 1.344.542.229 1 .343 1.375.343a3.92 3.92 0 002-.75c.521-.375 1.011-.968 1.469-1.781.479-.833.802-2.02.969-3.563.271.021.489.084.656.188.188.104.344.208.469.313.125.124.239.27.344.437.02.02.02.23 0 .625a9.006 9.006 0 01-.219 1.438 10.746 10.746 0 01-.594 1.812 6.27 6.27 0 01-1.094 1.813 5.235 5.235 0 01-1.75 1.374c-.708.376-1.573.563-2.593.563zm13.656-8.406c-.354.291-.552.812-.594 1.562a6.21 6.21 0 00.375 2.25c.292.75.729 1.417 1.313 2 .583.584 1.312.875 2.187.875.563 0 1.042-.135 1.438-.406.416-.27.75-.604 1-1a4.53 4.53 0 00.593-1.375c.125-.5.188-.99.188-1.469 0-.687-.136-1.26-.406-1.718a3.726 3.726 0 00-1.032-1.188 5.376 5.376 0 00-1.468-.875c-.542-.25-1.094-.5-1.657-.75a88.587 88.587 0 01-1.875-.781 10.445 10.445 0 01-2.093-1.281 7.842 7.842 0 01-1.719-1.97c-.458-.79-.688-1.76-.688-2.906 0-.75.198-1.51.594-2.28.396-.772.958-1.47 1.688-2.094.729-.646 1.604-1.167 2.625-1.563 1.041-.396 2.208-.594 3.5-.594 1.27 0 2.302.115 3.093.344.792.23 1.407.531 1.844.906.438.354.729.75.875 1.188.167.416.25.812.25 1.187s-.114.76-.344 1.157c-.229.374-.5.729-.812 1.062a9.14 9.14 0 01-.969.844c-.333.229-.604.385-.812.469.104-.271.208-.646.312-1.126a2.607 2.607 0 00-.094-1.437c-.145-.48-.51-.896-1.093-1.25-.563-.354-1.48-.531-2.75-.531a6.67 6.67 0 00-2.125.344 7.24 7.24 0 00-1.844.906c-.521.354-.938.76-1.25 1.219-.313.458-.469.927-.469 1.406 0 .458.156.885.469 1.281.333.375.771.74 1.312 1.094.563.333 1.198.666 1.907 1a84.79 84.79 0 002.281 1 32.39 32.39 0 012.281 1.094c.75.374 1.417.812 2 1.312a6.103 6.103 0 011.438 1.688c.354.624.531 1.343.531 2.156a6.61 6.61 0 01-.5 2.531 6.106 6.106 0 01-1.375 2.094c-.583.604-1.302 1.083-2.156 1.437-.855.375-1.823.563-2.907.563a7.847 7.847 0 01-2.718-.469 8.283 8.283 0 01-2.25-1.219 6.562 6.562 0 01-1.5-1.656c-.375-.604-.563-1.198-.563-1.781 0-.625.136-1.156.406-1.594a3.34 3.34 0 011.063-1.031 4.09 4.09 0 011.281-.563c.458-.104.865-.125 1.219-.062zm17.25 0c-.354.291-.552.812-.594 1.562a6.21 6.21 0 00.375 2.25c.292.75.729 1.417 1.313 2 .583.584 1.312.875 2.187.875.563 0 1.042-.135 1.438-.406.416-.27.75-.604 1-1a4.53 4.53 0 00.593-1.375c.125-.5.188-.99.188-1.469 0-.687-.136-1.26-.406-1.718a3.726 3.726 0 00-1.032-1.188 5.376 5.376 0 00-1.468-.875c-.542-.25-1.094-.5-1.657-.75a88.587 88.587 0 01-1.875-.781 10.445 10.445 0 01-2.093-1.281 7.842 7.842 0 01-1.719-1.97c-.458-.79-.688-1.76-.688-2.906 0-.75.198-1.51.594-2.28.396-.772.958-1.47 1.688-2.094.729-.646 1.604-1.167 2.625-1.563 1.041-.396 2.208-.594 3.5-.594 1.27 0 2.302.115 3.093.344.792.23 1.407.531 1.844.906.438.354.729.75.875 1.188.167.416.25.812.25 1.187s-.114.76-.344 1.157c-.229.374-.5.729-.812 1.062a9.14 9.14 0 01-.969.844c-.333.229-.604.385-.812.469.104-.271.208-.646.312-1.126a2.607 2.607 0 00-.094-1.437c-.145-.48-.51-.896-1.093-1.25-.563-.354-1.48-.531-2.75-.531a6.67 6.67 0 00-2.125.344 7.24 7.24 0 00-1.844.906c-.521.354-.938.76-1.25 1.219-.313.458-.469.927-.469 1.406 0 .458.156.885.469 1.281.333.375.771.74 1.312 1.094.563.333 1.198.666 1.907 1a84.79 84.79 0 002.281 1 32.39 32.39 0 012.281 1.094c.75.374 1.417.812 2 1.312a6.103 6.103 0 011.438 1.688c.354.624.531 1.343.531 2.156a6.61 6.61 0 01-.5 2.531 6.106 6.106 0 01-1.375 2.094c-.583.604-1.302 1.083-2.156 1.437-.855.375-1.823.563-2.907.563a7.847 7.847 0 01-2.718-.469 8.283 8.283 0 01-2.25-1.219 6.562 6.562 0 01-1.5-1.656c-.375-.604-.563-1.198-.563-1.781 0-.625.136-1.156.406-1.594a3.34 3.34 0 011.063-1.031 4.09 4.09 0 011.281-.563c.458-.104.865-.125 1.219-.062z" fill="#B7C5F2" fill-opacity=".47"/><path d="M102.988 268.06c-.352-1.289-.606-2.35-.762-3.184a41.595 41.595 0 01-.332-1.972c-.052-.495-.072-.847-.059-1.055.013-.221.02-.358.02-.41-.013-.208.013-.43.078-.664.078-.235.26-.43.547-.586.338-.221.651-.345.937-.371.3-.039.463-.046.489-.02a1.422 1.422 0 00-.118.489c-.013.182 0 .449.04.8.039.339.097.801.175 1.387.091.573.209 1.335.352 2.285.104.703.215 1.387.332 2.051l.371 1.895c.13.585.254 1.132.371 1.64.117.508.228.957.332 1.348.078-.339.156-.729.234-1.172.092-.456.183-.938.274-1.445.104-.508.215-1.029.332-1.563.13-.534.267-1.061.41-1.582a68.154 68.154 0 01.957-3.73c.195-.651.404-1.25.625-1.797.313-.183.606-.3.879-.352a2.492 2.492 0 011.406.117c-.13.274-.267.593-.41.957-.143.352-.286.723-.43 1.114-.13.377-.26.768-.39 1.172-.13.403-.254.794-.371 1.171-.274.899-.547 1.817-.821 2.754-.221.782-.436 1.576-.644 2.383-.182.69-.371 1.432-.567 2.227a93.625 93.625 0 00-.488 2.246c0 .065-.078.137-.234.215a2.233 2.233 0 01-.528.195c-.195.065-.41.104-.644.117a1.223 1.223 0 01-.586-.058 20.694 20.694 0 01-.664-2.032c-.208-.768-.397-1.491-.566-2.168a69.254 69.254 0 01-.547-2.402zm10.629 1.621c.039.638.136 1.185.293 1.641.156.455.345.827.566 1.113.221.286.462.495.723.625.26.143.507.215.742.215.247 0 .495-.078.742-.235a2.41 2.41 0 00.703-.742c.208-.338.371-.748.488-1.23.118-.495.163-1.074.137-1.738 0-.612-.013-1.342-.039-2.188-.026-.729-.065-1.628-.117-2.695a145.534 145.534 0 00-.195-3.77c-.013-.091.052-.189.195-.293a2.17 2.17 0 01.547-.293c.221-.078.442-.13.664-.156.221-.026.403 0 .547.078.104 1.159.175 2.272.215 3.34.052 1.068.084 2.012.097 2.832a94.41 94.41 0 010 2.715c.039 1.028-.058 1.914-.293 2.656-.234.742-.553 1.348-.957 1.816-.403.482-.859.84-1.367 1.075a3.615 3.615 0 01-1.523.351c-.756.013-1.4-.136-1.934-.449-.534-.312-.97-.794-1.309-1.445-.325-.651-.566-1.465-.722-2.442-.157-.976-.235-2.122-.235-3.437-.013-.638.007-1.302.059-1.992.039-.586.098-1.231.176-1.934.078-.716.195-1.413.351-2.09-.013-.299.085-.521.293-.664a2.39 2.39 0 01.723-.312 4.24 4.24 0 011.035-.078 89.84 89.84 0 00-.43 4.179 96.246 96.246 0 00-.156 3.047 32.872 32.872 0 00-.019 2.5zm9.046-7.461a1.041 1.041 0 01-.195-.273 4.38 4.38 0 01-.098-.293.939.939 0 01-.058-.332 1.26 1.26 0 010-.313l.039-.234c.013-.091.046-.156.098-.195.104-.027.221-.046.351-.059.143-.026.274-.052.391-.078l.429-.078c.053-.078.157-.157.313-.235.169-.091.345-.169.527-.234.196-.065.378-.111.547-.137.169-.039.287-.039.352 0v.41c.338-.039.69-.071 1.054-.097.365-.039.756-.059 1.172-.059l1.426-.039c.378-.013.755-.013 1.133 0 .391 0 .69.007.898.02.105.013.183.091.235.234.065.13.084.299.058.508a1.891 1.891 0 01-.195.683 2.222 2.222 0 01-.547.703 10.938 10.938 0 00-.976-.156 39.026 39.026 0 00-.938-.097 8.263 8.263 0 00-.976-.02c-.404 0-.801.013-1.192.039-.391.013-.768.033-1.133.059.013.638.02 1.367.02 2.187l.039 2.461a1130.401 1130.401 0 011.035-.078l1.367-.078a5.547 5.547 0 011.172.039c.339.039.593.137.762.293.169.156.208.404.117.742l-.273.938c-.026-.065-.098-.118-.215-.157a1.383 1.383 0 00-.371-.117 4.835 4.835 0 00-.528-.097 8.091 8.091 0 00-1.504-.02c-.546.039-1.067.098-1.562.176v.019a64.28 64.28 0 01-.02 2.852 41.846 41.846 0 01-.058 1.758c.169-.026.332-.046.488-.059.169-.013.345-.032.527-.059.469-.039.957-.065 1.465-.078.43-.013.905-.013 1.426 0 .534 0 1.048.033 1.543.098.078.13.104.3.078.508-.026.208-.072.41-.137.605a7.566 7.566 0 01-.293.742 27.074 27.074 0 00-1.699-.136 86.217 86.217 0 00-1.465-.059 26.008 26.008 0 00-1.425 0c-.808-.026-1.446.013-1.914.117a98.25 98.25 0 00-.997.254c-.13.039-.227.02-.293-.058a1.68 1.68 0 01-.214-.391c-.079-.169-.105-.41-.079-.723 0-.026.007-.065.02-.117.013-.039.052-.071.117-.097.078-.026.202-.059.371-.098.17-.039.378-.085.625-.137.026-.534.046-1.211.059-2.031.013-.82.032-1.654.058-2.5-.221-.039-.416-.215-.585-.527a2.13 2.13 0 01-.235-1.075c.078-.026.163-.045.254-.058.104-.013.202-.033.293-.059.104-.026.208-.045.313-.058.013-.339.019-.645.019-.918 0-.274.007-.515.02-.723.026-.547.032-1.087.019-1.621-.013-.547-.026-1.048-.039-1.504l-.371.039-.332.039c-.117.013-.221.026-.313.039z" fill="#B7C5F2" fill-opacity=".5"/><path d="M282.517 231.72a5.46 5.46 0 011.543.235c.534.156 1.022.41 1.465.761.456.339.827.788 1.113 1.348.287.547.43 1.217.43 2.012 0 .716-.137 1.412-.41 2.089a6.083 6.083 0 01-1.133 1.856 6.858 6.858 0 01-1.758 1.445 6.996 6.996 0 01-2.305.801c0 .534.02.996.059 1.387.013.364.026.677.039.937.026.248.046.462.059.645.026.182.052.345.078.488.026.156.058.306.097.449-.26.196-.508.339-.742.43a4.167 4.167 0 01-.625.195 1.523 1.523 0 01-.586.039 4.566 4.566 0 01-.293-1.347 32.034 32.034 0 01-.019-1.231c0-.508.013-1.152.039-1.933a2.68 2.68 0 00-.332-.02 2.362 2.362 0 01-.332-.059 2.378 2.378 0 01-.176-.546 2.473 2.473 0 01-.039-.391c0-.13.013-.234.039-.313l.312.04h.293c.105.013.202.019.293.019l.078-1.855c.04-.651.066-1.283.079-1.895.026-.612.045-1.198.058-1.758.026-.573.046-1.08.059-1.523-.391.26-.736.599-1.035 1.015a3.538 3.538 0 00-.567 1.446.703.703 0 01-.429-.235 2.727 2.727 0 01-.528-.996 1.436 1.436 0 010-.742c.052-.26.143-.501.274-.723.13-.234.28-.436.449-.605a2.82 2.82 0 01.488-.43c.287-.169.573-.319.859-.449.287-.143.612-.26.977-.351.143-.144.3-.274.469-.391a1.37 1.37 0 01.527-.215c.208-.052.326.085.352.41.117-.013.241-.019.371-.019.13-.013.267-.02.41-.02zm-1.055 9.082c.352-.104.736-.26 1.153-.469a4.992 4.992 0 001.171-.82 4.49 4.49 0 00.918-1.289c.248-.508.372-1.12.372-1.836 0-.547-.098-1.009-.293-1.387a2.527 2.527 0 00-.723-.937 2.737 2.737 0 00-.996-.527 3.298 3.298 0 00-1.055-.176h-.195a.991.991 0 00-.195.019c-.04.417-.059.866-.059 1.348 0 .325-.007.723-.02 1.191a358.653 358.653 0 00-.078 3.164v1.719zm9.145.879c.039.638.137 1.185.293 1.641.156.455.345.827.566 1.113.222.286.462.495.723.625.26.143.508.215.742.215.247 0 .495-.078.742-.235.261-.169.495-.416.703-.742.209-.338.371-.748.489-1.23.117-.495.162-1.074.136-1.738 0-.612-.013-1.342-.039-2.188-.026-.729-.065-1.628-.117-2.695a145.534 145.534 0 00-.195-3.77c-.013-.091.052-.189.195-.293.156-.117.339-.215.547-.293.221-.078.443-.13.664-.156.221-.026.404 0 .547.078.104 1.159.176 2.272.215 3.34.052 1.068.084 2.012.097 2.832a94.41 94.41 0 010 2.715c.039 1.028-.058 1.914-.293 2.656-.234.742-.553 1.348-.957 1.816-.403.482-.859.84-1.367 1.075a3.611 3.611 0 01-1.523.351c-.755.013-1.4-.136-1.934-.449-.534-.312-.97-.794-1.308-1.445-.326-.651-.567-1.465-.723-2.442-.156-.976-.234-2.122-.234-3.437-.013-.638.006-1.302.058-1.992.039-.586.098-1.231.176-1.934.078-.716.195-1.413.351-2.09-.013-.299.085-.521.293-.664.222-.143.463-.247.723-.312.3-.065.645-.091 1.035-.078a88.368 88.368 0 00-.429 4.179 93.697 93.697 0 00-.157 3.047 32.872 32.872 0 00-.019 2.5zm13.207 4.981a3.242 3.242 0 01-1.719-.489c-.521-.325-.983-.794-1.387-1.406-.403-.612-.722-1.354-.957-2.227-.221-.885-.332-1.881-.332-2.988s.15-2.135.45-3.086c.299-.95.696-1.777 1.191-2.48.495-.703 1.068-1.25 1.719-1.641.664-.403 1.347-.605 2.05-.605.717 0 1.303.097 1.758.293.456.195.814.462 1.074.8.261.326.437.71.528 1.153.091.442.124.905.097 1.386a3.224 3.224 0 01-.195.958c-.117.312-.26.592-.43.839a2.064 2.064 0 01-.546.567c-.196.13-.384.156-.567.078a16.182 16.182 0 01-.469-.137 11.842 11.842 0 01-1.113-.449c.261-.182.501-.391.723-.625.182-.208.345-.462.488-.762.156-.299.234-.644.234-1.035 0-.338-.045-.625-.136-.859a1.41 1.41 0 00-.332-.586 1.096 1.096 0 00-.449-.332 1.209 1.209 0 00-.508-.117c-.43 0-.86.169-1.289.507-.417.339-.795.814-1.133 1.426-.326.599-.593 1.315-.801 2.149a11.187 11.187 0 00-.312 2.714c0 .769.071 1.485.214 2.149.157.651.358 1.217.606 1.699.247.469.534.84.859 1.113.339.261.697.391 1.074.391.287 0 .56-.078.821-.234a2.09 2.09 0 00.664-.645c.182-.273.325-.605.43-.996a4.48 4.48 0 00.175-1.289c0-.43-.013-.762-.039-.996a3.66 3.66 0 00-.058-.547c-.013-.13-.033-.208-.059-.234l-.019-.039c.013 0 .117.006.312.019s.41.046.645.098c.247.039.475.11.683.215.208.091.345.221.41.39.052.169.085.488.098.957.013.456.006.964-.02 1.524a69.096 69.096 0 01-.058 1.64c-.013.547-.02.996-.02 1.348 0 .091-.091.195-.273.312a2.432 2.432 0 01-.586.293 1.77 1.77 0 01-.586.157c-.182.013-.28-.033-.293-.137v-1.856a3.281 3.281 0 01-.937 1.114c-.417.338-.977.508-1.68.508z" fill="#B7C5F2" fill-opacity=".7"/><path d="M455.316 216.472c-.796 0-1.473-.169-2.031-.508a4.19 4.19 0 01-1.321-1.295 5.643 5.643 0 01-.711-1.726 9.14 9.14 0 01-.203-1.879c0-.525.068-1.016.203-1.473.153-.474.288-.795.407-.965.084-.118.194-.245.33-.38.135-.136.33-.229.584-.28.27-.051.541-.11.812-.177.237-.051.466-.094.686-.127.237-.034.448-.068.634-.102a3.99 3.99 0 00-.634.99c-.17.373-.297.762-.381 1.168-.085.39-.144.77-.178 1.143a5.05 5.05 0 000 1.015c.051.847.296 1.541.736 2.082.457.525.957.788 1.498.788.424 0 .788-.127 1.092-.381a2.81 2.81 0 00.762-.94 5.69 5.69 0 00.482-1.345c.119-.508.203-1.016.254-1.524.051-.525.085-1.032.102-1.523.017-.508.025-.948.025-1.321 0-.626-.034-1.312-.101-2.056a53.904 53.904 0 00-.483-4.342 78.586 78.586 0 00-.228-1.701 10.98 10.98 0 00-1.727.381c-.474.152-.914.279-1.32.38-.186.034-.305 0-.356-.101-.287-.474-.44-.897-.457-1.27-.017-.372 0-.651.051-.838.017-.084.11-.16.279-.228.61-.203 1.397-.398 2.362-.584a22.342 22.342 0 013.275-.356c.339 0 .66.009.965.026.271.017.55.051.838.101.305.051.575.127.812.229a.777.777 0 01.229.33c.051.119.093.245.127.381.034.169.051.338.051.508 0 .186-.017.372-.051.558-.034.17-.076.356-.127.559a4.393 4.393 0 01-.203.609 2.236 2.236 0 00-.28-.279.93.93 0 00-.38-.254 2.065 2.065 0 00-.661-.178 7.872 7.872 0 00-1.091-.101c.152.948.279 1.777.381 2.488.118.711.211 1.405.279 2.082.084.677.144 1.388.178 2.133.05.745.076 1.625.076 2.641 0 1.388-.153 2.572-.457 3.554-.305.965-.72 1.752-1.244 2.362-.508.609-1.101 1.049-1.778 1.32a5.617 5.617 0 01-2.107.406zm12.476-7.008c-.287.237-.448.66-.482 1.27a5.056 5.056 0 00.305 1.828 4.676 4.676 0 001.066 1.625c.474.474 1.066.711 1.777.711.457 0 .847-.11 1.168-.33.339-.22.61-.491.813-.813.22-.338.381-.711.482-1.117.102-.406.153-.804.153-1.193 0-.559-.11-1.024-.33-1.397a3.054 3.054 0 00-.838-.965 4.424 4.424 0 00-1.194-.711c-.44-.203-.888-.406-1.345-.609a67.003 67.003 0 01-1.524-.635 8.447 8.447 0 01-1.701-1.041 6.388 6.388 0 01-1.397-1.599c-.372-.643-.558-1.431-.558-2.362 0-.609.161-1.227.482-1.853a5.646 5.646 0 011.371-1.701c.593-.525 1.304-.948 2.133-1.27.847-.321 1.794-.482 2.844-.482 1.033 0 1.87.093 2.514.279.643.186 1.142.432 1.498.736.355.288.592.61.711.965.135.339.203.66.203.965 0 .305-.093.618-.28.94a5.326 5.326 0 01-.66.863 7.32 7.32 0 01-.787.685 3.59 3.59 0 01-.66.381c.085-.22.169-.525.254-.914a2.122 2.122 0 00-.076-1.168c-.119-.389-.415-.728-.889-1.015-.457-.288-1.202-.432-2.234-.432-.593 0-1.168.093-1.727.279a5.874 5.874 0 00-1.498.737 3.766 3.766 0 00-1.016.99c-.253.372-.38.753-.38 1.142 0 .373.127.72.38 1.041.271.305.627.601 1.067.889.457.271.973.542 1.549.813.592.27 1.21.541 1.853.812a26.43 26.43 0 011.854.889c.609.304 1.151.66 1.625 1.066.491.406.88.863 1.168 1.371.287.508.431 1.092.431 1.752 0 .711-.135 1.397-.406 2.057a4.956 4.956 0 01-1.117 1.701 5.131 5.131 0 01-1.752 1.168c-.694.305-1.481.457-2.361.457a6.375 6.375 0 01-2.209-.381 6.747 6.747 0 01-1.828-.99 5.312 5.312 0 01-1.219-1.346c-.305-.491-.457-.973-.457-1.447 0-.508.11-.94.33-1.295.237-.355.525-.635.863-.838.339-.22.686-.372 1.041-.457.373-.085.703-.101.99-.051z" fill="#B7C5F2" fill-opacity=".6"/><path d="M334.265 152.435c-.208.583-.292 1.146-.25 1.687.083.5.188 1.021.313 1.563.083.292.25.833.5 1.625.208.708.5 1.708.875 3 .375 1.25.895 3 1.562 5.25-.083.333-.208.604-.375.812a4.664 4.664 0 01-.437.5 2.919 2.919 0 01-.563.438c-.583.375-1.146.479-1.687.312-.5-.166-.834-.395-1-.687a55.02 55.02 0 00-.875-1.563 60.728 60.728 0 01-1.563-2.937 70.663 70.663 0 01-1.5-3.188c-.458-1.083-.708-1.875-.75-2.375-.083-1.041.188-1.895.813-2.562a6.396 6.396 0 012.187-1.625 9.36 9.36 0 011-.313c.625-.125 1.208-.104 1.75.063z" fill="#B7C5F2" fill-opacity=".69"/><path d="M412.009 16.846c.827 0 1.543.165 2.15.496.661.33 1.185.771 1.571 1.323a4.08 4.08 0 01.909 1.653c.221.607.331 1.186.331 1.737a8.576 8.576 0 01-.909 3.886c-.552 1.213-1.213 2.26-1.985 3.142-.772.937-1.543 1.654-2.315 2.15-.772.551-1.323.827-1.654.827-.165 0-.331-.083-.496-.248a1.923 1.923 0 01-.331-.496c-.11-.22-.22-.551-.331-.992a108.81 108.81 0 011.654-2.316c.607-.771.965-1.764 1.075-2.976a4.33 4.33 0 01-.992.248 8.767 8.767 0 01-1.24.082c-1.103 0-1.985-.275-2.646-.827-.607-.55-.91-1.212-.91-1.984 0-.551.138-1.158.413-1.82a6.378 6.378 0 011.158-1.818 7.098 7.098 0 011.902-1.489c.772-.386 1.654-.578 2.646-.578zM413.497.06c.882 0 1.737.303 2.564.91.826.606 1.24 1.598 1.24 2.976 0 1.434-.634 2.729-1.902 3.887-1.213 1.157-2.949 1.736-5.209 1.736-.827 0-1.516-.11-2.067-.33a5.547 5.547 0 01-1.241-.91c-.33-.331-.551-.69-.661-1.075a3.941 3.941 0 01-.166-1.075c0-.717.193-1.433.579-2.15a6.45 6.45 0 011.571-1.902A9.729 9.729 0 01410.603.64a7.533 7.533 0 012.894-.579z" fill="#B7C5F2" fill-opacity=".45"/><path d="M177.589 205.451c.13.104.235.234.313.39.104.156.182.326.234.508.078.208.13.43.156.664.026.234.039.469.039.703 0 .209-.013.417-.039.625a3.87 3.87 0 01-.117.586c-.989.625-1.888 1.211-2.695 1.758-.781.521-1.445.977-1.992 1.367-.651.469-1.224.899-1.719 1.289.443.443.99.925 1.641 1.446.546.468 1.21 1.028 1.992 1.679.781.625 1.679 1.341 2.695 2.149.052.208.065.455.039.742 0 .26-.026.521-.078.781-.052.287-.117.586-.195.899a5.727 5.727 0 01-.157.585l-.156.391c-.026.104-.052.13-.078.078a63.69 63.69 0 01-3.359-2.773 76.44 76.44 0 01-2.344-2.227 32.197 32.197 0 01-1.914-1.992c-.104-.13-.195-.352-.274-.664a6.862 6.862 0 01-.156-1.016c-.026-.364-.039-.69-.039-.976.026-.313.091-.508.195-.586.339-.313.717-.638 1.133-.977l1.25-1.093c.443-.365.886-.717 1.328-1.055.443-.365.86-.69 1.25-.977.391-.312.769-.612 1.133-.898.313-.261.638-.508.977-.742.364-.261.677-.482.937-.664zm12.094-5.625a4.304 4.304 0 011.367-.782c.495-.156.951-.26 1.367-.312a6.365 6.365 0 011.407 0 2258.13 2258.13 0 00-2.735 6.406 155.398 155.398 0 00-1.953 4.961 85.516 85.516 0 00-1.641 4.375 179.711 179.711 0 00-1.757 4.57 68.502 68.502 0 00-1.368 4.063c-.338 1.224-.572 2.265-.703 3.125-.13.885-.104 1.523.078 1.914-.234.13-.52.26-.859.391-.312.13-.638.221-.976.273a4.438 4.438 0 01-1.016.039 1.204 1.204 0 01-.781-.352c-.313-.286-.43-.69-.352-1.21a9.319 9.319 0 01.43-1.68c.104-.261.325-.86.664-1.797.338-.964.742-2.096 1.211-3.398.469-1.329.976-2.761 1.523-4.297.573-1.537 1.133-3.047 1.68-4.532l1.367-3.711c.417-1.119.886-2.369 1.406-3.75a379.894 379.894 0 001.641-4.296zm6.117 5.625l.86.664c.364.234.703.481 1.015.742.365.286.742.586 1.133.898a59.867 59.867 0 012.539 2.071 68.796 68.796 0 012.422 2.031c.104.078.169.273.195.586.026.286.013.612-.039.976a6.862 6.862 0 01-.156 1.016c-.078.312-.169.534-.274.664a38.936 38.936 0 01-1.875 1.992 59.386 59.386 0 01-2.382 2.227 53.232 53.232 0 01-3.321 2.773c-.026.052-.065.026-.117-.078a2.26 2.26 0 00-.117-.391 2.562 2.562 0 01-.195-.585 14.201 14.201 0 01-.196-.899 8.09 8.09 0 01-.117-.781c0-.287.026-.534.078-.742 1.016-.808 1.914-1.524 2.696-2.149.781-.651 1.445-1.211 1.992-1.679a35.047 35.047 0 001.64-1.446c-.494-.39-1.067-.82-1.718-1.289a53.626 53.626 0 00-2.032-1.367 67.045 67.045 0 00-2.656-1.758 2.153 2.153 0 01-.156-.586v-.625c0-.234.013-.469.039-.703.026-.234.078-.456.156-.664.052-.182.117-.352.196-.508.104-.156.234-.286.39-.39z" fill="#B7C5F2" fill-opacity=".35"/></svg>