<svg width="1440" height="1024" fill="none" xmlns="http://www.w3.org/2000/svg"><g clip-path="url(#clip0_850_4678)"><path fill-rule="evenodd" clip-rule="evenodd" d="M1437.43 376l-3.12-5h-82.96l-2.51 4.025.7.975h87.89zm12.47 20l-3.12-5h-86.45l3.6 5h85.97zm24.95 40l-3.11-5h-82.63l3.6 5h82.14zM1291 467.75h124.55L1407.1 456h-108.77l-7.33 11.75zm10.45-16.75l9.35-15h81.91l10.79 15h47.58a2.5 2.5 0 010 5h-43.98l-3.6-5h-102.05zm12.47-20h75.19l-10.79-15h-55.04l-9.36 15zm12.48-20l9.35-15h28.18l10.79 15h47.61a2.5 2.5 0 010 5h-44.01l-3.6-5h-48.32zm12.47-20h21.46l-10.79-15h-1.31l-9.36 15z" fill="url(#paint0_linear_850_4678)" fill-opacity=".69" style="mix-blend-mode:multiply"/><path d="M561.007 738.106c-1.034-1.387.712-3.133 2.099-2.099l11.717 8.734a1.502 1.502 0 001.793 0l11.717-8.734c1.386-1.034 3.133.712 2.099 2.099l-8.734 11.717a1.499 1.499 0 000 1.793l8.734 11.717c1.034 1.386-.713 3.133-2.099 2.099l-11.717-8.734a1.499 1.499 0 00-1.793 0l-11.717 8.734c-1.387 1.034-3.133-.713-2.099-2.099l8.734-11.717a1.499 1.499 0 000-1.793l-8.734-11.717z" fill="#B7C5F2" fill-opacity=".6"/><circle cx="245" cy="693" r="16" stroke="#505D84" stroke-opacity=".49" stroke-width="8"/><circle cx="285" cy="66" r="20" fill="#DCE2FF"/><path fill-rule="evenodd" clip-rule="evenodd" d="M1367.41 724.122a1.994 1.994 0 012.67-.918l74.67 36.501c.99.485 1.4 1.683.91 2.675a1.993 1.993 0 01-2.67.919l-74.67-36.502a1.994 1.994 0 01-.91-2.675zm-3.93 11.44a.5.5 0 01.67-.23l74.67 36.501c.24.122.35.421.23.669a.507.507 0 01-.67.23l-74.67-36.502a.499.499 0 01-.23-.668zm-45.33-11.52a1.505 1.505 0 012.01-.689l150.03 73.347c.74.364 1.05 1.262.69 2.006a1.501 1.501 0 01-2.01.689l-150.03-73.346a1.508 1.508 0 01-.69-2.007zm34.34 32.861c.25-.496.84-.701 1.34-.459l74.66 36.502c.5.242.71.841.46 1.337a.992.992 0 01-1.33.459l-74.67-36.501c-.49-.243-.7-.842-.46-1.338zm-19.37 3.888a1.504 1.504 0 012.01-.689l101.97 49.849c.74.364 1.05 1.262.68 2.006a1.492 1.492 0 01-2 .689l-101.97-49.849a1.507 1.507 0 01-.69-2.006zm-4.52 10.471a1 1 0 011.34-.459l89.84 43.92c.49.242.7.841.46 1.337a1 1 0 01-1.34.459l-89.84-43.92a.998.998 0 01-.46-1.337zm36.43 31.842a1 1 0 011.34-.459l17.97 8.784c.49.242.7.841.45 1.337a.993.993 0 01-1.33.46l-17.97-8.784a1 1 0 01-.46-1.338z" fill="#B7C5F2" fill-opacity=".63"/><path d="M1382.7 753.3l74.67 36.501" stroke="#3F3D56" stroke-opacity=".4" stroke-width="4" stroke-linecap="round" stroke-linejoin="round"/><path d="M1377.43 764.08l74.67 36.502" stroke="#3F3D56" stroke-opacity=".4" stroke-linecap="round" stroke-linejoin="round"/><path d="M1334.48 756.438l150.03 73.347" stroke="#3F3D56" stroke-opacity=".4" stroke-width="3" stroke-linecap="round" stroke-linejoin="round"/><path d="M1366.89 785.642l74.67 36.501" stroke="#3F3D56" stroke-opacity=".4" stroke-width="2" stroke-linecap="round" stroke-linejoin="round"/><path d="M1347.97 789.748l101.97 49.849" stroke="#3F3D56" stroke-opacity=".4" stroke-width="3" stroke-linecap="round" stroke-linejoin="round"/><path d="M1369.88 813.815l47.61 23.277m-38.06-5.25l17.97 8.784" stroke="#3F3D56" stroke-opacity=".4" stroke-width="2" stroke-linecap="round" stroke-linejoin="round"/><path fill-rule="evenodd" clip-rule="evenodd" d="M1031.66 179.204l-2.39-19.47 17.65 6.112-15.26 13.358zm1.09 8.948l16.08-12.988-1.23-9.082 8.72 3.023-7.49 6.059.78 5.796 12.28-9.927 2.99 1.036-14.85 12.002.78 5.796 19.64-15.869 11.55 4-29.56 23.888.78 5.795 34.35-27.755 31.85 11.033-78.55 63.468-2.88-23.503 19.65 9.504-4.42-32.747-16.44 13.289-.72-5.85 16.38-13.234-.42-3.112-16.35 13.206-.71-5.849 16.27-13.152-.42-3.112-16.24 13.123-.71-5.849 16.17-13.07-.42-3.111-16.14 13.041-.72-5.849zm18.48 4.827l.79 5.795 14.52-11.733a2.5 2.5 0 00.37-3.515 2.505 2.505 0 00-3.52-.374l-12.16 9.827z" fill="#B7C5F2" fill-opacity=".3"/><path d="M439.349 250.252c2.109-6.421 11.193-6.421 13.302 0l.841 2.564a7.001 7.001 0 009.09 4.377l2.529-.94c6.335-2.355 11.999 4.747 8.293 10.399l-1.479 2.257a7 7 0 002.245 9.836l2.312 1.391c5.791 3.484 3.77 12.34-2.96 12.967l-2.687.251a7 7 0 00-6.29 7.887l.354 2.675c.886 6.701-7.298 10.642-11.984 5.771l-1.871-1.944a7 7 0 00-10.088 0l-1.871 1.944c-4.686 4.871-12.87.93-11.984-5.771l.354-2.675a7 7 0 00-6.29-7.887l-2.687-.251c-6.73-.627-8.751-9.483-2.96-12.967l2.312-1.391a7 7 0 002.245-9.836l-1.479-2.257c-3.706-5.652 1.958-12.754 8.293-10.399l2.529.94a7.001 7.001 0 009.09-4.377l.841-2.564z" fill="url(#paint1_linear_850_4678)"/><path d="M889.409 411.481l9.242 43.585c.697 3.077 2.516 3.842 5.1 2.393l14.082-10.377 6.795 6.535c.752.752 1.381 1.381 2.83 1.381l-1.012-14.342-26.1-23.584c-1.134-1.011.247-1.572 1.764-.56l32.266 20.316 13.89-4.347c3.022-.944 3.077-3.022-.629-4.471l-54.332-20.932c-2.515-.943-4.716.561-3.896 4.403z" fill="url(#paint2_linear_850_4678)" style="mix-blend-mode:multiply"/><path d="M915.268 447.594c272.102 287.603-123.384 494.3-111.324 276.307 12.06-217.994 439.266 102.457 111.324 248.513" stroke="url(#paint3_linear_850_4678)" stroke-width="6" stroke-linecap="round" stroke-linejoin="round" stroke-dasharray="10 10" style="mix-blend-mode:multiply"/><path fill-rule="evenodd" clip-rule="evenodd" d="M183 405l-5.25-3h-10.5l-5.25 3h21zm-24.5 2l-5.25 3h38.5l-5.25-3h-28zm-14 8l5.25-3h45.5l5.25 3h-56zm-3.5 2l-5.25 3h73.5l-5.25-3h-63zm-14 8l5.25-3h80.5l5.25 3h-91zm-3.5 2l-3.5 2v60l1.75 1h101.5l1.75-1v-2H121a1 1 0 010-2h104v-3H121a1 1 0 010-2h104v-3H121a1 1 0 010-2h104v-3H121a1 1 0 010-2h104v-3H121a1 1 0 010-2h104v-3H121a1 1 0 010-2h104v-3H121a1 1 0 010-2h104v-3H121a1 1 0 010-2h104v-3H121a1 1 0 010-2h104v-3H121a1 1 0 010-2h104v-3H121a1 1 0 010-2h104v-3H121a1 1 0 010-2h104v-1l-3.5-2h-98zm7 68l-5.25-3h94.5l-5.25 3h-84zm3.5 2l5.25 3h66.5l5.25-3h-77zm14 8l-5.25-3h59.5l-5.25 3h-49zm3.5 2l5.25 3h31.5l5.25-3h-42zm14 8l-5.25-3h24.5l-5.25 3h-14zm7-116l1.75 1h-3.5l1.75-1zM169 517l3.5 2 3.5-2h-7z" fill="url(#paint4_linear_850_4678)" style="mix-blend-mode:multiply"/><path d="M406.408 930.269c36.136 6.68 48.357-17.29 80.269 24.765 31.911 42.055 47.774 45.566 32.084 67.266-15.689 21.69-18.585 18.4-74.987 13.29-55.112 13.38-23.864-13.11-75.19-48.188-45.762-40.121 1.687-63.812 37.824-57.133z" fill="url(#paint5_linear_850_4678)" fill-opacity=".3" style="mix-blend-mode:multiply"/><path d="M465.439 894.578c6.769-2.402 7.03 7.336 7.03 7.336-3.648 5.219-6.092 6.72-11.617 5.232 0 0-5.468-2.024-5.897-6.153-.429-4.128 3.714-4.013 10.484-6.415z" fill="url(#paint6_linear_850_4678)"/><path d="M402.988 893.866c6.481-3.01 16.393-12.32 24.27-.831 7.878 11.489-7.564 10.641-11.925 21.34-4.362 10.7-17.543 6.902-17.543 6.902-10.845-9.901-1.283-24.4 5.198-27.411z" fill="url(#paint7_linear_850_4678)"/><path fill-rule="evenodd" clip-rule="evenodd" d="M1.52 771.5L43 705l41.48 66.5H1.52zm-2.51 4.025l.701.975h87.888l9.356 15H10.503l3.597 5h85.974l21.832 35H39.282l3.597 5h82.146L169 907H-83l24.17-38.75H65.723l-8.454-11.75H-51.5l3.119-5H53.67l-10.792-15h-81.904l3.12-5h75.187l-10.792-15h-55.04l3.12-5h48.322l-10.792-15h-28.174l3.119-5h21.458l-10.792-15H-1.6l.608-.975zM24.891 811.5l3.598 5H72.5a2.5 2.5 0 100-5H24.892zm28.779 40l3.597 5h43.982a2.5 2.5 0 100-5H53.671z" fill="#B7C5F2" fill-opacity=".35"/><path d="M26 253.426c0 1.175-1.119 2.127-2.5 2.127h-15c-1.381 0-2.5-.952-2.5-2.127v-6.383h-30v19.148c0 3.405 3.5 6.383 7.5 6.383h65c4 0 7.5-2.978 7.5-6.383v-19.148H26v6.383zm22.5-27.66H36v-6.383c0-3.404-3.5-6.383-7.5-6.383h-25c-4 0-7.5 2.979-7.5 6.383v6.383h-12.5c-4 0-7.5 2.979-7.5 6.383v10.638h80v-10.638c0-3.404-3.5-6.383-7.5-6.383zm-22.5 0H6v-4.255h20v4.255z" fill="url(#paint8_linear_850_4678)" style="mix-blend-mode:multiply"/><path d="M567 531.064h-26c-.55 0-1 .435-1 .967v1.933c0 .532.45.967 1 .967h26c.55 0 1-.435 1-.967v-1.933c0-.532-.45-.967-1-.967zm4-19.331c-1.656 0-3 1.299-3 2.899 0 .429.1.828.275 1.197l-4.525 2.621c-.962.556-2.206.242-2.763-.7l-5.093-8.615c.668-.532 1.106-1.329 1.106-2.235 0-1.601-1.344-2.9-3-2.9s-3 1.299-3 2.9c0 .906.438 1.703 1.106 2.235l-5.094 8.615c-.556.942-1.806 1.256-2.762.7l-4.519-2.621c.169-.363.275-.768.275-1.197 0-1.6-1.344-2.899-3-2.899S534 513.032 534 514.632c0 1.601 1.344 2.9 3 2.9.162 0 .325-.024.481-.048L542 529.131h24l4.519-11.647c.156.024.319.048.481.048 1.656 0 3-1.299 3-2.9 0-1.6-1.344-2.899-3-2.899z" fill="url(#paint9_linear_850_4678)" style="mix-blend-mode:multiply"/><path d="M1218.85 309.752c-.79-.713-.38-.512-2.29-.972-.86-.21-1.63-.612-2.32-1.093l-4.13 9.126c-.4.884.35 1.844 1.41 1.808l4.8-.165 3.3 3.14c.73.693 2.01.477 2.41-.407l4.74-10.47c-.98.496-2.08.786-3.21.786-1.78 0-3.45-.623-4.71-1.753zm26.04 7.061l-4.13-9.126c-.69.482-1.46.883-2.32 1.093-1.92.462-1.5.261-2.29.972-1.26 1.13-2.93 1.753-4.71 1.753a7.22 7.22 0 01-3.22-.786l4.75 10.47c.4.884 1.68 1.1 2.41.407l3.3-3.14 4.8.165c1.06.036 1.81-.925 1.41-1.808zm-10.92-8.918c1.39-1.276 1.55-1.166 3.54-1.652 1.26-.311 2.25-1.218 2.59-2.378.68-2.33.51-2.048 2.37-3.753.92-.849 1.29-2.087.95-3.247-.68-2.329-.69-2.004 0-4.335.34-1.16-.03-2.398-.95-3.247-1.86-1.705-1.69-1.424-2.37-3.753-.34-1.161-1.33-2.067-2.59-2.378-2.54-.624-2.24-.461-4.1-2.167-.93-.849-2.28-1.181-3.54-.87-2.54.623-2.19.624-4.74 0-1.26-.311-2.61.02-3.54.87-1.86 1.705-1.55 1.543-4.1 2.167-1.26.311-2.25 1.217-2.59 2.378-.68 2.329-.51 2.048-2.37 3.753-.92.849-1.29 2.087-.95 3.247.69 2.327.69 2.002 0 4.334-.33 1.16.03 2.398.95 3.248 1.86 1.705 1.69 1.423 2.37 3.753.34 1.16 1.33 2.067 2.59 2.378 2.04.5 2.2.422 3.54 1.652 1.2 1.105 3.08 1.303 4.53.478a3.916 3.916 0 011.94-.507c.69 0 1.36.176 1.94.507 1.45.825 3.33.627 4.53-.478zm-15.07-13.458c0-4.351 3.85-7.878 8.6-7.878s8.6 3.527 8.6 7.878-3.85 7.878-8.6 7.878-8.6-3.527-8.6-7.878z" fill="url(#paint10_linear_850_4678)" style="mix-blend-mode:multiply"/><path d="M856.544 372.017c.544.645 1.425.645 1.969 0l.985-1.168c.544-.645.544-1.691 0-2.337l-3.109-3.687 3.108-3.688c.544-.646.544-1.692 0-2.337l-.984-1.168c-.544-.645-1.426-.645-1.97 0l-5.079 6.024c-.544.645-.544 1.691 0 2.337l5.08 6.024zm8.357-1.167l.984 1.168c.544.645 1.426.645 1.97 0l5.078-6.024c.544-.646.544-1.691 0-2.337l-5.078-6.024c-.544-.645-1.426-.645-1.97 0l-.984 1.168c-.544.645-.544 1.691 0 2.337l3.108 3.687-3.108 3.688c-.544.646-.544 1.692 0 2.337zm23.76 17.104h-21.105c-.065 2.046-1.281 3.304-2.85 3.304h-5.293c-1.626 0-2.874-1.804-2.852-3.304h-20.824c-.766 0-1.393.744-1.393 1.652v1.652c0 3.635 2.507 6.609 5.571 6.609h44.568c3.064 0 5.57-2.974 5.57-6.609v-1.652c0-.908-.626-1.652-1.392-1.652zm-4.178-37.998c0-2.726-1.881-4.956-4.179-4.956h-36.211c-2.298 0-4.178 2.23-4.178 4.956v34.694h44.568v-34.694zm-5.571 28.086h-33.426v-26.434h33.426v26.434z" fill="url(#paint11_linear_850_4678)" style="mix-blend-mode:multiply"/><path d="M864.96 952.393c-7.765 1.516-14.023 7.758-15.555 15.501-2.89 14.609 10.29 25.5 20.22 23.961 3.218-.5 4.797-4.265 3.32-7.164-1.805-3.547.773-7.688 4.758-7.688h6.227c2.797 0 5.062-2.312 5.07-5.101-.039-12.313-11.242-22.001-24.04-19.509zm-8.461 24.61a2.497 2.497 0 01-2.5-2.5c0-1.383 1.117-2.5 2.5-2.5s2.5 1.117 2.5 2.5-1.117 2.5-2.5 2.5zm2.5-10a2.497 2.497 0 01-2.5-2.5c0-1.383 1.117-2.5 2.5-2.5s2.5 1.117 2.5 2.5-1.117 2.5-2.5 2.5zm10.001-5a2.498 2.498 0 01-2.501-2.5c0-1.383 1.118-2.5 2.501-2.5 1.382 0 2.5 1.117 2.5 2.5s-1.118 2.5-2.5 2.5zm10 5a2.497 2.497 0 01-2.5-2.5c0-1.383 1.117-2.5 2.5-2.5s2.5 1.117 2.5 2.5-1.117 2.5-2.5 2.5z" fill="url(#paint12_linear_850_4678)" style="mix-blend-mode:multiply"/><path d="M1283.11 960.869l-10.63 10.628c-.51.512-1.34.512-1.86 0l-1.24-1.24a1.315 1.315 0 010-1.854l8.43-8.462-8.43-8.463a1.315 1.315 0 010-1.854l1.24-1.24a1.318 1.318 0 011.86 0l10.63 10.629c.51.512.51 1.343 0 1.856zm20.89 10.009v-1.75c0-.725-.59-1.312-1.31-1.312h-16.63c-.72 0-1.31.587-1.31 1.312v1.75c0 .725.59 1.313 1.31 1.313h16.63c.72 0 1.31-.588 1.31-1.313z" fill="url(#paint13_linear_850_4678)" style="mix-blend-mode:multiply"/></g><defs><linearGradient id="paint0_linear_850_4678" x1="1382.93" y1="371" x2="1382.93" y2="467.75" gradientUnits="userSpaceOnUse"><stop stop-color="#D9DFFF"/><stop offset=".521" stop-color="#D6DCF9"/><stop offset=".719" stop-color="#C6CEFB"/><stop offset="1" stop-color="#C5CFFF"/></linearGradient><linearGradient id="paint1_linear_850_4678" x1="328.986" y1="196.627" x2="545.326" y2="418.99" gradientUnits="userSpaceOnUse"><stop stop-color="#F5F7FF"/><stop offset=".333" stop-color="#DEE2FF"/><stop offset=".677" stop-color="#D9E1FF"/><stop offset="1" stop-color="#F2F5FF"/></linearGradient><linearGradient id="paint2_linear_850_4678" x1="919.857" y1="406.805" x2="919.857" y2="458.167" gradientUnits="userSpaceOnUse"><stop stop-color="#D9DFFF"/><stop offset=".521" stop-color="#D6DCF9"/><stop offset=".719" stop-color="#C6CEFB"/><stop offset="1" stop-color="#C5CFFF"/></linearGradient><linearGradient id="paint3_linear_850_4678" x1="1039.13" y1="567.64" x2="776.853" y2="838.267" gradientUnits="userSpaceOnUse"><stop stop-color="#D9DFFF"/><stop offset=".521" stop-color="#D6DCF9"/><stop offset=".719" stop-color="#C6CEFB"/><stop offset="1" stop-color="#C5CFFF"/></linearGradient><linearGradient id="paint4_linear_850_4678" x1="172.5" y1="399" x2="172.5" y2="519" gradientUnits="userSpaceOnUse"><stop stop-color="#D9DFFF"/><stop offset=".521" stop-color="#D6DCF9"/><stop offset=".719" stop-color="#C6CEFB"/><stop offset="1" stop-color="#C5CFFF"/></linearGradient><linearGradient id="paint5_linear_850_4678" x1="497.399" y1="923.719" x2="395.601" y2="1021.28" gradientUnits="userSpaceOnUse"><stop stop-color="#D9DFFF"/><stop offset=".521" stop-color="#D6DCF9"/><stop offset=".719" stop-color="#C6CEFB"/><stop offset="1" stop-color="#C5CFFF"/></linearGradient><linearGradient id="paint6_linear_850_4678" x1="389.683" y1="743.319" x2="321.8" y2="1218.82" gradientUnits="userSpaceOnUse"><stop stop-color="#F5F7FF"/><stop offset=".333" stop-color="#EBEDFF"/><stop offset=".677" stop-color="#EBEFFF"/><stop offset="1" stop-color="#F2F5FF"/></linearGradient><linearGradient id="paint7_linear_850_4678" x1="389.683" y1="743.319" x2="321.8" y2="1218.82" gradientUnits="userSpaceOnUse"><stop stop-color="#F5F7FF"/><stop offset=".333" stop-color="#EBEDFF"/><stop offset=".677" stop-color="#EBEFFF"/><stop offset="1" stop-color="#F2F5FF"/></linearGradient><linearGradient id="paint8_linear_850_4678" x1="16" y1="213" x2="16" y2="272.574" gradientUnits="userSpaceOnUse"><stop stop-color="#D9DFFF"/><stop offset=".521" stop-color="#D6DCF9"/><stop offset=".719" stop-color="#C6CEFB"/><stop offset="1" stop-color="#C5CFFF"/></linearGradient><linearGradient id="paint9_linear_850_4678" x1="554" y1="504" x2="554" y2="534.931" gradientUnits="userSpaceOnUse"><stop stop-color="#D9DFFF"/><stop offset=".521" stop-color="#D6DCF9"/><stop offset=".719" stop-color="#C6CEFB"/><stop offset="1" stop-color="#C5CFFF"/></linearGradient><linearGradient id="paint10_linear_850_4678" x1="1227.5" y1="280" x2="1227.5" y2="322.007" gradientUnits="userSpaceOnUse"><stop stop-color="#D9DFFF"/><stop offset=".521" stop-color="#D6DCF9"/><stop offset=".719" stop-color="#C6CEFB"/><stop offset="1" stop-color="#C5CFFF"/></linearGradient><linearGradient id="paint11_linear_850_4678" x1="862.199" y1="345" x2="862.199" y2="397.867" gradientUnits="userSpaceOnUse"><stop stop-color="#D9DFFF"/><stop offset=".521" stop-color="#D6DCF9"/><stop offset=".719" stop-color="#C6CEFB"/><stop offset="1" stop-color="#C5CFFF"/></linearGradient><linearGradient id="paint12_linear_850_4678" x1="869" y1="952" x2="869" y2="992" gradientUnits="userSpaceOnUse"><stop stop-color="#D9DFFF"/><stop offset=".521" stop-color="#D6DCF9"/><stop offset=".719" stop-color="#C6CEFB"/><stop offset="1" stop-color="#C5CFFF"/></linearGradient><linearGradient id="paint13_linear_850_4678" x1="1286.5" y1="948" x2="1286.5" y2="972.191" gradientUnits="userSpaceOnUse"><stop stop-color="#D9DFFF"/><stop offset=".521" stop-color="#D6DCF9"/><stop offset=".719" stop-color="#C6CEFB"/><stop offset="1" stop-color="#C5CFFF"/></linearGradient><clipPath id="clip0_850_4678"><path fill="#fff" d="M0 0h1440v1024H0z"/></clipPath></defs></svg>