<svg width="18" height="18" fill="none" xmlns="http://www.w3.org/2000/svg"><g clip-path="url(#clip0_882_3784)"><path d="M9 10.125a5.064 5.064 0 005.063-5.063A5.064 5.064 0 009 0a5.064 5.064 0 00-5.063 5.063A5.064 5.064 0 009 10.125zm4.5 1.125h-1.937a6.127 6.127 0 01-5.126 0H4.5a4.5 4.5 0 00-4.5 4.5v.563C0 17.244.756 18 1.688 18h14.624c.932 0 1.688-.756 1.688-1.688v-.562a4.5 4.5 0 00-4.5-4.5z" fill="#EEF0FF"/></g><defs><clipPath id="clip0_882_3784"><path fill="#fff" d="M0 0h18v18H0z"/></clipPath></defs></svg>