<svg width="18" height="20" fill="none" xmlns="http://www.w3.org/2000/svg"><g id="Abubakr__logo" clip-path="url(#clip0_13_24)"><g id="Vector 14"><mask id="path-1-outside-1_13_24" maskUnits="userSpaceOnUse" x=".924" y="-.022" width="17" height="21" fill="#000"><path fill="#fff" d="M.924-.022h17v21h-17z"/><path d="M10.822 12.735c2.61.102 1.878-.298 2.801-.78.463-1.2 1.464-.45 2.022-.032-.156-.116-1.06-.619-1.003-.58.094.064 1.363.822 1.387.796l.001-.001C18.405 7.149-1.446-3.348 5.639 2.915c5.228 4.621-1.1 6.816-2.474 8.124-.056.06-.22.286-.272.349-.002.003.003-.007-.042.065l-.165.277a.848.848 0 01-.041.05c-.014.014 0-.012.04-.05h.001c.698-1.29 1.547.557 1.547.557l.067.077c2.617 2.24 3.048.234 6.522.37z"/><path fill-rule="evenodd" clip-rule="evenodd" d="M2.662 11.758c.003-.007.17-.28.19-.305.164-.197.697-.575 1.381.834 0 0-.849-1.847-1.547-.558l-.004.006a.373.373 0 01-.037.045l.017-.022zm1.638.606a3.026 3.026 0 01-.067-.077.19.19 0 01.067.077zm11.73-.226c0-.002 0-.002 0 0z"/><path fill-rule="evenodd" clip-rule="evenodd" d="M2.686 11.73l.165-.277c.165-.197.698-.575 1.382.834 0 0-.849-1.847-1.547-.558zm10.937.226c.152-.387.469-.783 1.02-.613-.058-.039.846.464 1.002.58-.558-.418-1.56-1.169-2.022.033z"/><path d="M13.623 11.956s.407 2.043-.468 3.364c-.876 1.322 1.507 4.687.988 3.437-.52-1.25-.09-2.836.768-3.437.835-.585 1.105-3.107 1.118-3.181-.024.026-1.293-.732-1.387-.796-.55-.17-.867.226-1.019.613zm-9.956 6.801c-.374.961 1.614-2.01.52-3.437-1.028-1.34.844-2.005.113-2.956a3.026 3.026 0 01-.067-.077c-.684-1.409-1.217-1.031-1.382-.834l-.165.276-.004.006a.373.373 0 01-.037.045c-.603.822-.938 3.19-.564 3.54.383.36 1.96 2.476 1.586 3.437z"/></mask><path d="M10.822 12.735c2.61.102 1.878-.298 2.801-.78.463-1.2 1.464-.45 2.022-.032-.156-.116-1.06-.619-1.003-.58.094.064 1.363.822 1.387.796l.001-.001C18.405 7.149-1.446-3.348 5.639 2.915c5.228 4.621-1.1 6.816-2.474 8.124-.056.06-.22.286-.272.349-.002.003.003-.007-.042.065l-.165.277a.848.848 0 01-.041.05c-.014.014 0-.012.04-.05h.001c.698-1.29 1.547.557 1.547.557l.067.077c2.617 2.24 3.048.234 6.522.37z" fill="url(#paint0_radial_13_24)"/><path d="M10.822 12.735c2.61.102 1.878-.298 2.801-.78.463-1.2 1.464-.45 2.022-.032-.156-.116-1.06-.619-1.003-.58.094.064 1.363.822 1.387.796l.001-.001C18.405 7.149-1.446-3.348 5.639 2.915c5.228 4.621-1.1 6.816-2.474 8.124-.056.06-.22.286-.272.349-.002.003.003-.007-.042.065l-.165.277a.848.848 0 01-.041.05c-.014.014 0-.012.04-.05h.001c.698-1.29 1.547.557 1.547.557l.067.077c2.617 2.24 3.048.234 6.522.37z" fill="#0A1A3D" fill-opacity=".2"/><path fill-rule="evenodd" clip-rule="evenodd" d="M2.662 11.758c.003-.007.17-.28.19-.305.164-.197.697-.575 1.381.834 0 0-.849-1.847-1.547-.558l-.004.006a.373.373 0 01-.037.045l.017-.022zm1.638.606a3.026 3.026 0 01-.067-.077.19.19 0 01.067.077z" fill="url(#paint1_radial_13_24)"/><path fill-rule="evenodd" clip-rule="evenodd" d="M2.662 11.758c.003-.007.17-.28.19-.305.164-.197.697-.575 1.381.834 0 0-.849-1.847-1.547-.558l-.004.006a.373.373 0 01-.037.045l.017-.022zm1.638.606a3.026 3.026 0 01-.067-.077.19.19 0 01.067.077z" fill="#0A1A3D" fill-opacity=".2"/><path fill-rule="evenodd" clip-rule="evenodd" d="M16.03 12.138c0-.002 0-.002 0 0z" fill="url(#paint2_radial_13_24)"/><path fill-rule="evenodd" clip-rule="evenodd" d="M16.03 12.138c0-.002 0-.002 0 0z" fill="#0A1A3D" fill-opacity=".2"/><path fill-rule="evenodd" clip-rule="evenodd" d="M2.686 11.73l.165-.277c.165-.197.698-.575 1.382.834 0 0-.849-1.847-1.547-.558z" fill="url(#paint3_radial_13_24)"/><path fill-rule="evenodd" clip-rule="evenodd" d="M2.686 11.73l.165-.277c.165-.197.698-.575 1.382.834 0 0-.849-1.847-1.547-.558z" fill="#0A1A3D" fill-opacity=".2"/><path fill-rule="evenodd" clip-rule="evenodd" d="M13.623 11.956c.152-.387.469-.783 1.02-.613-.058-.039.846.464 1.002.58-.558-.418-1.56-1.169-2.022.033z" fill="url(#paint4_radial_13_24)"/><path fill-rule="evenodd" clip-rule="evenodd" d="M13.623 11.956c.152-.387.469-.783 1.02-.613-.058-.039.846.464 1.002.58-.558-.418-1.56-1.169-2.022.033z" fill="#0A1A3D" fill-opacity=".2"/><path d="M13.623 11.956s.407 2.043-.468 3.364c-.876 1.322 1.507 4.687.988 3.437-.52-1.25-.09-2.836.768-3.437.835-.585 1.105-3.107 1.118-3.181-.024.026-1.293-.732-1.387-.796-.55-.17-.867.226-1.019.613z" fill="url(#paint5_radial_13_24)"/><path d="M13.623 11.956s.407 2.043-.468 3.364c-.876 1.322 1.507 4.687.988 3.437-.52-1.25-.09-2.836.768-3.437.835-.585 1.105-3.107 1.118-3.181-.024.026-1.293-.732-1.387-.796-.55-.17-.867.226-1.019.613z" fill="#0A1A3D" fill-opacity=".2"/><path d="M3.667 18.757c-.374.961 1.614-2.01.52-3.437-1.028-1.34.844-2.005.113-2.956a3.026 3.026 0 01-.067-.077c-.684-1.409-1.217-1.031-1.382-.834l-.165.276-.004.006a.373.373 0 01-.037.045c-.603.822-.938 3.19-.564 3.54.383.36 1.96 2.476 1.586 3.437z" fill="url(#paint6_radial_13_24)"/><path d="M3.667 18.757c-.374.961 1.614-2.01.52-3.437-1.028-1.34.844-2.005.113-2.956a3.026 3.026 0 01-.067-.077c-.684-1.409-1.217-1.031-1.382-.834l-.165.276-.004.006a.373.373 0 01-.037.045c-.603.822-.938 3.19-.564 3.54.383.36 1.96 2.476 1.586 3.437z" fill="#0A1A3D" fill-opacity=".2"/><path d="M5.97 2.54a.5.5 0 10-.662.75l.662-.75zm7.653 9.416l-.466-.18a.5.5 0 00.932.363l-.466-.183zm-9.39.33l-.45.22a.5.5 0 00.068.103l.382-.322zm11.797-.148l.371.335a.5.5 0 00-.125-.77l-.246.435zm-13.368-.38l-.397-.305a.502.502 0 00-.041.064l.438.24zm.024-.029l.406.292.001-.001-.407-.29zm-.004.006l.404.294.001-.002-.405-.292zm-.38-.318a.5.5 0 10.686.727l-.686-.727zm1.628 1.282a.5.5 0 10.741-.67l-.741.67zm12.1-.56l.367.338.004-.004-.372-.335zm-13.344-.41l-.406-.292.406.293zm.165-.276l-.383-.32a.497.497 0 00-.044.06l.427.26zm12.794.47l-.298.401a.5.5 0 00.598-.801l-.3.4zM5.308 3.29c1.323 1.17 1.785 2.115 1.84 2.853.054.729-.28 1.387-.86 2.01-.585.628-1.367 1.164-2.096 1.64-.355.232-.707.456-.992.66-.273.193-.551.412-.717.65l.82.572c.056-.08.2-.211.477-.408.264-.188.587-.394.96-.637.725-.474 1.602-1.068 2.28-1.795.68-.73 1.209-1.65 1.125-2.766C8.063 4.96 7.388 3.793 5.97 2.54l-.662.75zm-1.075 8.998l.454-.21-.001-.003-.003-.006-.01-.02a3.474 3.474 0 00-.153-.284 3.07 3.07 0 00-.445-.592c-.176-.177-.48-.417-.876-.399-.435.02-.743.331-.953.718l.88.476c.14-.257.199-.199.12-.195-.041.002-.002-.018.121.106.107.107.21.257.292.395a3.14 3.14 0 01.12.223l.454-.21zm-1.956-.845l-.004.005.007-.008a.392.392 0 01.022-.022l.686.727a.828.828 0 00.098-.115l-.809-.587zm2.394.586a2.472 2.472 0 01-.055-.063l-.765.644.079.09.741-.67zm-2.447-.51a.479.479 0 00-.035.077c-.004.012-.027.075-.028.158a.5.5 0 00.872.343.772.772 0 00.053-.067l-.809-.588c-.007.01 0-.002.018-.02a.475.475 0 01.218-.138.5.5 0 01.648.485c-.001.083-.024.145-.028.157a.392.392 0 01-.033.073l-.876-.48zm.834.545l.02-.029a.76.76 0 00.02-.029l.028-.045.077-.124a35.952 35.952 0 01.1-.16l.003-.006-.001.001-.003.005-.007.009-.02.025-.764-.645c-.017.02-.03.04-.03.04a.587.587 0 00-.022.033l-.029.046-.078.125-.076.123a5.084 5.084 0 01-.03.048l.02-.027.792.61zm12.6-.26l.743.67-.742-.67zM2.28 11.437l.811.585-.81-.585zm0 0l-.004.006.811.585.004-.006-.811-.585zm.813.583a.88.88 0 00.015-.023l.003-.004c0-.002.002-.003.002-.003v-.002l.002-.002.001-.002.006-.01.018-.03.055-.091.056-.094.02-.033a.722.722 0 00.008-.013l-.855-.52-.087.146-.055.091-.018.03-.005.009v.002c-.001 0 0 0 0 0v-.002a.126.126 0 00.005-.008.88.88 0 01.015-.022l.814.58zm.142-.246a.101.101 0 01.026-.023l-.003.001a.067.067 0 01-.02.003h-.006c.006 0 .221.07.551.75l.9-.437c-.354-.729-.747-1.174-1.22-1.287-.515-.122-.867.198-.995.352l.767.64zm0 0a1.318 1.318 0 00.094-.129.53.53 0 00.07-.25.502.502 0 00-.65-.486l-.036.013s-.005.002-.002 0l.013-.004a.498.498 0 01.642.632.499.499 0 01-.063.124l-.82-.572a.497.497 0 00.098.677.5.5 0 00.495.075l-.011.004a.438.438 0 01-.117.026.5.5 0 01-.55-.503.495.495 0 01.078-.256l.006-.01c.002-.003.003-.003 0 0l-.014.018.767.64zm10.854.365a.703.703 0 01.196-.3.167.167 0 01.074-.034.288.288 0 01.136.016l.295-.955c-.43-.133-.813-.047-1.108.176-.269.203-.43.493-.524.73l.93.367zm.834-1.21c.002.002.015.01.03.023.006.005.028.022.052.048.01.011.037.04.063.084a.5.5 0 01-.309.742.476.476 0 01-.183.011c-.05-.006-.089-.02-.095-.022l-.043-.016-.008-.004a26.705 26.705 0 01.859.492c.018.01.032.02.043.027l.015.01.596-.802a9.02 9.02 0 00-.633-.382 27.742 27.742 0 00-.415-.23l-.048-.024a.493.493 0 00-.047-.018.5.5 0 00-.652.384c-.035.188.05.325.063.347a.498.498 0 00.064.084c.024.026.046.044.052.049l.034.025.562-.827zm1.022.594c-.256-.192-.732-.559-1.231-.677a1.239 1.239 0 00-.899.1c-.304.168-.516.461-.658.83l.933.36c.09-.232.175-.296.207-.313.027-.015.077-.03.186-.005.257.062.56.279.862.505l.6-.8zm-.284.277a.497.497 0 01.465-.15.336.336 0 01.064.018c.011.004.012.005-.003-.002a21.49 21.49 0 01-.573-.323 45.645 45.645 0 01-.625-.373l-.066-.04-.562.827a27.63 27.63 0 001.213.715c.064.035.124.068.172.091a.907.907 0 00.085.038.578.578 0 00.216.038.503.503 0 00.35-.162l-.735-.677zm-1.166.021c-.038-.012-.062-.025-.043-.016l.04.02.156.088c.13.073.295.168.46.265.323.187.66.386.676.395l.492-.87c.002 0-.014-.009-.056-.033a127.549 127.549 0 00-1.08-.628 9.094 9.094 0 00-.246-.134.732.732 0 00-.104-.042l-.295.955zM5.639 2.915l.662-.75-.662.75zm5.183 9.82l.04-1-.04 1zm-7.657-1.696l-.69-.724a.982.982 0 00-.043.043l.733.681zm10.458.917l.981-.195a1 1 0 00-1.442-.692l.461.887zm-10.73-.568l-.764-.645a.945.945 0 00-.056.073l.82.572zm1.907.075a1 1 0 00-1.134 1.648L4.8 11.463zm-.614 3.857l-.793.609.793-.609zm-2.105 0l.685-.728-.685.728zm12.83 0l.574.82-.574-.82zm1.119-3.182h-1a1 1 0 001.903.43l-.903-.43zm-13.368-.38l.793.61a1.24 1.24 0 00.084-.129l-.877-.481zm-.79-.61a1 1 0 101.618 1.175l-1.617-1.176zm.773.632l.806.592-.806-.592zm1.655.584l-.9.433a.962.962 0 00.107.176l.793-.61zm11.73-.226l.983.18-.984-.18zM4.975 3.665c1.222 1.08 1.61 1.883 1.684 2.422.07.5-.107.973-.543 1.484-.45.529-1.102 1.005-1.799 1.461-.278.183-.74.474-.989.638-.295.196-.611.415-.854.646l1.379 1.449c.101-.097.284-.232.577-.425.34-.225.557-.355.984-.635.713-.468 1.574-1.074 2.224-1.836.664-.778 1.175-1.803 1.003-3.054C8.475 4.6 7.693 3.396 6.3 2.165L4.976 3.664zm-2.544 6.694c-.046.05-.09.107-.114.136l-.088.116-.076.1-.025.033 1.529 1.29.088-.112.08-.106a6.988 6.988 0 01.086-.111l-.015.016-1.465-1.362zm.96 5.57c.076.1.143.282.124.61-.019.323-.117.69-.25 1.032-.136.345-.28.596-.34.68-.016.024-.003.002.036-.037a.837.837 0 01.18-.138c.04-.023.443-.264.922-.03a.984.984 0 01.553.807.84.84 0 01-.014.24c-.01.053-.021.07-.004.028l-1.864-.726a1.92 1.92 0 00-.092.299 1.13 1.13 0 00-.02.311c.005.08.05.588.566.84.487.236.901-.006.956-.038.117-.068.198-.146.232-.18.08-.08.143-.164.185-.224.173-.246.388-.647.566-1.103.18-.46.35-1.042.385-1.647.034-.601-.062-1.325-.533-1.94L3.392 15.93zM4.6 19.12c.216-.554.112-1.133-.01-1.54a6.222 6.222 0 00-.562-1.262c-.424-.744-.972-1.454-1.261-1.726l-1.37 1.457.032.034.08.092a8.55 8.55 0 01.78 1.133c.179.313.314.605.385.843.08.27.033.317.062.243l1.864.726zm8.563-8.051a2.7 2.7 0 00-.711.524c-.164.166-.116.116-.091.102.042-.024.017.01-.227.034s-.634.031-1.272.006l-.078 1.999c.667.026 1.164.022 1.545-.015.383-.037.721-.115 1.022-.286.283-.162.485-.395.525-.436a.714.714 0 01.21-.154l-.923-1.774zm.461.887l-.98.195v-.002c-.001 0-.001 0 0 0v.008l.009.048c.007.046.018.115.028.205.02.18.04.434.037.721-.007.604-.116 1.214-.396 1.637l1.668 1.104c.595-.898.72-1.97.728-2.718a7.814 7.814 0 00-.105-1.353l-.005-.026a.278.278 0 00-.002-.009v-.004l-.982.194zm-1.302 2.812c-.437.66-.399 1.444-.29 2.01.115.603.355 1.198.588 1.67.229.46.493.886.704 1.134.047.054.143.163.273.254.05.035.223.155.476.186a1.017 1.017 0 001.143-1.096 1.291 1.291 0 00-.04-.237 2.416 2.416 0 00-.109-.316l-1.847.768c.025.06.026.07.02.048-.002-.01-.015-.058-.02-.13-.002-.037-.02-.266.118-.518a.985.985 0 01.985-.503c.239.03.393.14.42.16.087.06.125.112.103.086a4.327 4.327 0 01-.434-.725c-.187-.379-.347-.795-.416-1.156a1.533 1.533 0 01-.032-.414c.009-.095.03-.122.026-.117l-1.668-1.104zm2.016-.267c-.686.482-1.111 1.275-1.299 2.062-.191.802-.17 1.73.181 2.578l1.847-.768c-.167-.402-.19-.892-.083-1.345.112-.47.331-.769.502-.889l-1.148-1.637zM6.301 2.165a13.055 13.055 0 01-.95-.91A3.57 3.57 0 015.117.98c-.052-.072-.065-.1-.061-.09a.45.45 0 01.027.081.741.741 0 01.017.236.868.868 0 01-.421.668c-.182.107-.333.104-.34.104-.022 0-.009-.003.055.011.28.061.826.275 1.59.667.74.378 1.618.888 2.538 1.489 1.852 1.207 3.81 2.736 5.144 4.232.67.75 1.14 1.446 1.38 2.048.239.593.218.995.081 1.283l1.806.86c.457-.96.335-1.977-.03-2.888-.362-.903-.998-1.797-1.744-2.634-1.498-1.68-3.616-3.32-5.544-4.577A30.838 30.838 0 006.895.875C6.108.472 5.37.155 4.822.035a2.274 2.274 0 00-.478-.057c-.153 0-.42.018-.682.174-.324.19-.524.519-.555.885-.025.298.067.546.134.69.138.299.377.598.637.88.276.301.64.652 1.098 1.057l1.325-1.499zm-2.85 10.207a.11.11 0 01.004-.005L1.869 11.15l-.03.04 1.612 1.183zm.215.739a.805.805 0 01-.267-.314l1.803-.866a1.196 1.196 0 00-.402-.468L3.666 13.11zm-.159-.138c.009.01-.015-.018-.027-.082a.316.316 0 01-.005-.075c.001-.02.004-.03.004-.03-.016.061-.053.119-.224.43-.13.238-.342.64-.379 1.137-.04.547.134 1.077.517 1.576l1.587-1.217a.626.626 0 01-.103-.176.082.082 0 01-.006-.035c.002-.034.02-.11.138-.324.078-.142.307-.513.405-.886a1.729 1.729 0 00-.32-1.536l-1.587 1.218zm.143.15c.712.61 1.359 1.004 2.016 1.188.682.19 1.273.125 1.803 0 1.045-.245 1.758-.638 3.314-.577l.078-1.999c-1.918-.075-3.157.467-3.85.63-.34.08-.564.087-.807.02-.268-.075-.657-.27-1.253-.78L3.65 13.122zm-.884 1.469c.161.152.186.3.176.263a.944.944 0 01-.016-.162c-.009-.2.01-.488.06-.816.049-.323.124-.654.216-.94.097-.301.191-.486.25-.565L1.838 11.19c-.244.332-.417.75-.541 1.136-.129.4-.227.837-.29 1.252-.062.41-.096.832-.08 1.2.007.18.027.38.076.57.041.163.137.462.392.702l1.37-1.457zm14.247-2.274a.921.921 0 01-.078.243.999.999 0 01-1.897-.297c-.009-.069-.008-.124-.008-.126h2c0-.003 0-.059-.008-.128a.97.97 0 00-.115-.354 1 1 0 00-1.861.303l1.967.359zm-1.528 3.821c.435-.304.7-.776.864-1.144a7.26 7.26 0 00.401-1.22c.18-.738.277-1.536.263-1.457l-1.967-.359c-.028.153-.072.654-.24 1.343a5.232 5.232 0 01-.283.877c-.12.271-.203.335-.186.322l1.148 1.638zM1.958 11.054a.996.996 0 011.504.162 1 1 0 01.178.549c.003.203-.058.354-.068.38a.979.979 0 01-.113.21.695.695 0 01-.091.106l-1.364-1.463a1.312 1.312 0 00-.239.3 1.016 1.016 0 00-.057.12c-.01.029-.072.18-.068.384a1 1 0 001.481.859.985.985 0 00.21-.154l-1.373-1.454zm1.532 1.27l.01-.013-1.628-1.163 1.618 1.175zm-1.417-1.508a1.002 1.002 0 01-.044.066 4.6 4.6 0 00-.032.052l1.709 1.04.018-.03v-.002c0 .002-.003.006-.007.012a2.4 2.4 0 01-.051.069.99.99 0 01-.093.099l-.006.005-.002.002.006-.005a7.299 7.299 0 00.047-.047.963.963 0 00.096-.117l-1.641-1.144zm-.076.118l-.089.148-.055.092-.018.03-.005.007.003-.003.003-.006a3.03 3.03 0 00.036-.054L3.5 12.311a1.98 1.98 0 00.04-.06l.002-.003a.085.085 0 01.004-.006l.005-.01.018-.03.056-.092.056-.094.026-.043-1.709-1.04zm1.542 1.305a.782.782 0 01-.012.02l-.003.006-.001.002.004-.007.018-.03a21.917 21.917 0 01.127-.206l-.006.009a.94.94 0 01-.047.061l-1.535-1.281a1.672 1.672 0 00-.115.164 9.663 9.663 0 00-.184.3l1.754.962z" fill="#EEF0FF" mask="url(#path-1-outside-1_13_24)"/></g><path id="Vector 15" d="M8.92 9.362h2.933c.526 0 0 .959-1.174.959-1.173 0-2.346-.959-1.76-.959z" fill="#EEF0FF" stroke="#EEF0FF" stroke-linecap="round"/></g><defs><radialGradient id="paint0_radial_13_24" cx="0" cy="0" r="1" gradientUnits="userSpaceOnUse" gradientTransform="matrix(0 9.0264 -7.15239 0 9.076 10.004)"><stop stop-color="#505D84"/><stop offset="1" stop-color="#212F53"/></radialGradient><clipPath id="clip0_13_24"><path fill="#fff" transform="translate(.42 .259)" d="M0 0h17.565v19.165H0z"/></clipPath></defs></svg>