<svg width="1439" height="1040" viewBox="0 0 1439 1040" fill="none" xmlns="http://www.w3.org/2000/svg">
<path fill-rule="evenodd" clip-rule="evenodd" d="M1.42574 376L4.54456 371H87.505L90.0154 375.025L89.3138 376H1.42574ZM-11.0495 396L-7.93069 391H78.5218L74.9244 396H-11.0495ZM-36 436L-32.8812 431H49.7431L46.1458 436H-36ZM147.854 467.75H23.3027L31.7564 456H140.525L147.854 467.75ZM137.406 451L128.049 436H46.1458L35.3537 451H-12.2253C-13.606 451 -14.7253 452.119 -14.7253 453.5C-14.7253 454.881 -13.606 456 -12.2253 456H31.7564L35.3537 451H137.406ZM124.931 431H49.7431L60.5351 416H115.574L124.931 431ZM112.455 411L103.099 396H74.9244L64.1324 411H16.5247C15.144 411 14.0247 412.119 14.0247 413.5C14.0247 414.881 15.144 416 16.5247 416H60.5351L64.1324 411H112.455ZM99.9802 391H78.5218L89.3138 376H90.6238L99.9802 391Z" fill="url(#paint0_linear_218_7144)" fill-opacity="0.69" style="mix-blend-mode:multiply"/>
<path d="M561.007 738.106C559.973 736.719 561.719 734.973 563.106 736.007L574.823 744.741C575.355 745.137 576.084 745.137 576.616 744.741L588.333 736.007C589.719 734.973 591.466 736.719 590.432 738.106L581.698 749.823C581.301 750.355 581.301 751.084 581.698 751.616L590.432 763.333C591.466 764.719 589.719 766.466 588.333 765.432L576.616 756.698C576.084 756.301 575.355 756.301 574.823 756.698L563.106 765.432C561.719 766.466 559.973 764.719 561.007 763.333L569.741 751.616C570.138 751.084 570.138 750.355 569.741 749.823L561.007 738.106Z" fill="#B7C5F2" fill-opacity="0.6"/>
<circle cx="245" cy="693" r="16" stroke="#505D84" stroke-opacity="0.49" stroke-width="8"/>
<circle cx="975" cy="419" r="20" fill="#DCE2FF"/>
<path fill-rule="evenodd" clip-rule="evenodd" d="M13.4056 719.122C13.8907 718.13 15.0884 717.719 16.0808 718.204L90.7451 754.705C91.7374 755.19 92.1486 756.388 91.6635 757.38C91.1784 758.373 89.9806 758.784 88.9883 758.299L14.324 721.797C13.3316 721.312 12.9205 720.114 13.4056 719.122ZM9.48278 730.562C9.60406 730.313 9.90349 730.211 10.1516 730.332L84.8159 766.833C85.064 766.955 85.1668 767.254 85.0455 767.502C84.9242 767.75 84.6248 767.853 84.3767 767.732L9.71238 731.23C9.46429 731.109 9.3615 730.81 9.48278 730.562ZM-35.8472 719.042C-35.4834 718.298 -34.5851 717.99 -33.8409 718.353L116.19 791.7C116.934 792.064 117.243 792.962 116.879 793.706C116.515 794.45 115.617 794.759 114.873 794.395L-35.1585 721.049C-35.9027 720.685 -36.2111 719.786 -35.8472 719.042ZM-1.50724 751.903C-1.26468 751.407 -0.665821 751.202 -0.169651 751.444L74.4947 787.946C74.9909 788.188 75.1964 788.787 74.9539 789.283C74.7113 789.779 74.1125 789.985 73.6163 789.742L-1.04805 753.241C-1.54422 752.998 -1.74981 752.399 -1.50724 751.903ZM-20.8783 755.791C-20.5144 755.046 -19.6161 754.738 -18.8719 755.102L83.0953 804.951C83.8396 805.315 84.1479 806.213 83.7841 806.957C83.4203 807.702 82.522 808.01 81.7777 807.646L-20.1895 757.797C-20.9337 757.433 -21.2421 756.535 -20.8783 755.791ZM-25.3981 766.262C-25.1555 765.766 -24.5566 765.56 -24.0605 765.803L65.7785 809.723C66.2746 809.965 66.4802 810.564 66.2377 811.06C65.9951 811.556 65.3962 811.762 64.9001 811.519L-24.9389 767.599C-25.435 767.357 -25.6406 766.758 -25.3981 766.262ZM11.0299 798.104C11.2724 797.608 11.8713 797.402 12.3675 797.645L30.3352 806.429C30.8314 806.671 31.037 807.27 30.7944 807.766C30.5519 808.263 29.953 808.468 29.4568 808.226L11.4891 799.442C10.9929 799.199 10.7873 798.6 11.0299 798.104Z" fill="#B7C5F2" fill-opacity="0.63"/>
<path d="M28.702 748.299L103.366 784.801" stroke="#3F3D56" stroke-opacity="0.4" stroke-width="4" stroke-linecap="round" stroke-linejoin="round"/>
<path d="M23.4316 759.08L98.096 795.582" stroke="#3F3D56" stroke-opacity="0.4" stroke-linecap="round" stroke-linejoin="round"/>
<path d="M-19.5221 751.438L130.509 824.785" stroke="#3F3D56" stroke-opacity="0.4" stroke-width="3" stroke-linecap="round" stroke-linejoin="round"/>
<path d="M12.8908 780.642L87.5551 817.143" stroke="#3F3D56" stroke-opacity="0.4" stroke-width="2" stroke-linecap="round" stroke-linejoin="round"/>
<path d="M-6.03101 784.749L95.9362 834.598" stroke="#3F3D56" stroke-opacity="0.4" stroke-width="3" stroke-linecap="round" stroke-linejoin="round"/>
<path d="M15.8749 808.815L63.4895 832.093" stroke="#3F3D56" stroke-opacity="0.4" stroke-width="2" stroke-linecap="round" stroke-linejoin="round"/>
<path d="M25.4279 826.842L43.3957 835.626" stroke="#3F3D56" stroke-opacity="0.4" stroke-width="2" stroke-linecap="round" stroke-linejoin="round"/>
<path fill-rule="evenodd" clip-rule="evenodd" d="M996.657 117.204L994.271 97.7338L1011.92 103.846L996.657 117.204ZM997.754 126.152L1013.83 113.164L1012.6 104.082L1021.32 107.105L1013.83 113.164L1014.61 118.96L1026.89 109.033L1029.88 110.069L1015.03 122.071L1015.81 127.867L1035.45 111.998L1047 115.998L1017.44 139.886L1018.22 145.681L1052.57 117.926L1084.42 128.959L1005.87 192.427L1002.99 168.924L1022.64 178.428L1018.22 145.681L1001.78 158.97L1001.06 153.12L1017.44 139.886L1017.02 136.774L1000.67 149.98L999.957 144.131L1016.23 130.979L1015.81 127.867L999.572 140.99L998.855 135.141L1015.03 122.071L1014.61 118.96L998.47 132.001L997.754 126.152ZM1016.23 130.979L1017.02 136.774L1031.54 125.041C1032.61 124.174 1032.78 122.6 1031.91 121.526C1031.04 120.452 1029.47 120.285 1028.39 121.152L1016.23 130.979Z" fill="#B7C5F2" fill-opacity="0.3"/>
<path d="M483.154 160.478C484.258 156.608 489.742 156.608 490.846 160.478L492.622 166.698C493.214 168.774 495.347 170.006 497.441 169.481L503.715 167.908C507.619 166.929 510.361 171.679 507.562 174.57L503.062 179.218C501.561 180.769 501.561 183.231 503.062 184.782L507.562 189.43C510.361 192.321 507.619 197.071 503.715 196.092L497.441 194.519C495.347 193.994 493.214 195.226 492.622 197.302L490.846 203.522C489.742 207.392 484.258 207.392 483.154 203.522L481.378 197.302C480.786 195.226 478.653 193.994 476.559 194.519L470.285 196.092C466.381 197.071 463.639 192.321 466.438 189.43L470.938 184.782C472.439 183.231 472.439 180.769 470.938 179.218L466.438 174.57C463.639 171.679 466.381 166.929 470.285 167.908L476.559 169.481C478.653 170.006 480.786 168.774 481.378 166.698L483.154 160.478Z" fill="url(#paint1_linear_218_7144)"/>
<path d="M741.409 384.481L750.651 428.066C751.348 431.143 753.167 431.908 755.751 430.459L769.833 420.082L776.628 426.617C777.38 427.369 778.009 427.998 779.458 427.998L778.446 413.656L752.346 390.072C751.212 389.061 752.593 388.5 754.11 389.512L786.376 409.828L800.266 405.481C803.288 404.537 803.343 402.459 799.638 401.01L745.305 380.078C742.79 379.135 740.589 380.639 741.409 384.481Z" fill="url(#paint2_linear_218_7144)" style="mix-blend-mode:multiply"/>
<path d="M784.356 416.5C1077.66 680.364 651.356 870 664.356 670C677.356 470 1137.86 764 784.356 898" stroke="url(#paint3_linear_218_7144)" stroke-width="6" stroke-linecap="round" stroke-linejoin="round" stroke-dasharray="10 10" style="mix-blend-mode:multiply"/>
<path fill-rule="evenodd" clip-rule="evenodd" d="M1255 474L1249.75 471H1239.25L1234 474H1255ZM1230.5 476L1225.25 479H1263.75L1258.5 476H1230.5ZM1216.5 484L1221.75 481H1267.25L1272.5 484H1216.5ZM1213 486L1207.75 489H1281.25L1276 486H1213ZM1199 494L1204.25 491H1284.75L1290 494H1199ZM1195.5 496L1192 498V558L1193.75 559H1295.25L1297 558V556H1193C1192.45 556 1192 555.552 1192 555C1192 554.448 1192.45 554 1193 554H1297V551H1193C1192.45 551 1192 550.552 1192 550C1192 549.448 1192.45 549 1193 549H1297V546H1193C1192.45 546 1192 545.552 1192 545C1192 544.448 1192.45 544 1193 544H1297V541H1193C1192.45 541 1192 540.552 1192 540C1192 539.448 1192.45 539 1193 539H1297V536H1193C1192.45 536 1192 535.552 1192 535C1192 534.448 1192.45 534 1193 534H1297V531H1193C1192.45 531 1192 530.552 1192 530C1192 529.448 1192.45 529 1193 529H1297V526H1193C1192.45 526 1192 525.552 1192 525C1192 524.448 1192.45 524 1193 524H1297V521H1193C1192.45 521 1192 520.552 1192 520C1192 519.448 1192.45 519 1193 519H1297V516H1193C1192.45 516 1192 515.552 1192 515C1192 514.448 1192.45 514 1193 514H1297V511H1193C1192.45 511 1192 510.552 1192 510C1192 509.448 1192.45 509 1193 509H1297V506H1193C1192.45 506 1192 505.552 1192 505C1192 504.448 1192.45 504 1193 504H1297V501H1193C1192.45 501 1192 500.552 1192 500C1192 499.448 1192.45 499 1193 499H1297V498L1293.5 496H1195.5ZM1202.5 564L1197.25 561H1291.75L1286.5 564H1202.5ZM1206 566L1211.25 569H1277.75L1283 566H1206ZM1220 574L1214.75 571H1274.25L1269 574H1220ZM1223.5 576L1228.75 579H1260.25L1265.5 576H1223.5ZM1237.5 584L1232.25 581H1256.75L1251.5 584H1237.5ZM1244.5 468L1246.25 469H1242.75L1244.5 468ZM1241 586L1244.5 588L1248 586H1241Z" fill="url(#paint4_linear_218_7144)" style="mix-blend-mode:multiply"/>
<path d="M406.408 930.269C442.544 936.949 454.765 912.979 486.677 955.034C518.588 997.089 534.451 1000.6 518.761 1022.3C503.072 1043.99 500.176 1040.7 443.774 1035.59C388.662 1048.97 419.91 1022.48 368.584 987.402C322.822 947.281 370.271 923.59 406.408 930.269Z" fill="url(#paint5_linear_218_7144)" fill-opacity="0.3" style="mix-blend-mode:multiply"/>
<path d="M465.439 894.578C472.208 892.176 472.469 901.914 472.469 901.914C468.821 907.133 466.377 908.634 460.852 907.146C460.852 907.146 455.384 905.122 454.955 900.993C454.526 896.865 458.669 896.98 465.439 894.578Z" fill="url(#paint6_linear_218_7144)"/>
<path d="M402.988 893.866C409.469 890.856 419.381 881.546 427.258 893.035C435.136 904.524 419.694 903.676 415.333 914.375C410.971 925.075 397.79 921.277 397.79 921.277C386.945 911.376 396.507 896.877 402.988 893.866Z" fill="url(#paint7_linear_218_7144)"/>
<path fill-rule="evenodd" clip-rule="evenodd" d="M1436.48 779.5L1395 713L1353.52 779.5H1436.48ZM1438.99 783.525L1438.29 784.5H1350.4L1341.04 799.5H1427.5L1423.9 804.5H1337.93L1316.09 839.5H1398.72L1395.12 844.5H1312.98L1269 915H1521L1496.83 876.25H1372.28L1380.73 864.5H1489.5L1486.38 859.5H1384.33L1395.12 844.5H1477.02L1473.91 839.5H1398.72L1409.51 824.5H1464.55L1461.43 819.5H1413.11L1423.9 804.5H1452.07L1448.96 799.5H1427.5L1438.29 784.5H1439.6L1438.99 783.525ZM1413.11 819.5L1409.51 824.5H1365.5C1364.12 824.5 1363 823.381 1363 822C1363 820.619 1364.12 819.5 1365.5 819.5H1413.11ZM1384.33 859.5L1380.73 864.5H1336.75C1335.37 864.5 1334.25 863.381 1334.25 862C1334.25 860.619 1335.37 859.5 1336.75 859.5H1384.33Z" fill="#B7C5F2" fill-opacity="0.35"/>
<defs>
<linearGradient id="paint0_linear_218_7144" x1="55.927" y1="371" x2="55.927" y2="467.75" gradientUnits="userSpaceOnUse">
<stop stop-color="#D9DFFF"/>
<stop offset="0.520833" stop-color="#D6DCF9"/>
<stop offset="0.71875" stop-color="#C6CEFB"/>
<stop offset="1" stop-color="#C5CFFF"/>
</linearGradient>
<linearGradient id="paint1_linear_218_7144" x1="405.09" y1="123.639" x2="556.528" y2="279.293" gradientUnits="userSpaceOnUse">
<stop stop-color="#F5F7FF"/>
<stop offset="0.333333" stop-color="#DEE2FF"/>
<stop offset="0.677083" stop-color="#D9E1FF"/>
<stop offset="1" stop-color="#F2F5FF"/>
</linearGradient>
<linearGradient id="paint2_linear_218_7144" x1="771.857" y1="379.805" x2="771.857" y2="431.167" gradientUnits="userSpaceOnUse">
<stop stop-color="#D9DFFF"/>
<stop offset="0.520833" stop-color="#D6DCF9"/>
<stop offset="0.71875" stop-color="#C6CEFB"/>
<stop offset="1" stop-color="#C5CFFF"/>
</linearGradient>
<linearGradient id="paint3_linear_218_7144" x1="917.876" y1="526.637" x2="681.519" y2="813.172" gradientUnits="userSpaceOnUse">
<stop stop-color="#D9DFFF"/>
<stop offset="0.520833" stop-color="#D6DCF9"/>
<stop offset="0.71875" stop-color="#C6CEFB"/>
<stop offset="1" stop-color="#C5CFFF"/>
</linearGradient>
<linearGradient id="paint4_linear_218_7144" x1="1244.5" y1="468" x2="1244.5" y2="588" gradientUnits="userSpaceOnUse">
<stop stop-color="#D9DFFF"/>
<stop offset="0.520833" stop-color="#D6DCF9"/>
<stop offset="0.71875" stop-color="#C6CEFB"/>
<stop offset="1" stop-color="#C5CFFF"/>
</linearGradient>
<linearGradient id="paint5_linear_218_7144" x1="497.399" y1="923.719" x2="395.601" y2="1021.28" gradientUnits="userSpaceOnUse">
<stop stop-color="#D9DFFF"/>
<stop offset="0.520833" stop-color="#D6DCF9"/>
<stop offset="0.71875" stop-color="#C6CEFB"/>
<stop offset="1" stop-color="#C5CFFF"/>
</linearGradient>
<linearGradient id="paint6_linear_218_7144" x1="389.683" y1="743.319" x2="321.8" y2="1218.82" gradientUnits="userSpaceOnUse">
<stop stop-color="#F5F7FF"/>
<stop offset="0.333333" stop-color="#EBEDFF"/>
<stop offset="0.677083" stop-color="#EBEFFF"/>
<stop offset="1" stop-color="#F2F5FF"/>
</linearGradient>
<linearGradient id="paint7_linear_218_7144" x1="389.683" y1="743.319" x2="321.8" y2="1218.82" gradientUnits="userSpaceOnUse">
<stop stop-color="#F5F7FF"/>
<stop offset="0.333333" stop-color="#EBEDFF"/>
<stop offset="0.677083" stop-color="#EBEFFF"/>
<stop offset="1" stop-color="#F2F5FF"/>
</linearGradient>
</defs>
</svg>
