<svg width="412" height="328" viewBox="0 0 412 328" fill="none" xmlns="http://www.w3.org/2000/svg">
<g clip-path="url(#clip0_882_3714)">
<path d="M116.538 279.261C116.799 277.916 114.916 276.598 112.33 276.316C109.744 276.035 107.436 276.898 107.174 278.243C106.913 279.588 108.797 280.906 111.382 281.188C113.968 281.469 116.276 280.607 116.538 279.261Z" fill="#212F53"/>
<path d="M147.322 277.015C147.584 275.67 145.7 274.351 143.115 274.07C140.529 273.789 138.221 274.651 137.959 275.996C137.697 277.341 139.581 278.66 142.167 278.941C144.752 279.222 147.061 278.36 147.322 277.015Z" fill="#0A1A3D"/>
<path d="M108.108 260.624C108.37 259.279 106.486 257.96 103.9 257.679C101.315 257.397 99.0063 258.26 98.7446 259.605C98.4829 260.95 100.367 262.269 102.952 262.55C105.538 262.831 107.846 261.969 108.108 260.624Z" fill="#FFE262"/>
<path d="M94.7313 252.989C94.7437 251.754 93.8226 250.748 92.6739 250.742C91.5252 250.735 90.5839 251.731 90.5714 252.966C90.5589 254.201 91.48 255.207 92.6287 255.213C93.7774 255.22 94.7188 254.224 94.7313 252.989Z" fill="#212F53"/>
<path d="M90.195 238.769C90.2074 237.534 89.2864 236.528 88.1377 236.521C86.989 236.515 86.0476 237.511 86.0351 238.745C86.0226 239.98 86.9437 240.987 88.0925 240.993C89.2412 241 90.1825 240.004 90.195 238.769Z" fill="#0A1A3D"/>
<path d="M125.471 263.795C125.483 262.56 124.562 261.554 123.413 261.548C122.265 261.541 121.323 262.537 121.311 263.772C121.298 265.007 122.22 266.013 123.368 266.02C124.517 266.026 125.458 265.03 125.471 263.795Z" fill="#212F53"/>
<path d="M110.594 269.35C110.607 268.115 109.686 267.109 108.537 267.102C107.388 267.096 106.447 268.092 106.434 269.327C106.422 270.561 107.343 271.568 108.492 271.574C109.64 271.581 110.582 270.585 110.594 269.35Z" fill="#FFE262"/>
<path d="M131.303 279.616C131.315 278.381 130.394 277.375 129.246 277.368C128.097 277.362 127.156 278.358 127.143 279.593C127.131 280.828 128.052 281.834 129.2 281.84C130.349 281.847 131.29 280.851 131.303 279.616Z" fill="#0A1A3D"/>
<path d="M353.191 207.159C353.453 205.814 351.569 204.496 348.983 204.214C346.398 203.933 344.089 204.795 343.828 206.141C343.566 207.486 345.45 208.804 348.036 209.086C350.621 209.367 352.929 208.505 353.191 207.159Z" fill="#212F53"/>
<path d="M383.976 204.913C384.237 203.568 382.353 202.249 379.768 201.968C377.182 201.687 374.874 202.549 374.612 203.894C374.351 205.239 376.235 206.558 378.82 206.839C381.406 207.12 383.714 206.258 383.976 204.913Z" fill="#0A1A3D"/>
<path d="M344.761 188.521C345.022 187.176 343.139 185.858 340.553 185.576C337.967 185.295 335.659 186.157 335.397 187.502C335.136 188.848 337.02 190.166 339.605 190.447C342.191 190.729 344.499 189.866 344.761 188.521Z" fill="#FFE262"/>
<path d="M331.385 180.887C331.397 179.652 330.476 178.645 329.327 178.639C328.179 178.632 327.237 179.628 327.225 180.863C327.212 182.098 328.133 183.104 329.282 183.111C330.431 183.117 331.372 182.122 331.385 180.887Z" fill="#212F53"/>
<path d="M326.848 166.667C326.861 165.432 325.94 164.426 324.791 164.419C323.642 164.413 322.701 165.409 322.688 166.643C322.676 167.878 323.597 168.885 324.746 168.891C325.894 168.898 326.836 167.902 326.848 166.667Z" fill="#0A1A3D"/>
<path d="M362.124 191.693C362.137 190.458 361.216 189.452 360.067 189.445C358.918 189.439 357.977 190.434 357.964 191.669C357.952 192.904 358.873 193.911 360.022 193.917C361.17 193.924 362.112 192.928 362.124 191.693Z" fill="#212F53"/>
<path d="M347.248 197.248C347.26 196.013 346.339 195.006 345.19 195C344.042 194.993 343.1 195.989 343.088 197.224C343.075 198.459 343.996 199.465 345.145 199.472C346.294 199.478 347.235 198.482 347.248 197.248Z" fill="#FFE262"/>
<path d="M367.956 207.514C367.969 206.279 367.048 205.273 365.899 205.266C364.75 205.26 363.809 206.256 363.796 207.491C363.784 208.725 364.705 209.732 365.854 209.738C367.002 209.745 367.944 208.749 367.956 207.514Z" fill="#0A1A3D"/>
<path d="M238.621 73.7234C238.883 72.3782 236.999 71.0597 234.413 70.7784C231.827 70.4971 229.519 71.3594 229.257 72.7046C228.996 74.0497 230.88 75.3682 233.465 75.6495C236.051 75.9309 238.359 75.0685 238.621 73.7234Z" fill="#EEF0FF"/>
<path d="M269.405 71.4768C269.667 70.1317 267.783 68.8132 265.198 68.5318C262.612 68.2505 260.304 69.1129 260.042 70.458C259.78 71.8031 261.664 73.1216 264.25 73.403C266.836 73.6843 269.144 72.8219 269.405 71.4768Z" fill="#0A1A3D"/>
<path d="M230.191 55.0857C230.453 53.7405 228.569 52.422 225.983 52.1407C223.398 51.8594 221.089 52.7217 220.828 54.0669C220.566 55.412 222.45 56.7305 225.036 57.0118C227.621 57.2932 229.929 56.4308 230.191 55.0857Z" fill="#FFE262"/>
<path d="M216.814 47.4511C216.827 46.2163 215.906 45.2099 214.757 45.2034C213.608 45.1969 212.667 46.1927 212.655 47.4276C212.642 48.6625 213.563 49.6688 214.712 49.6753C215.861 49.6818 216.802 48.686 216.814 47.4511Z" fill="#212F53"/>
<path d="M212.278 33.2309C212.291 31.996 211.369 30.9897 210.221 30.9832C209.072 30.9767 208.131 31.9725 208.118 33.2074C208.106 34.4423 209.027 35.4486 210.175 35.4551C211.324 35.4616 212.266 34.4658 212.278 33.2309Z" fill="#0A1A3D"/>
<path d="M247.554 58.2573C247.566 57.0224 246.645 56.0161 245.497 56.0096C244.348 56.0031 243.407 56.9989 243.394 58.2338C243.382 59.4687 244.303 60.475 245.451 60.4815C246.6 60.488 247.541 59.4922 247.554 58.2573Z" fill="#212F53"/>
<path d="M232.677 63.812C232.69 62.5771 231.769 61.5708 230.62 61.5643C229.471 61.5578 228.53 62.5536 228.518 63.7885C228.505 65.0233 229.426 66.0297 230.575 66.0362C231.724 66.0427 232.665 65.0469 232.677 63.812Z" fill="#FFE262"/>
<path d="M253.386 74.0781C253.398 72.8432 252.477 71.8369 251.329 71.8304C250.18 71.8239 249.239 72.8197 249.226 74.0546C249.214 75.2895 250.135 76.2958 251.283 76.3023C252.432 76.3088 253.373 75.313 253.386 74.0781Z" fill="#0A1A3D"/>
</g>
<path d="M288.628 112.222C291.089 113.086 293.731 113.302 296.301 112.85C298.87 112.398 301.279 111.294 303.297 109.643C308.435 105.339 310.046 98.2481 311.356 91.6822L315.233 72.2617L307.117 77.8397C301.28 81.8511 295.311 85.991 291.27 91.8013C287.228 97.6116 285.464 105.543 288.711 111.83" fill="#EEF0FF"/>
<path d="M289.322 135.734C288.5 129.762 287.655 123.713 288.232 117.677C288.743 112.316 290.382 107.079 293.718 102.786C295.489 100.512 297.644 98.5627 300.086 97.0272C300.723 96.6261 301.309 97.6333 300.675 98.0326C296.45 100.698 293.182 104.633 291.342 109.272C289.31 114.43 288.984 120.052 289.334 125.532C289.546 128.845 289.994 132.137 290.447 135.425C290.482 135.574 290.46 135.73 290.384 135.863C290.309 135.996 290.185 136.095 290.039 136.141C289.89 136.181 289.731 136.161 289.597 136.085C289.462 136.009 289.364 135.883 289.322 135.734V135.734Z" fill="#B7C5F2"/>
<path d="M297.234 125.167C298.29 126.768 299.741 128.071 301.447 128.95C303.154 129.829 305.059 130.255 306.978 130.186C311.91 129.952 316.022 126.516 319.724 123.254L330.672 113.607L323.426 113.26C318.215 113.012 312.87 112.779 307.907 114.383C302.943 115.987 298.366 119.847 297.458 124.974" fill="#EEF0FF"/>
<path d="M287 139.168C290.954 132.185 295.54 124.424 303.735 121.944C306.014 121.256 308.403 121.01 310.775 121.218C311.522 121.282 311.335 122.432 310.589 122.368C306.614 122.039 302.647 123.086 299.356 125.334C296.188 127.486 293.722 130.478 291.635 133.65C290.356 135.593 289.211 137.619 288.065 139.642C287.699 140.289 286.629 139.822 287 139.168V139.168Z" fill="#B7C5F2"/>
<path d="M128.444 212.395C125.075 213.57 121.458 213.864 117.942 213.25C114.425 212.635 111.128 211.131 108.366 208.884C101.334 203.025 99.1295 193.373 97.3355 184.435C95.5668 175.624 93.798 166.812 92.0293 158L103.138 165.593C111.127 171.053 119.296 176.689 124.828 184.598C130.359 192.507 132.774 203.303 128.33 211.861" fill="#EEF0FF"/>
<path d="M127.7 243.599C128.857 235.484 130.046 227.266 129.235 219.065C128.514 211.781 126.208 204.667 121.511 198.834C119.018 195.744 115.984 193.096 112.546 191.01C111.65 190.465 110.825 191.833 111.718 192.376C117.666 195.997 122.266 201.343 124.856 207.645C127.717 214.653 128.176 222.292 127.683 229.737C127.385 234.239 126.753 238.711 126.117 243.178C126.067 243.38 126.098 243.593 126.204 243.773C126.311 243.954 126.484 244.089 126.69 244.151C126.9 244.206 127.124 244.178 127.313 244.075C127.502 243.971 127.641 243.8 127.7 243.599V243.599Z" fill="#B7C5F2"/>
<path d="M117.011 229.579C115.577 231.701 113.606 233.428 111.288 234.593C108.97 235.759 106.383 236.323 103.776 236.232C97.0758 235.922 91.4901 231.368 86.462 227.044L71.5898 214.256L81.4328 213.798C88.5112 213.468 95.7723 213.16 102.514 215.286C109.256 217.412 115.474 222.528 116.707 229.324" fill="#EEF0FF"/>
<path d="M130.533 248.761C125.181 239.076 118.973 228.313 107.88 224.873C104.795 223.92 101.561 223.578 98.3513 223.867C97.3397 223.956 97.5923 225.551 98.6021 225.462C103.982 225.005 109.353 226.458 113.808 229.576C118.096 232.56 121.434 236.709 124.259 241.108C125.99 243.803 127.54 246.613 129.091 249.418C129.586 250.315 131.035 249.668 130.533 248.761V248.761Z" fill="#B7C5F2"/>
<path d="M95.5011 103.957L42.9605 93.1795L42.2778 93.0398C41.93 92.968 41.5686 92.9937 41.2352 93.114C40.9017 93.2343 40.6097 93.4443 40.3927 93.7199C40.1758 93.9954 40.0426 94.3253 40.0086 94.6717C39.9747 95.018 40.0412 95.3667 40.2007 95.6777L61.286 136.98C61.4224 137.245 61.622 137.474 61.8679 137.648C62.1138 137.822 62.3988 137.936 62.6989 137.98C63 138.024 63.3075 137.996 63.5949 137.897C63.8822 137.799 64.1408 137.633 64.3483 137.415L78.7285 122.393C78.8308 122.283 78.9552 122.195 79.0937 122.135C79.2323 122.075 79.3821 122.043 79.5337 122.043C79.7397 122.039 79.943 122.09 80.1217 122.19C80.3005 122.29 80.448 122.436 80.5485 122.613L83.5451 127.963C83.7365 128.32 84.0443 128.604 84.4195 128.769C84.7947 128.935 85.2158 128.973 85.6157 128.877L85.6304 128.874C86.0352 128.788 86.3985 128.571 86.662 128.258C86.9255 127.945 87.0739 127.554 87.0832 127.148L87.6019 114.754C87.608 114.6 87.6465 114.448 87.715 114.309C87.7886 114.171 87.889 114.048 88.0104 113.947L96.318 107.189C96.5911 106.967 96.7947 106.674 96.9056 106.344C97.0164 106.014 97.03 105.66 96.9447 105.322C96.8594 104.985 96.6788 104.678 96.4235 104.436C96.1681 104.195 95.8485 104.029 95.5011 103.957V103.957ZM95.8378 106.622L87.5302 113.38C87.4219 113.466 87.3239 113.564 87.2381 113.672L42.8724 94.283C42.8333 94.2654 42.7924 94.2517 42.7506 94.2419C42.5796 94.1998 42.3991 94.2176 42.2401 94.2921C42.0811 94.3665 41.9537 94.4931 41.8799 94.6498C41.8062 94.8065 41.7906 94.9835 41.836 95.1502C41.8814 95.3169 41.9849 95.4629 42.1286 95.5628L78.6678 121.516C78.4838 121.611 78.3179 121.736 78.1773 121.886L63.7973 136.909C63.6725 137.039 63.5175 137.138 63.3454 137.197C63.1733 137.256 62.9893 137.273 62.8089 137.247C62.6285 137.222 62.4571 137.154 62.3093 137.049C62.1614 136.945 62.0415 136.807 61.9597 136.648L40.8745 95.3457C40.7802 95.1591 40.7413 94.9503 40.7624 94.7432C40.7834 94.536 40.8634 94.3388 40.9934 94.1739C41.1233 94.0091 41.2979 93.8833 41.4972 93.8109C41.6966 93.7385 41.9128 93.7224 42.121 93.7644L42.82 93.9081L95.3442 104.681C95.5528 104.724 95.7448 104.824 95.8982 104.969C96.0517 105.113 96.1603 105.298 96.2119 105.5C96.2634 105.703 96.2556 105.915 96.1894 106.113C96.1233 106.312 96.0014 106.488 95.8378 106.622L95.8378 106.622Z" fill="#DAE2FF"/>
<g clip-path="url(#clip1_882_3714)">
<path d="M211.244 299.627C212.328 300.66 213.659 301.395 215.108 301.762C216.558 302.129 218.077 302.116 219.52 301.723C223.218 300.67 225.727 297.325 227.955 294.183L234.545 284.894L228.991 285.915C224.996 286.649 220.903 287.42 217.424 289.522C213.946 291.624 211.159 295.375 211.38 299.441" fill="#C0C6DD"/>
<path d="M206.081 312.142C207.055 308.811 208.035 305.435 209.755 302.4C211.282 299.704 213.369 297.339 216.123 295.868C217.583 295.09 219.168 294.573 220.806 294.341C221.233 294.28 221.302 294.947 220.877 295.007C218.042 295.414 215.408 296.712 213.357 298.716C211.082 300.948 209.59 303.825 208.487 306.786C207.819 308.576 207.28 310.41 206.744 312.244C206.728 312.331 206.68 312.408 206.609 312.461C206.538 312.513 206.45 312.536 206.362 312.525C206.275 312.511 206.197 312.463 206.144 312.391C206.092 312.32 206.07 312.23 206.083 312.142L206.081 312.142Z" fill="#F2F2F2"/>
<path d="M313.34 178.004C313.973 177.851 314.631 177.839 315.27 177.969C315.908 178.099 316.51 178.367 317.033 178.756C317.557 179.144 317.989 179.643 318.299 180.217C318.609 180.791 318.79 181.427 318.829 182.078L334.068 186.374L327.85 191.774L314.333 186.867C313.236 186.86 312.181 186.45 311.366 185.715C310.55 184.98 310.033 183.97 309.91 182.878C309.788 181.785 310.069 180.686 310.701 179.787C311.333 178.889 312.272 178.254 313.34 178.004L313.34 178.004Z" fill="#FFB4A5"/>
<path d="M352.498 308.114L348.056 308.113L345.943 290.934L352.499 290.934L352.498 308.114Z" fill="#FFB4A5"/>
<path d="M353.63 312.431L339.308 312.431V312.249C339.308 310.767 339.896 309.345 340.941 308.296C341.987 307.248 343.404 306.659 344.883 306.659H344.883L353.631 306.66L353.63 312.431Z" fill="#191B24"/>
<path d="M378.525 308.114L374.083 308.113L371.97 290.934L378.526 290.934L378.525 308.114Z" fill="#FFB4A5"/>
<path d="M379.658 312.431L365.336 312.431V312.249C365.336 310.767 365.923 309.345 366.969 308.296C368.014 307.248 369.432 306.659 370.91 306.659H370.911L379.658 306.66L379.658 312.431Z" fill="#191B24"/>
<path d="M348.869 209.51L342.326 254.955L343.956 302.836L353.781 303.621L356.853 260.681L364.674 236.737L369.272 270.868L369.461 302.836L379.607 303.621L383.145 236.413L380.542 207.184L348.869 209.51Z" fill="#191B24"/>
<path d="M367.793 148.665C373.509 148.665 378.143 144.018 378.143 138.286C378.143 132.554 373.509 127.907 367.793 127.907C362.076 127.907 357.442 132.554 357.442 138.286C357.442 144.018 362.076 148.665 367.793 148.665Z" fill="#FFB4A5"/>
<path d="M361.413 154.311L349.986 212.037C349.986 212.037 369.225 217.573 377.653 212.462C386.081 207.351 382.304 191.571 382.304 191.571L380.761 164.721L377.908 157.931L375.488 152.326L361.413 154.311Z" fill="#E1E2EE"/>
<path d="M358.068 195.286L362.015 153.19L358.859 155.501L347.821 159.096L347.066 188.733L339.344 227.706C339.344 227.706 344.863 238.505 351.703 220.64L358.068 195.286Z" fill="#191B24"/>
<path d="M353.133 163.528L347.821 159.095L335.882 185.101L322.56 182.175L321.93 190.065L341.233 197.725L354.387 179.362L353.133 163.528Z" fill="#191B24"/>
<path d="M373.798 186.072L375.286 151.812L380.761 156.063L390.538 158.796L389.105 186.072L391.168 228.396L380.917 231.651L378.039 204.945L373.798 186.072Z" fill="#191B24"/>
<path d="M374.456 213.651C374.571 213.008 374.824 212.398 375.2 211.865C375.575 211.331 376.062 210.886 376.627 210.562C377.192 210.237 377.821 210.041 378.47 209.986C379.119 209.932 379.772 210.021 380.383 210.247L390.429 197.981L392.862 205.86L382.949 216.301C382.502 217.304 381.703 218.109 380.705 218.562C379.706 219.015 378.576 219.085 377.529 218.758C376.482 218.432 375.591 217.731 375.025 216.79C374.458 215.849 374.256 214.732 374.456 213.651V213.651Z" fill="#FFB4A5"/>
<path d="M383.992 162.598L390.538 158.795L407.01 191.413L390.951 213.775L381.791 206.431L392.913 191.886L382.776 176.265L383.992 162.598Z" fill="#191B24"/>
<path d="M377.528 129.988L378.03 128.975L375.505 127.717C375.505 127.717 372.719 123.173 367.679 124.45C362.639 125.727 360.371 126.491 360.371 126.491L357.853 127.762L359.117 129.023L356.849 129.788L358.364 130.542L356.601 131.558L357.55 136.766C357.55 136.766 359.126 132.816 362.156 134.326C365.186 135.835 370.728 133.545 370.728 133.545L375.543 142.889C375.543 142.889 376.536 139.614 378.307 140.487C378.307 140.487 382.832 133.262 377.528 129.988Z" fill="#191B24"/>
<path d="M314.654 145.216H314.588L276.629 161.469L224.693 183.707C224.49 183.793 224.273 183.837 224.052 183.839C223.832 183.84 223.614 183.797 223.41 183.714L169.828 161.423L130.936 145.242L130.877 145.216H130.811C130.197 145.217 129.609 145.461 129.175 145.896C128.741 146.331 128.497 146.921 128.496 147.537V248.332C128.497 248.948 128.741 249.538 129.175 249.973C129.609 250.408 130.197 250.653 130.811 250.653H314.654C315.268 250.653 315.856 250.408 316.29 249.973C316.724 249.538 316.968 248.948 316.969 248.332V147.537C316.968 146.921 316.724 146.331 316.29 145.896C315.856 145.461 315.268 145.217 314.654 145.216V145.216Z" fill="#EEF0FF"/>
<path d="M314.819 145.879C314.752 145.879 314.686 145.858 314.631 145.819L223.185 81.9589C222.907 81.7655 222.576 81.6621 222.238 81.6627C221.899 81.6632 221.569 81.7677 221.291 81.9621L130.504 145.819C130.433 145.869 130.344 145.889 130.258 145.874C130.171 145.858 130.094 145.809 130.044 145.737C129.994 145.666 129.974 145.576 129.989 145.49C130.004 145.403 130.053 145.326 130.125 145.276L220.911 81.4192C221.3 81.1471 221.763 81.0008 222.237 81C222.711 80.9992 223.174 81.144 223.563 81.4148L315.009 145.275C315.066 145.316 315.11 145.373 315.133 145.44C315.155 145.507 315.156 145.579 315.135 145.647C315.114 145.714 315.072 145.773 315.015 145.815C314.958 145.856 314.89 145.879 314.819 145.879L314.819 145.879Z" fill="#3F3D56"/>
<path d="M135.692 148.143L222.327 83.7583L309.62 152.724L226.791 201.961L181.822 191.683L135.692 148.143Z" fill="#C0C6DD"/>
<path d="M185.618 232.373H142.818C142.556 232.374 142.295 232.323 142.052 232.222C141.809 232.122 141.588 231.975 141.402 231.789C141.216 231.603 141.068 231.382 140.967 231.139C140.866 230.895 140.813 230.634 140.813 230.371C140.813 230.107 140.864 229.846 140.964 229.603C141.065 229.359 141.212 229.138 141.398 228.951C141.583 228.765 141.804 228.617 142.047 228.516C142.289 228.415 142.55 228.363 142.812 228.363H185.618C185.881 228.362 186.142 228.413 186.385 228.513C186.628 228.614 186.849 228.761 187.035 228.947C187.221 229.133 187.369 229.354 187.47 229.597C187.571 229.84 187.623 230.101 187.624 230.365C187.624 230.628 187.573 230.889 187.472 231.133C187.372 231.377 187.225 231.598 187.039 231.785C186.853 231.971 186.633 232.119 186.39 232.22C186.147 232.321 185.887 232.373 185.624 232.373H185.618Z" fill="#212F53"/>
<path d="M158.174 223.752H142.818C142.556 223.753 142.295 223.702 142.052 223.602C141.809 223.501 141.588 223.354 141.402 223.168C141.216 222.982 141.068 222.761 140.967 222.518C140.866 222.275 140.813 222.014 140.813 221.75C140.813 221.487 140.864 221.226 140.964 220.982C141.065 220.738 141.212 220.517 141.398 220.331C141.583 220.144 141.804 219.996 142.047 219.895C142.289 219.794 142.55 219.742 142.812 219.742H158.174C158.704 219.742 159.212 219.953 159.587 220.328C159.962 220.704 160.173 221.213 160.174 221.744C160.175 222.276 159.965 222.786 159.591 223.162C159.217 223.539 158.71 223.751 158.18 223.752H158.174Z" fill="#212F53"/>
<path d="M223.546 184.004C223.221 184.004 222.898 183.941 222.597 183.818L169.167 161.587V91.9997C169.167 91.3843 169.411 90.7944 169.845 90.3593C170.279 89.9242 170.867 89.6794 171.481 89.6787H273.984C274.598 89.6794 275.186 89.9242 275.62 90.3593C276.054 90.7944 276.298 91.3843 276.299 91.9997V161.635L276.198 161.678L224.523 183.807C224.214 183.937 223.882 184.004 223.546 184.004V184.004Z" fill="#6F8EE0"/>
<path d="M314.158 145.216H314.092L276.133 161.469L224.197 183.707C223.994 183.793 223.777 183.837 223.556 183.839C223.336 183.84 223.118 183.797 222.914 183.714L169.332 161.423L130.44 145.242L130.381 145.216H130.315C129.701 145.217 129.113 145.461 128.679 145.896C128.245 146.331 128.001 146.921 128 147.537V248.332C128.001 248.948 128.245 249.538 128.679 249.973C129.113 250.408 129.701 250.653 130.315 250.653H314.158C314.772 250.653 315.36 250.408 315.794 249.973C316.228 249.538 316.472 248.948 316.473 248.332V147.537C316.472 146.921 316.228 146.331 315.794 145.896C315.36 145.461 314.772 145.217 314.158 145.216ZM315.812 248.332C315.811 248.772 315.637 249.194 315.327 249.505C315.017 249.815 314.597 249.99 314.158 249.99H130.315C129.876 249.99 129.456 249.815 129.146 249.505C128.836 249.194 128.661 248.772 128.661 248.332V147.537C128.662 147.108 128.828 146.696 129.124 146.387C129.421 146.078 129.825 145.896 130.252 145.879L169.332 162.139L222.66 184.327C223.237 184.563 223.884 184.559 224.459 184.317L276.133 162.189L314.225 145.879C314.651 145.897 315.054 146.08 315.35 146.389C315.645 146.698 315.811 147.109 315.812 147.537L315.812 248.332Z" fill="#3F3D56"/>
<path d="M215.228 115.69H178.856C178.155 115.689 177.483 115.409 176.988 114.912C176.493 114.414 176.215 113.74 176.215 113.038C176.215 112.335 176.493 111.661 176.988 111.164C177.483 110.666 178.155 110.386 178.856 110.385H215.228C215.928 110.386 216.6 110.666 217.095 111.164C217.59 111.661 217.868 112.335 217.868 113.038C217.868 113.74 217.59 114.414 217.095 114.912C216.6 115.409 215.928 115.689 215.228 115.69V115.69Z" fill="#212F53"/>
<path d="M196.38 104.417H178.856C178.154 104.417 177.481 104.138 176.985 103.64C176.489 103.143 176.21 102.468 176.21 101.765C176.21 101.061 176.489 100.387 176.985 99.8892C177.481 99.3918 178.154 99.1123 178.856 99.1123H196.38C197.082 99.1123 197.755 99.3918 198.251 99.8892C198.747 100.387 199.026 101.061 199.026 101.765C199.026 102.468 198.747 103.143 198.251 103.64C197.755 104.138 197.082 104.417 196.38 104.417V104.417Z" fill="#212F53"/>
<path d="M249.936 142.216H194.386C193.684 142.216 193.012 141.936 192.516 141.439C192.019 140.941 191.741 140.267 191.741 139.563C191.741 138.86 192.019 138.185 192.516 137.688C193.012 137.19 193.684 136.911 194.386 136.911H249.936C250.638 136.911 251.31 137.19 251.806 137.688C252.303 138.185 252.581 138.86 252.581 139.563C252.581 140.267 252.303 140.941 251.806 141.439C251.31 141.936 250.638 142.216 249.936 142.216V142.216Z" fill="#212F53"/>
<path d="M249.936 154.483H194.386C194.038 154.484 193.694 154.416 193.372 154.283C193.051 154.15 192.759 153.954 192.513 153.708C192.266 153.462 192.071 153.169 191.938 152.847C191.805 152.525 191.736 152.179 191.736 151.831C191.736 151.482 191.805 151.137 191.938 150.815C192.071 150.492 192.266 150.2 192.513 149.953C192.759 149.707 193.051 149.512 193.372 149.379C193.694 149.246 194.038 149.178 194.386 149.178H249.936C250.284 149.178 250.628 149.246 250.95 149.379C251.271 149.512 251.563 149.707 251.809 149.953C252.056 150.2 252.251 150.492 252.384 150.815C252.517 151.137 252.586 151.482 252.586 151.831C252.586 152.179 252.517 152.525 252.384 152.847C252.251 153.169 252.056 153.462 251.809 153.708C251.563 153.954 251.271 154.15 250.95 154.283C250.628 154.416 250.284 154.484 249.936 154.483V154.483Z" fill="#212F53"/>
<path d="M411.596 312.85H305.472C305.365 312.85 305.263 312.808 305.187 312.732C305.111 312.656 305.069 312.553 305.069 312.446C305.069 312.338 305.111 312.235 305.187 312.16C305.263 312.084 305.365 312.041 305.472 312.041H411.596C411.704 312.041 411.806 312.084 411.882 312.16C411.957 312.235 412 312.338 412 312.446C412 312.553 411.957 312.656 411.882 312.732C411.806 312.808 411.704 312.85 411.596 312.85Z" fill="#E1E2EE"/>
<path d="M226.384 312.85H187.243C187.136 312.85 187.033 312.808 186.957 312.732C186.882 312.656 186.839 312.553 186.839 312.446C186.839 312.338 186.882 312.235 186.957 312.16C187.033 312.084 187.136 312.041 187.243 312.041H226.384C226.491 312.041 226.593 312.084 226.669 312.16C226.745 312.235 226.787 312.338 226.787 312.446C226.787 312.553 226.745 312.656 226.669 312.732C226.593 312.808 226.491 312.85 226.384 312.85Z" fill="#E1E2EE"/>
<path d="M201.635 300.34C203.129 300.306 204.59 299.886 205.876 299.121C207.162 298.356 208.229 297.272 208.976 295.974C210.858 292.613 210.285 288.466 209.655 284.664L207.795 273.417L204.575 278.068C202.259 281.414 199.899 284.855 198.91 288.805C197.922 292.755 198.585 297.385 201.6 300.112" fill="#C0C6DD"/>
<path d="M206.775 312.864C205.123 309.813 203.444 306.727 202.528 303.359C201.716 300.367 201.532 297.214 202.45 294.225C202.939 292.64 203.699 291.153 204.696 289.83C204.957 289.485 205.475 289.909 205.216 290.252C203.491 292.545 202.537 295.328 202.492 298.2C202.448 301.39 203.414 304.485 204.714 307.365C205.499 309.107 206.407 310.788 207.317 312.468C207.366 312.54 207.386 312.63 207.373 312.717C207.359 312.804 207.313 312.882 207.243 312.936C207.171 312.988 207.082 313.01 206.995 312.996C206.907 312.982 206.828 312.934 206.776 312.863L206.775 312.864Z" fill="#F2F2F2"/>
</g>
<defs>
<clipPath id="clip0_882_3714">
<rect width="384" height="328" fill="white"/>
</clipPath>
<clipPath id="clip1_882_3714">
<rect width="284" height="232" fill="white" transform="translate(128 81)"/>
</clipPath>
</defs>
</svg>
