<svg width="18" height="18" viewBox="0 0 18 18" fill="none" xmlns="http://www.w3.org/2000/svg">
<path d="M14.25 3.21875H4.25703C3.32504 3.21875 2.25 3.99086 2.25 4.92285L2.25003 12.9229C2.25003 13.8548 3.32504 14.7813 4.25703 14.7813H14.25C15.182 14.7813 15.75 13.8548 15.75 12.9229V4.92285C15.75 3.99086 15.182 3.21875 14.25 3.21875ZM7.42521 9.3084C4.23696 6.99452 4.26944 6.98869 3.41328 6.32234V5.43756C3.41328 4.97156 3.79103 4.59381 4.25703 4.59381H13.8195C14.2855 4.59381 14.6633 4.97156 14.6633 5.43756V6.32234C13.8065 6.98922 13.8394 6.99466 10.6514 9.30844C10.2822 9.57756 9.54773 10.2267 9.03828 10.2188C8.52841 10.2264 7.79491 9.57798 7.42521 9.3084ZM14.6633 7.74996V12.7501C14.6633 13.2161 14.2855 13.5938 13.8195 13.5938H4.25703C3.79103 13.5938 3.41328 13.2161 3.41328 12.7501V7.74996C3.90399 8.12944 4.585 8.63717 6.76378 10.2184C7.26166 10.582 8.09883 11.3485 9.03817 11.3438C9.98342 11.3485 10.8324 10.5689 11.3135 10.2179C13.4917 8.63709 14.1726 8.1294 14.6633 7.74996Z" fill="#EEF0FF"/>
</svg>
