<svg width="480" height="307" viewBox="0 0 480 307" fill="none" xmlns="http://www.w3.org/2000/svg">
<path d="M160.835 137.111C160.525 137.366 160.352 137.822 160.316 138.478C160.298 139.116 160.407 139.772 160.644 140.447C160.899 141.103 161.282 141.686 161.792 142.197C162.303 142.707 162.941 142.962 163.706 142.962C164.199 142.962 164.618 142.844 164.964 142.607C165.329 142.37 165.62 142.078 165.839 141.732C166.076 141.367 166.249 140.966 166.359 140.529C166.468 140.091 166.523 139.663 166.523 139.244C166.523 138.642 166.404 138.141 166.167 137.74C165.949 137.339 165.648 136.992 165.265 136.701C164.9 136.391 164.472 136.136 163.98 135.935C163.506 135.716 163.023 135.497 162.531 135.279C162.075 135.096 161.528 134.869 160.89 134.595C160.252 134.303 159.641 133.93 159.058 133.474C158.475 133 157.973 132.426 157.554 131.751C157.153 131.059 156.953 130.211 156.953 129.208C156.953 128.552 157.126 127.887 157.472 127.212C157.818 126.538 158.311 125.927 158.949 125.38C159.587 124.815 160.352 124.359 161.245 124.013C162.157 123.667 163.178 123.494 164.308 123.494C165.42 123.494 166.322 123.594 167.015 123.794C167.708 123.995 168.245 124.259 168.628 124.587C169.011 124.897 169.266 125.244 169.394 125.626C169.54 125.991 169.613 126.337 169.613 126.665C169.613 126.994 169.512 127.331 169.312 127.677C169.111 128.005 168.874 128.315 168.601 128.607C168.328 128.88 168.045 129.126 167.753 129.345C167.462 129.546 167.225 129.682 167.042 129.755C167.134 129.518 167.225 129.19 167.316 128.771C167.407 128.352 167.38 127.932 167.234 127.513C167.106 127.094 166.787 126.729 166.277 126.419C165.785 126.109 164.982 125.955 163.87 125.955C163.232 125.955 162.613 126.055 162.011 126.255C161.41 126.456 160.872 126.72 160.398 127.048C159.942 127.358 159.578 127.714 159.304 128.115C159.031 128.516 158.894 128.926 158.894 129.345C158.894 129.746 159.031 130.12 159.304 130.466C159.596 130.794 159.979 131.113 160.453 131.423C160.945 131.715 161.501 132.007 162.12 132.298C162.759 132.59 163.424 132.882 164.117 133.173C164.791 133.465 165.456 133.784 166.113 134.13C166.769 134.458 167.352 134.841 167.863 135.279C168.391 135.716 168.811 136.208 169.12 136.755C169.43 137.302 169.585 137.931 169.585 138.642C169.585 139.408 169.439 140.146 169.148 140.857C168.874 141.55 168.473 142.16 167.945 142.689C167.434 143.218 166.805 143.637 166.058 143.947C165.311 144.275 164.463 144.439 163.515 144.439C162.676 144.439 161.884 144.302 161.136 144.029C160.389 143.755 159.732 143.4 159.167 142.962C158.62 142.525 158.183 142.042 157.855 141.513C157.527 140.984 157.363 140.465 157.363 139.955C157.363 139.408 157.481 138.943 157.718 138.56C157.973 138.177 158.283 137.876 158.648 137.658C159.012 137.421 159.386 137.257 159.769 137.165C160.17 137.074 160.525 137.056 160.835 137.111ZM186.964 143.4C186.782 143.655 186.572 143.846 186.335 143.974C186.098 144.12 185.87 144.22 185.652 144.275C185.397 144.348 185.123 144.375 184.831 144.357C184.722 144.357 184.604 144.33 184.476 144.275C184.367 144.238 184.248 144.184 184.12 144.111C183.993 144.056 183.884 143.965 183.792 143.837C183.537 142.926 183.309 142.042 183.109 141.185C182.908 140.328 182.735 139.563 182.589 138.888C182.407 138.104 182.252 137.366 182.124 136.673C181.632 136.655 180.894 136.655 179.91 136.673C178.943 136.673 177.895 136.728 176.765 136.837C176.419 137.931 176.145 138.852 175.945 139.599C175.744 140.346 175.598 140.966 175.507 141.458C175.416 141.951 175.38 142.352 175.398 142.662C175.416 142.99 175.471 143.272 175.562 143.509C175.307 143.764 175.051 143.947 174.796 144.056C174.559 144.184 174.341 144.266 174.14 144.302C173.903 144.357 173.675 144.375 173.456 144.357C173.165 144.32 172.928 144.266 172.745 144.193C172.563 144.138 172.426 144.038 172.335 143.892C172.262 143.764 172.235 143.573 172.253 143.318C172.29 143.063 172.363 142.725 172.472 142.306C172.581 141.942 172.782 141.294 173.074 140.365C173.384 139.417 173.73 138.341 174.113 137.138C173.42 137.193 172.882 137.156 172.499 137.029C172.135 136.901 171.88 136.555 171.734 135.99C172.025 135.899 172.335 135.817 172.663 135.744C173.01 135.652 173.338 135.57 173.648 135.497C173.994 135.425 174.35 135.361 174.714 135.306C175.097 134.103 175.489 132.918 175.89 131.751C176.291 130.585 176.665 129.537 177.011 128.607L178.597 124.369C178.634 124.259 178.825 124.141 179.171 124.013C179.518 123.886 179.9 123.785 180.32 123.712C180.739 123.621 181.14 123.576 181.523 123.576C181.906 123.576 182.152 123.658 182.261 123.822C182.316 124.205 182.389 124.678 182.48 125.244C182.589 125.809 182.689 126.356 182.781 126.884C182.89 127.504 183.018 128.142 183.163 128.798C183.328 129.71 183.501 130.721 183.683 131.833C183.884 132.945 184.13 134.13 184.421 135.388C184.713 136.646 185.059 137.949 185.46 139.298C185.861 140.647 186.363 142.014 186.964 143.4ZM179.363 134.841C179.946 134.823 180.429 134.814 180.812 134.814C181.195 134.814 181.523 134.823 181.796 134.841L181.714 134.431C181.605 133.757 181.486 133.037 181.359 132.271C181.249 131.505 181.131 130.749 181.003 130.001C180.894 129.254 180.785 128.543 180.675 127.869C180.566 127.194 180.475 126.602 180.402 126.091C180.219 126.565 180.01 127.139 179.773 127.814C179.536 128.47 179.281 129.19 179.007 129.974C178.734 130.758 178.451 131.578 178.16 132.435C177.886 133.292 177.613 134.139 177.339 134.978C177.667 134.942 177.995 134.914 178.324 134.896C178.652 134.878 178.998 134.859 179.363 134.841ZM192.695 137.111C192.385 137.366 192.212 137.822 192.175 138.478C192.157 139.116 192.266 139.772 192.503 140.447C192.759 141.103 193.141 141.686 193.652 142.197C194.162 142.707 194.8 142.962 195.566 142.962C196.058 142.962 196.477 142.844 196.824 142.607C197.188 142.37 197.48 142.078 197.699 141.732C197.936 141.367 198.109 140.966 198.218 140.529C198.328 140.091 198.382 139.663 198.382 139.244C198.382 138.642 198.264 138.141 198.027 137.74C197.808 137.339 197.507 136.992 197.124 136.701C196.76 136.391 196.331 136.136 195.839 135.935C195.365 135.716 194.882 135.497 194.39 135.279C193.934 135.096 193.387 134.869 192.749 134.595C192.111 134.303 191.501 133.93 190.917 133.474C190.334 133 189.833 132.426 189.413 131.751C189.012 131.059 188.812 130.211 188.812 129.208C188.812 128.552 188.985 127.887 189.331 127.212C189.678 126.538 190.17 125.927 190.808 125.38C191.446 124.815 192.212 124.359 193.105 124.013C194.016 123.667 195.037 123.494 196.167 123.494C197.279 123.494 198.182 123.594 198.874 123.794C199.567 123.995 200.105 124.259 200.488 124.587C200.87 124.897 201.126 125.244 201.253 125.626C201.399 125.991 201.472 126.337 201.472 126.665C201.472 126.994 201.372 127.331 201.171 127.677C200.971 128.005 200.734 128.315 200.46 128.607C200.187 128.88 199.904 129.126 199.613 129.345C199.321 129.546 199.084 129.682 198.902 129.755C198.993 129.518 199.084 129.19 199.175 128.771C199.266 128.352 199.239 127.932 199.093 127.513C198.966 127.094 198.647 126.729 198.136 126.419C197.644 126.109 196.842 125.955 195.73 125.955C195.092 125.955 194.472 126.055 193.87 126.255C193.269 126.456 192.731 126.72 192.257 127.048C191.801 127.358 191.437 127.714 191.163 128.115C190.89 128.516 190.753 128.926 190.753 129.345C190.753 129.746 190.89 130.12 191.163 130.466C191.455 130.794 191.838 131.113 192.312 131.423C192.804 131.715 193.36 132.007 193.98 132.298C194.618 132.59 195.283 132.882 195.976 133.173C196.65 133.465 197.316 133.784 197.972 134.13C198.628 134.458 199.212 134.841 199.722 135.279C200.251 135.716 200.67 136.208 200.98 136.755C201.29 137.302 201.445 137.931 201.445 138.642C201.445 139.408 201.299 140.146 201.007 140.857C200.734 141.55 200.333 142.16 199.804 142.689C199.294 143.218 198.665 143.637 197.917 143.947C197.17 144.275 196.322 144.439 195.374 144.439C194.536 144.439 193.743 144.302 192.995 144.029C192.248 143.755 191.592 143.4 191.027 142.962C190.48 142.525 190.042 142.042 189.714 141.513C189.386 140.984 189.222 140.465 189.222 139.955C189.222 139.408 189.341 138.943 189.578 138.56C189.833 138.177 190.143 137.876 190.507 137.658C190.872 137.421 191.245 137.257 191.628 137.165C192.029 137.074 192.385 137.056 192.695 137.111ZM207.913 137.111C207.604 137.366 207.43 137.822 207.394 138.478C207.376 139.116 207.485 139.772 207.722 140.447C207.977 141.103 208.36 141.686 208.87 142.197C209.381 142.707 210.019 142.962 210.785 142.962C211.277 142.962 211.696 142.844 212.042 142.607C212.407 142.37 212.699 142.078 212.917 141.732C213.154 141.367 213.328 140.966 213.437 140.529C213.546 140.091 213.601 139.663 213.601 139.244C213.601 138.642 213.482 138.141 213.245 137.74C213.027 137.339 212.726 136.992 212.343 136.701C211.979 136.391 211.55 136.136 211.058 135.935C210.584 135.716 210.101 135.497 209.609 135.279C209.153 135.096 208.606 134.869 207.968 134.595C207.33 134.303 206.719 133.93 206.136 133.474C205.553 133 205.051 132.426 204.632 131.751C204.231 131.059 204.031 130.211 204.031 129.208C204.031 128.552 204.204 127.887 204.55 127.212C204.897 126.538 205.389 125.927 206.027 125.38C206.665 124.815 207.43 124.359 208.324 124.013C209.235 123.667 210.256 123.494 211.386 123.494C212.498 123.494 213.4 123.594 214.093 123.794C214.786 123.995 215.324 124.259 215.706 124.587C216.089 124.897 216.344 125.244 216.472 125.626C216.618 125.991 216.691 126.337 216.691 126.665C216.691 126.994 216.591 127.331 216.39 127.677C216.189 128.005 215.953 128.315 215.679 128.607C215.406 128.88 215.123 129.126 214.831 129.345C214.54 129.546 214.303 129.682 214.12 129.755C214.212 129.518 214.303 129.19 214.394 128.771C214.485 128.352 214.458 127.932 214.312 127.513C214.184 127.094 213.865 126.729 213.355 126.419C212.863 126.109 212.061 125.955 210.949 125.955C210.311 125.955 209.691 126.055 209.089 126.255C208.488 126.456 207.95 126.72 207.476 127.048C207.02 127.358 206.656 127.714 206.382 128.115C206.109 128.516 205.972 128.926 205.972 129.345C205.972 129.746 206.109 130.12 206.382 130.466C206.674 130.794 207.057 131.113 207.531 131.423C208.023 131.715 208.579 132.007 209.199 132.298C209.837 132.59 210.502 132.882 211.195 133.173C211.869 133.465 212.535 133.784 213.191 134.13C213.847 134.458 214.43 134.841 214.941 135.279C215.469 135.716 215.889 136.208 216.199 136.755C216.509 137.302 216.663 137.931 216.663 138.642C216.663 139.408 216.518 140.146 216.226 140.857C215.953 141.55 215.551 142.16 215.023 142.689C214.512 143.218 213.884 143.637 213.136 143.947C212.389 144.275 211.541 144.439 210.593 144.439C209.755 144.439 208.962 144.302 208.214 144.029C207.467 143.755 206.811 143.4 206.245 142.962C205.699 142.525 205.261 142.042 204.933 141.513C204.605 140.984 204.441 140.465 204.441 139.955C204.441 139.408 204.559 138.943 204.796 138.56C205.051 138.177 205.361 137.876 205.726 137.658C206.091 137.421 206.464 137.257 206.847 137.165C207.248 137.074 207.604 137.056 207.913 137.111Z" fill="#B7C5F2" fill-opacity="0.6"/>
<path d="M47.6947 49.0522C48.2885 49.0522 48.9056 49.1459 49.5463 49.3334C50.1869 49.5209 50.7728 49.8256 51.3041 50.2475C51.851 50.6537 52.2963 51.1928 52.64 51.8647C52.9838 52.5209 53.1556 53.3256 53.1556 54.2787C53.1556 55.1381 52.9916 55.9741 52.6635 56.7866C52.351 57.5991 51.8978 58.3412 51.3041 59.0131C50.726 59.685 50.0228 60.2631 49.1947 60.7475C48.3666 61.2162 47.4447 61.5366 46.4291 61.7084C46.4291 62.3491 46.4525 62.9037 46.4994 63.3725C46.515 63.81 46.5306 64.185 46.5463 64.4975C46.5775 64.7944 46.601 65.0522 46.6166 65.2709C46.6478 65.4897 46.6791 65.685 46.7103 65.8569C46.7416 66.0444 46.7806 66.2241 46.8275 66.3959C46.515 66.6303 46.2181 66.8022 45.9369 66.9116C45.6556 67.0209 45.4056 67.0991 45.1869 67.1459C44.9369 67.2084 44.7025 67.2241 44.4838 67.1928C44.4056 66.9897 44.3353 66.7631 44.2728 66.5131C44.2103 66.2787 44.1635 65.9662 44.1322 65.5756C44.1166 65.185 44.1088 64.6928 44.1088 64.0991C44.1088 63.4897 44.1244 62.7162 44.1556 61.7787C44.0306 61.7631 43.8978 61.7553 43.7572 61.7553C43.6166 61.7397 43.4838 61.7162 43.3588 61.685C43.2494 61.435 43.1791 61.2162 43.1478 61.0287C43.1166 60.8412 43.101 60.685 43.101 60.56C43.101 60.4037 43.1166 60.2787 43.1478 60.185C43.2728 60.2006 43.3978 60.2162 43.5228 60.2319C43.6478 60.2319 43.765 60.2319 43.8744 60.2319C43.9994 60.2475 44.1166 60.2553 44.226 60.2553C44.2572 59.5366 44.2885 58.7944 44.3197 58.0287C44.3666 57.2475 44.3978 56.4897 44.4135 55.7553C44.4447 55.0209 44.4681 54.3178 44.4838 53.6459C44.515 52.9584 44.5385 52.3491 44.5541 51.8178C44.0853 52.1303 43.6713 52.5366 43.3119 53.0366C42.9681 53.5366 42.7416 54.1147 42.6322 54.7709C42.4291 54.7397 42.2572 54.6459 42.1166 54.4897C41.976 54.3178 41.8588 54.1459 41.765 53.9741C41.6556 53.7709 41.5619 53.5444 41.4838 53.2944C41.4056 52.9975 41.4056 52.7006 41.4838 52.4037C41.5463 52.0912 41.6556 51.8022 41.8119 51.5366C41.9681 51.2553 42.1478 51.0131 42.351 50.81C42.5541 50.5912 42.7494 50.4194 42.9369 50.2944C43.2806 50.0912 43.6244 49.9116 43.9681 49.7553C44.3119 49.5834 44.7025 49.4428 45.14 49.3334C45.3119 49.1616 45.4994 49.0053 45.7025 48.8647C45.9213 48.7241 46.1322 48.6381 46.3353 48.6069C46.5853 48.5444 46.726 48.7084 46.7572 49.0991C46.8978 49.0834 47.0463 49.0756 47.2025 49.0756C47.3588 49.06 47.5228 49.0522 47.6947 49.0522ZM46.4291 59.9506C46.851 59.8256 47.3119 59.6381 47.8119 59.3881C48.3119 59.1381 48.7806 58.81 49.2181 58.4037C49.6556 57.9819 50.0228 57.4662 50.3197 56.8569C50.6166 56.2475 50.765 55.5131 50.765 54.6537C50.765 53.9975 50.6478 53.4428 50.4135 52.9897C50.1947 52.5209 49.9056 52.1459 49.5463 51.8647C49.1869 51.5678 48.7885 51.3569 48.351 51.2319C47.9291 51.0912 47.5072 51.0209 47.0853 51.0209C47.0072 51.0209 46.9291 51.0209 46.851 51.0209C46.7728 51.0209 46.6947 51.0287 46.6166 51.0444C46.5697 51.5444 46.5463 52.0834 46.5463 52.6616C46.5463 53.0522 46.5385 53.5287 46.5228 54.0912C46.5072 54.6381 46.4916 55.2319 46.476 55.8725C46.4603 56.5131 46.4447 57.185 46.4291 57.8881C46.4291 58.5912 46.4291 59.2787 46.4291 59.9506ZM55.515 59.9741C55.3275 60.0366 55.1322 60.0287 54.9291 59.9506C54.7416 59.8569 54.5697 59.7162 54.4135 59.5287C54.2572 59.3412 54.1322 59.1225 54.0385 58.8725C53.9603 58.6225 53.9213 58.3569 53.9213 58.0756C54.1244 58.0444 54.3431 58.0131 54.5775 57.9819C54.8119 57.935 55.0306 57.8959 55.2338 57.8647C55.4681 57.8334 55.6947 57.8022 55.9135 57.7709C55.9291 56.8647 55.9447 56.0053 55.9603 55.1928C55.9916 54.3647 56.015 53.6303 56.0306 52.9897C56.0619 52.3334 56.0853 51.7866 56.101 51.3491C56.1322 50.8959 56.1556 50.5912 56.1713 50.435C56.1713 50.3569 56.2103 50.2787 56.2885 50.2006C56.4135 50.1069 56.5931 49.9741 56.8275 49.8022C57.0775 49.6303 57.3588 49.4741 57.6713 49.3334C57.9369 49.2241 58.1088 49.2631 58.1869 49.4506C58.2806 49.6225 58.3275 49.9584 58.3275 50.4584C58.2963 51.1616 58.265 52.1069 58.2338 53.2944C58.2025 54.4819 58.1713 55.8803 58.14 57.4897C58.39 57.4584 58.6322 57.435 58.8666 57.4194C59.101 57.4037 59.351 57.3881 59.6166 57.3725C60.3353 57.3412 61.0306 57.3022 61.7025 57.2553C62.39 57.2084 62.9916 57.2084 63.5072 57.2553C63.5853 55.0209 63.6088 53.3491 63.5775 52.2397C63.5463 51.1147 63.5306 50.4506 63.5306 50.2475C63.5306 50.1537 63.6322 50.0444 63.8353 49.9194C64.0385 49.7944 64.2572 49.685 64.4916 49.5912C64.7416 49.4819 64.9681 49.4116 65.1713 49.3803C65.3744 49.3334 65.4838 49.3412 65.4994 49.4037C65.515 49.5131 65.515 49.7866 65.4994 50.2241C65.4994 50.6616 65.4916 51.2787 65.476 52.0756C65.476 52.8569 65.476 53.8334 65.476 55.0053C65.4916 56.1772 65.5228 57.5444 65.5697 59.1069C65.5385 59.8256 65.5228 60.5756 65.5228 61.3569C65.5228 62.0287 65.5385 62.7787 65.5697 63.6069C65.601 64.435 65.6713 65.2709 65.7806 66.1147C65.5775 66.2866 65.3588 66.4194 65.1244 66.5131C64.89 66.6069 64.6635 66.685 64.4447 66.7475C64.1947 66.81 63.9447 66.8569 63.6947 66.8881C63.5541 66.9037 63.4369 66.8725 63.3431 66.7944C63.265 66.7319 63.2103 66.6459 63.1791 66.5366C63.1478 66.4428 63.1244 66.3412 63.1088 66.2319C63.1088 66.1225 63.1088 66.0209 63.1088 65.9272C63.1088 65.7241 63.1088 65.5287 63.1088 65.3412C63.1244 65.1694 63.14 65.0287 63.1556 64.9194C63.1869 64.2475 63.226 63.435 63.2728 62.4819C63.3197 61.5287 63.3666 60.4662 63.4135 59.2944C63.3041 59.2787 63.2025 59.2709 63.1088 59.2709C63.015 59.2553 62.9056 59.2397 62.7806 59.2241C62.0775 59.1772 61.3119 59.1772 60.4838 59.2241C59.6713 59.2709 58.8744 59.3491 58.0931 59.4584C58.0775 60.2241 58.0775 60.9506 58.0931 61.6381C58.1088 62.31 58.1244 62.9272 58.14 63.4897C58.1713 64.0366 58.2025 64.5131 58.2338 64.9194C58.265 65.31 58.2963 65.5991 58.3275 65.7866C58.3431 65.9428 58.3197 66.0522 58.2572 66.1147C58.1947 66.1928 58.101 66.2944 57.976 66.4194C57.8666 66.5444 57.7181 66.6616 57.5306 66.7709C57.3588 66.8959 57.1478 66.9975 56.8978 67.0756C56.6478 67.1694 56.3588 67.2162 56.0306 67.2162C55.8744 67.2162 55.7963 67.1459 55.7963 67.0053C55.7963 66.8022 55.7963 66.4819 55.7963 66.0444C55.8119 65.6069 55.8197 65.0756 55.8197 64.4506C55.8353 63.8256 55.8431 63.1303 55.8431 62.3647C55.8588 61.5834 55.8744 60.7553 55.89 59.8803C55.8119 59.8959 55.7416 59.9116 55.6791 59.9272C55.6322 59.9428 55.5775 59.9584 55.515 59.9741ZM73.8822 49.0522C74.476 49.0522 75.0931 49.1459 75.7338 49.3334C76.3744 49.5209 76.9603 49.8256 77.4916 50.2475C78.0385 50.6537 78.4838 51.1928 78.8275 51.8647C79.1713 52.5209 79.3431 53.3256 79.3431 54.2787C79.3431 55.1381 79.1791 55.9741 78.851 56.7866C78.5385 57.5991 78.0853 58.3412 77.4916 59.0131C76.9135 59.685 76.2103 60.2631 75.3822 60.7475C74.5541 61.2162 73.6322 61.5366 72.6166 61.7084C72.6166 62.3491 72.64 62.9037 72.6869 63.3725C72.7025 63.81 72.7181 64.185 72.7338 64.4975C72.765 64.7944 72.7885 65.0522 72.8041 65.2709C72.8353 65.4897 72.8666 65.685 72.8978 65.8569C72.9291 66.0444 72.9681 66.2241 73.015 66.3959C72.7025 66.6303 72.4056 66.8022 72.1244 66.9116C71.8431 67.0209 71.5931 67.0991 71.3744 67.1459C71.1244 67.2084 70.89 67.2241 70.6713 67.1928C70.5931 66.9897 70.5228 66.7631 70.4603 66.5131C70.3978 66.2787 70.351 65.9662 70.3197 65.5756C70.3041 65.185 70.2963 64.6928 70.2963 64.0991C70.2963 63.4897 70.3119 62.7162 70.3431 61.7787C70.2181 61.7631 70.0853 61.7553 69.9447 61.7553C69.8041 61.7397 69.6713 61.7162 69.5463 61.685C69.4369 61.435 69.3666 61.2162 69.3353 61.0287C69.3041 60.8412 69.2885 60.685 69.2885 60.56C69.2885 60.4037 69.3041 60.2787 69.3353 60.185C69.4603 60.2006 69.5853 60.2162 69.7103 60.2319C69.8353 60.2319 69.9525 60.2319 70.0619 60.2319C70.1869 60.2475 70.3041 60.2553 70.4135 60.2553C70.4447 59.5366 70.476 58.7944 70.5072 58.0287C70.5541 57.2475 70.5853 56.4897 70.601 55.7553C70.6322 55.0209 70.6556 54.3178 70.6713 53.6459C70.7025 52.9584 70.726 52.3491 70.7416 51.8178C70.2728 52.1303 69.8588 52.5366 69.4994 53.0366C69.1556 53.5366 68.9291 54.1147 68.8197 54.7709C68.6166 54.7397 68.4447 54.6459 68.3041 54.4897C68.1635 54.3178 68.0463 54.1459 67.9525 53.9741C67.8431 53.7709 67.7494 53.5444 67.6713 53.2944C67.5931 52.9975 67.5931 52.7006 67.6713 52.4037C67.7338 52.0912 67.8431 51.8022 67.9994 51.5366C68.1556 51.2553 68.3353 51.0131 68.5385 50.81C68.7416 50.5912 68.9369 50.4194 69.1244 50.2944C69.4681 50.0912 69.8119 49.9116 70.1556 49.7553C70.4994 49.5834 70.89 49.4428 71.3275 49.3334C71.4994 49.1616 71.6869 49.0053 71.89 48.8647C72.1088 48.7241 72.3197 48.6381 72.5228 48.6069C72.7728 48.5444 72.9135 48.7084 72.9447 49.0991C73.0853 49.0834 73.2338 49.0756 73.39 49.0756C73.5463 49.06 73.7103 49.0522 73.8822 49.0522ZM72.6166 59.9506C73.0385 59.8256 73.4994 59.6381 73.9994 59.3881C74.4994 59.1381 74.9681 58.81 75.4056 58.4037C75.8431 57.9819 76.2103 57.4662 76.5072 56.8569C76.8041 56.2475 76.9525 55.5131 76.9525 54.6537C76.9525 53.9975 76.8353 53.4428 76.601 52.9897C76.3822 52.5209 76.0931 52.1459 75.7338 51.8647C75.3744 51.5678 74.976 51.3569 74.5385 51.2319C74.1166 51.0912 73.6947 51.0209 73.2728 51.0209C73.1947 51.0209 73.1166 51.0209 73.0385 51.0209C72.9603 51.0209 72.8822 51.0287 72.8041 51.0444C72.7572 51.5444 72.7338 52.0834 72.7338 52.6616C72.7338 53.0522 72.726 53.5287 72.7103 54.0912C72.6947 54.6381 72.6791 55.2319 72.6635 55.8725C72.6478 56.5131 72.6322 57.185 72.6166 57.8881C72.6166 58.5912 72.6166 59.2787 72.6166 59.9506Z" fill="#B7C5F2" fill-opacity="0.33"/>
<path d="M3.85876 185.279C3.60876 185.362 3.34835 185.352 3.07751 185.247C2.82751 185.122 2.59835 184.935 2.39001 184.685C2.18168 184.435 2.01501 184.143 1.89001 183.81C1.78585 183.477 1.73376 183.122 1.73376 182.747C2.0046 182.706 2.29626 182.664 2.60876 182.622C2.92126 182.56 3.21293 182.508 3.48376 182.466C3.79626 182.425 4.09835 182.383 4.39001 182.341C4.41085 181.133 4.43168 179.987 4.45251 178.904C4.49418 177.8 4.52543 176.82 4.54626 175.966C4.58793 175.091 4.61918 174.362 4.64001 173.779C4.68168 173.175 4.71293 172.768 4.73376 172.56C4.73376 172.456 4.78585 172.352 4.89001 172.247C5.05668 172.122 5.29626 171.945 5.60876 171.716C5.9421 171.487 6.3171 171.279 6.73376 171.091C7.08793 170.945 7.3171 170.997 7.42126 171.247C7.54626 171.477 7.60876 171.925 7.60876 172.591C7.5671 173.529 7.52543 174.789 7.48376 176.372C7.4421 177.956 7.40043 179.82 7.35876 181.966C7.6921 181.925 8.01501 181.893 8.32751 181.872C8.64001 181.852 8.97335 181.831 9.32751 181.81C10.2858 181.768 11.2129 181.716 12.1088 181.654C13.0254 181.591 13.8275 181.591 14.515 181.654C14.6192 178.675 14.6504 176.445 14.6088 174.966C14.5671 173.466 14.5463 172.581 14.5463 172.31C14.5463 172.185 14.6817 172.039 14.9525 171.872C15.2233 171.706 15.515 171.56 15.8275 171.435C16.1608 171.289 16.4629 171.195 16.7338 171.154C17.0046 171.091 17.1504 171.102 17.1713 171.185C17.1921 171.331 17.1921 171.695 17.1713 172.279C17.1713 172.862 17.1608 173.685 17.14 174.747C17.14 175.789 17.14 177.091 17.14 178.654C17.1608 180.216 17.2025 182.039 17.265 184.122C17.2233 185.081 17.2025 186.081 17.2025 187.122C17.2025 188.018 17.2233 189.018 17.265 190.122C17.3067 191.227 17.4004 192.341 17.5463 193.466C17.2754 193.695 16.9838 193.872 16.6713 193.997C16.3588 194.122 16.0567 194.227 15.765 194.31C15.4317 194.393 15.0983 194.456 14.765 194.497C14.5775 194.518 14.4213 194.477 14.2963 194.372C14.1921 194.289 14.1192 194.175 14.0775 194.029C14.0358 193.904 14.0046 193.768 13.9838 193.622C13.9838 193.477 13.9838 193.341 13.9838 193.216C13.9838 192.945 13.9838 192.685 13.9838 192.435C14.0046 192.206 14.0254 192.018 14.0463 191.872C14.0879 190.977 14.14 189.893 14.2025 188.622C14.265 187.352 14.3275 185.935 14.39 184.372C14.2442 184.352 14.1088 184.341 13.9838 184.341C13.8588 184.32 13.7129 184.3 13.5463 184.279C12.6088 184.216 11.5879 184.216 10.4838 184.279C9.40043 184.341 8.33793 184.445 7.29626 184.591C7.27543 185.612 7.27543 186.581 7.29626 187.497C7.3171 188.393 7.33793 189.216 7.35876 189.966C7.40043 190.695 7.4421 191.331 7.48376 191.872C7.52543 192.393 7.5671 192.779 7.60876 193.029C7.6296 193.237 7.59835 193.383 7.51501 193.466C7.43168 193.57 7.30668 193.706 7.14001 193.872C6.99418 194.039 6.79626 194.195 6.54626 194.341C6.3171 194.508 6.03585 194.643 5.70251 194.747C5.36918 194.872 4.98376 194.935 4.54626 194.935C4.33793 194.935 4.23376 194.841 4.23376 194.654C4.23376 194.383 4.23376 193.956 4.23376 193.372C4.2546 192.789 4.26501 192.081 4.26501 191.247C4.28585 190.414 4.29626 189.487 4.29626 188.466C4.3171 187.425 4.33793 186.32 4.35876 185.154C4.2546 185.175 4.16085 185.195 4.07751 185.216C4.01501 185.237 3.9421 185.258 3.85876 185.279ZM20.015 174.904C19.9108 174.779 19.8275 174.633 19.765 174.466C19.7025 174.3 19.6504 174.133 19.6088 173.966C19.5671 173.779 19.5358 173.591 19.515 173.404V172.872C19.515 172.727 19.5254 172.591 19.5463 172.466C19.5671 172.32 19.6192 172.206 19.7025 172.122C20.3483 171.956 21.0463 171.831 21.7963 171.747C22.5463 171.643 23.2546 171.55 23.9213 171.466C24.6921 171.383 25.4525 171.31 26.2025 171.247C26.4108 171.102 26.5983 170.997 26.765 170.935C26.9317 170.872 27.0671 170.872 27.1713 170.935C27.2129 170.935 27.2546 171.018 27.2963 171.185H27.4213C28.1713 171.164 28.89 171.143 29.5775 171.122C30.1608 171.102 30.7338 171.102 31.2963 171.122C31.8796 171.122 32.3275 171.133 32.64 171.154C32.8067 171.175 32.9317 171.3 33.015 171.529C33.0983 171.758 33.1192 172.05 33.0775 172.404C33.0567 172.758 32.9629 173.143 32.7963 173.56C32.6296 173.977 32.3588 174.372 31.9838 174.747C31.5046 174.622 31.0046 174.539 30.4838 174.497C29.9629 174.435 29.4942 174.383 29.0775 174.341C28.5567 174.3 28.0671 174.279 27.6088 174.279H27.4525C27.4733 175.112 27.4838 176.039 27.4838 177.06C27.4838 178.06 27.4733 179.081 27.4525 180.122C27.4525 181.143 27.4421 182.154 27.4213 183.154C27.4004 184.133 27.3796 185.008 27.3588 185.779C27.3588 187.008 27.3588 188.07 27.3588 188.966C27.3588 189.841 27.39 190.591 27.4525 191.216C27.515 191.82 27.6088 192.31 27.7338 192.685C27.8588 193.06 28.0358 193.362 28.265 193.591C28.2442 193.612 28.1817 193.675 28.0775 193.779C27.9942 193.904 27.8692 194.029 27.7025 194.154C27.5567 194.279 27.3692 194.393 27.14 194.497C26.9317 194.602 26.6921 194.643 26.4213 194.622C25.7338 194.602 25.2233 194.372 24.89 193.935C24.5567 193.497 24.3275 192.883 24.2025 192.091C24.0775 191.3 24.0254 190.341 24.0463 189.216C24.0879 188.091 24.1504 186.81 24.2338 185.372C24.2963 184.393 24.3483 183.383 24.39 182.341C24.4525 181.3 24.5046 180.3 24.5463 179.341C24.6088 178.362 24.6608 177.456 24.7025 176.622C24.7442 175.768 24.7858 175.029 24.8275 174.404C24.3067 174.425 23.7754 174.466 23.2338 174.529C22.7546 174.57 22.2338 174.622 21.6713 174.685C21.1088 174.747 20.5567 174.82 20.015 174.904ZM51.0775 194.716C50.4525 194.695 50.0254 194.497 49.7963 194.122C49.5671 193.768 49.4317 193.268 49.39 192.622C49.3483 191.977 49.3692 191.216 49.4525 190.341C49.5358 189.445 49.5775 188.477 49.5775 187.435C49.5983 185.372 49.6713 183.497 49.7963 181.81C49.9421 180.102 49.9838 178.445 49.9213 176.841C49.9213 176.716 49.9213 176.602 49.9213 176.497C49.9213 176.393 49.9108 176.289 49.89 176.185C49.7858 176.539 49.6608 176.945 49.515 177.404C49.39 177.841 49.2338 178.331 49.0463 178.872C48.6713 180.039 48.2963 181.237 47.9213 182.466C47.5671 183.695 47.2129 184.893 46.8588 186.06C46.5254 187.206 46.2025 188.279 45.89 189.279C45.5983 190.258 45.3379 191.081 45.1088 191.747C44.8796 192.414 44.6504 192.904 44.4213 193.216C44.2129 193.55 43.9942 193.779 43.765 193.904C43.5567 194.029 43.3379 194.081 43.1088 194.06C42.9004 194.039 42.6921 194.018 42.4838 193.997C42.4004 193.289 42.2442 192.456 42.015 191.497C41.7858 190.539 41.5463 189.622 41.2963 188.747C41.0046 187.727 40.6817 186.685 40.3275 185.622C39.8483 183.789 39.3483 182.112 38.8275 180.591C38.3067 179.07 37.9004 177.82 37.6088 176.841C37.4838 177.904 37.39 179.122 37.3275 180.497C37.265 181.872 37.2233 183.247 37.2025 184.622C37.1817 185.997 37.1921 187.3 37.2338 188.529C37.2754 189.737 37.3379 190.716 37.4213 191.466C37.4421 191.779 37.4838 192.091 37.5463 192.404C37.5879 192.675 37.64 192.945 37.7025 193.216C37.7858 193.508 37.8796 193.768 37.9838 193.997C37.8796 194.081 37.7546 194.154 37.6088 194.216C37.4629 194.279 37.3067 194.331 37.14 194.372C36.9525 194.435 36.7546 194.487 36.5463 194.529C35.7338 194.695 35.14 194.675 34.765 194.466C34.4108 194.258 34.1921 193.841 34.1088 193.216C34.0671 192.904 34.0358 192.32 34.015 191.466C33.9942 190.612 33.9838 189.633 33.9838 188.529C34.0046 187.404 34.0358 186.227 34.0775 184.997C34.1192 183.768 34.1817 182.622 34.265 181.56C34.3483 180.706 34.4317 179.779 34.515 178.779C34.5983 177.904 34.6817 176.893 34.765 175.747C34.8483 174.602 34.9421 173.362 35.0463 172.029C35.1088 171.904 35.2129 171.8 35.3588 171.716C35.5046 171.612 35.6608 171.529 35.8275 171.466C36.015 171.383 36.2233 171.32 36.4525 171.279C36.8067 171.216 37.1192 171.164 37.39 171.122C37.6192 171.081 37.8275 171.05 38.015 171.029C38.2233 171.008 38.3067 171.008 38.265 171.029C38.5358 171.591 38.7442 172.06 38.89 172.435C39.0358 172.789 39.1817 173.216 39.3275 173.716C39.4942 174.216 39.6921 174.872 39.9213 175.685C40.1713 176.497 40.5254 177.633 40.9838 179.091C41.6088 181.112 42.14 182.872 42.5775 184.372C43.0358 185.872 43.3796 187.018 43.6088 187.81C43.7546 187.539 43.9004 187.247 44.0463 186.935C44.1921 186.602 44.3379 186.206 44.4838 185.747C44.6504 185.289 44.8171 184.758 44.9838 184.154C45.1713 183.529 45.3796 182.789 45.6088 181.935C45.9004 180.997 46.2025 179.987 46.515 178.904C46.765 177.987 47.0358 176.945 47.3275 175.779C47.64 174.591 47.9317 173.362 48.2025 172.091C48.8692 171.82 49.4108 171.622 49.8275 171.497C50.2442 171.352 50.5671 171.237 50.7963 171.154C51.0671 171.07 51.265 171.018 51.39 170.997C51.515 171.018 51.64 171.081 51.765 171.185C51.8692 171.289 51.9942 171.435 52.14 171.622C52.2858 171.81 52.4421 172.091 52.6088 172.466C52.6088 172.758 52.6088 173.227 52.6088 173.872C52.6088 174.518 52.6088 175.268 52.6088 176.122C52.6088 176.956 52.5983 177.862 52.5775 178.841C52.5567 179.82 52.5358 180.81 52.515 181.81C52.515 182.789 52.5046 183.747 52.4838 184.685C52.4838 185.622 52.4733 186.456 52.4525 187.185C52.4108 188.289 52.4004 189.227 52.4213 189.997C52.4629 190.768 52.5254 191.414 52.6088 191.935C52.7129 192.435 52.8379 192.841 52.9838 193.154C53.1504 193.466 53.3483 193.716 53.5775 193.904C53.515 193.945 53.39 194.008 53.2025 194.091C53.0358 194.195 52.8275 194.289 52.5775 194.372C52.3275 194.477 52.0671 194.56 51.7963 194.622C51.5254 194.685 51.2858 194.716 51.0775 194.716ZM56.3275 193.622C56.4108 193.352 56.4838 192.893 56.5463 192.247C56.6296 191.622 56.6921 190.987 56.7338 190.341C56.7963 189.591 56.8483 188.779 56.89 187.904C56.9525 187.258 57.0046 186.445 57.0463 185.466C57.0879 184.487 57.1192 183.445 57.14 182.341C57.1608 181.237 57.1713 180.122 57.1713 178.997C57.1713 177.852 57.1608 176.789 57.14 175.81C57.1192 174.831 57.0775 173.987 57.015 173.279C56.9733 172.57 56.9108 172.091 56.8275 171.841C57.2233 171.612 57.5775 171.445 57.89 171.341C58.2025 171.237 58.4733 171.164 58.7025 171.122C58.9525 171.06 59.1817 171.039 59.39 171.06C59.5567 171.081 59.7233 171.112 59.89 171.154C60.0358 171.195 60.1713 171.258 60.2963 171.341C60.4213 171.404 60.515 171.497 60.5775 171.622C60.5358 172.935 60.4838 174.258 60.4213 175.591C60.3796 176.904 60.3275 178.112 60.265 179.216C60.1817 180.508 60.0983 181.747 60.015 182.935C59.9525 184.185 59.89 185.268 59.8275 186.185C59.7858 187.081 59.7442 187.872 59.7025 188.56C59.6608 189.227 59.6296 189.831 59.6088 190.372C59.5879 190.893 59.5775 191.414 59.5775 191.935C60.0775 191.831 60.6713 191.716 61.3588 191.591C62.0463 191.445 62.8275 191.3 63.7025 191.154C64.5358 191.029 65.2338 190.997 65.7963 191.06C66.3588 191.102 66.8067 191.227 67.14 191.435C67.4733 191.622 67.7025 191.862 67.8275 192.154C67.9525 192.466 68.0046 192.81 67.9838 193.185C67.9421 193.602 67.9108 193.925 67.89 194.154C67.8692 194.383 67.8588 194.56 67.8588 194.685C67.6296 194.539 67.3171 194.435 66.9213 194.372C66.5254 194.31 66.1296 194.258 65.7338 194.216C65.2754 194.175 64.7963 194.164 64.2963 194.185C63.7546 194.206 63.1608 194.247 62.515 194.31C61.9733 194.352 61.3379 194.414 60.6088 194.497C59.8796 194.581 59.1192 194.706 58.3275 194.872C57.765 194.477 57.2963 194.164 56.9213 193.935C56.6921 193.81 56.4942 193.706 56.3275 193.622Z" fill="#B7C5F2" fill-opacity="0.75"/>
<path d="M275.781 89.81C274.656 89.81 273.635 89.5287 272.718 88.9662C271.801 88.4246 271.02 87.6746 270.374 86.7162C269.749 85.7579 269.26 84.6329 268.906 83.3412C268.572 82.0496 268.406 80.6537 268.406 79.1537C268.406 77.0079 268.656 75.0912 269.156 73.4037C269.656 71.7162 270.312 70.2892 271.124 69.1225C271.958 67.9558 272.895 67.06 273.937 66.435C274.999 65.81 276.083 65.4975 277.187 65.4975C278.229 65.4975 279.104 65.685 279.812 66.06C280.52 66.435 281.083 66.9142 281.499 67.4975C281.937 68.0808 282.229 68.7267 282.374 69.435C282.541 70.1225 282.593 70.7787 282.531 71.4037C282.426 72.6121 282.01 73.5912 281.281 74.3412C280.572 75.0912 279.749 75.4662 278.812 75.4662C278.499 75.4454 278.176 75.3933 277.843 75.31C277.551 75.2267 277.249 75.1017 276.937 74.935C276.624 74.7683 276.333 74.5287 276.062 74.2162C276.937 74.2787 277.614 74.1017 278.093 73.685C278.572 73.2683 278.926 72.7996 279.156 72.2787C279.406 71.6746 279.551 70.9662 279.593 70.1537C279.593 69.6954 279.52 69.2996 279.374 68.9662C279.229 68.6121 279.031 68.3308 278.781 68.1225C278.551 67.8933 278.301 67.7267 278.031 67.6225C277.76 67.5183 277.499 67.4662 277.249 67.4662C276.687 67.4662 276.072 67.685 275.406 68.1225C274.76 68.56 274.145 69.2267 273.562 70.1225C272.979 70.9975 272.489 72.1225 272.093 73.4975C271.718 74.8517 271.531 76.4662 271.531 78.3412C271.531 80.1954 271.697 81.7162 272.031 82.9037C272.364 84.0704 272.77 84.9871 273.249 85.6537C273.729 86.2996 274.229 86.7475 274.749 86.9975C275.291 87.2267 275.749 87.3412 276.124 87.3412C276.854 87.2787 277.52 87.0287 278.124 86.5912C278.645 86.2162 279.135 85.6225 279.593 84.81C280.072 83.9767 280.395 82.7892 280.562 81.2475C280.833 81.2683 281.051 81.3308 281.218 81.435C281.406 81.5392 281.562 81.6433 281.687 81.7475C281.812 81.8725 281.926 82.0183 282.031 82.185C282.051 82.2058 282.051 82.4142 282.031 82.81C282.01 83.2058 281.937 83.685 281.812 84.2475C281.687 84.81 281.489 85.4142 281.218 86.06C280.968 86.7058 280.604 87.31 280.124 87.8725C279.666 88.435 279.083 88.8933 278.374 89.2475C277.666 89.6225 276.801 89.81 275.781 89.81ZM289.437 81.4037C289.083 81.6954 288.885 82.2162 288.843 82.9662C288.822 83.6954 288.947 84.4454 289.218 85.2162C289.51 85.9662 289.947 86.6329 290.531 87.2162C291.114 87.7996 291.843 88.0912 292.718 88.0912C293.281 88.0912 293.76 87.9558 294.156 87.685C294.572 87.4142 294.906 87.0808 295.156 86.685C295.426 86.2683 295.624 85.81 295.749 85.31C295.874 84.81 295.937 84.3204 295.937 83.8412C295.937 83.1537 295.801 82.5808 295.531 82.1225C295.281 81.6642 294.937 81.2683 294.499 80.935C294.083 80.5808 293.593 80.2892 293.031 80.06C292.489 79.81 291.937 79.56 291.374 79.31C290.854 79.1017 290.229 78.8412 289.499 78.5287C288.77 78.1954 288.072 77.7683 287.406 77.2475C286.739 76.7058 286.166 76.0496 285.687 75.2787C285.229 74.4871 284.999 73.5183 284.999 72.3725C284.999 71.6225 285.197 70.8621 285.593 70.0912C285.989 69.3204 286.551 68.6225 287.281 67.9975C288.01 67.3517 288.885 66.8308 289.906 66.435C290.947 66.0392 292.114 65.8412 293.406 65.8412C294.676 65.8412 295.708 65.9558 296.499 66.185C297.291 66.4142 297.906 66.7162 298.343 67.0912C298.781 67.4454 299.072 67.8412 299.218 68.2787C299.385 68.6954 299.468 69.0912 299.468 69.4662C299.468 69.8412 299.354 70.2267 299.124 70.6225C298.895 70.9975 298.624 71.3517 298.312 71.685C297.999 71.9975 297.676 72.2787 297.343 72.5287C297.01 72.7579 296.739 72.9142 296.531 72.9975C296.635 72.7267 296.739 72.3517 296.843 71.8725C296.947 71.3933 296.916 70.9142 296.749 70.435C296.604 69.9558 296.239 69.5392 295.656 69.185C295.093 68.8308 294.176 68.6537 292.906 68.6537C292.176 68.6537 291.468 68.7683 290.781 68.9975C290.093 69.2267 289.479 69.5287 288.937 69.9037C288.416 70.2579 287.999 70.6642 287.687 71.1225C287.374 71.5808 287.218 72.0496 287.218 72.5287C287.218 72.9871 287.374 73.4142 287.687 73.81C288.02 74.185 288.458 74.5496 288.999 74.9037C289.562 75.2371 290.197 75.5704 290.906 75.9037C291.635 76.2371 292.395 76.5704 293.187 76.9037C293.958 77.2371 294.718 77.6017 295.468 77.9975C296.218 78.3725 296.885 78.81 297.468 79.31C298.072 79.81 298.551 80.3725 298.906 80.9975C299.26 81.6225 299.437 82.3412 299.437 83.1537C299.437 84.0287 299.27 84.8725 298.937 85.685C298.624 86.4767 298.166 87.1746 297.562 87.7787C296.979 88.3829 296.26 88.8621 295.406 89.2162C294.551 89.5912 293.583 89.7787 292.499 89.7787C291.541 89.7787 290.635 89.6225 289.781 89.31C288.926 88.9975 288.176 88.5912 287.531 88.0912C286.906 87.5912 286.406 87.0392 286.031 86.435C285.656 85.8308 285.468 85.2371 285.468 84.6537C285.468 84.0287 285.604 83.4975 285.874 83.06C286.166 82.6225 286.52 82.2787 286.937 82.0287C287.354 81.7579 287.781 81.5704 288.218 81.4662C288.676 81.3621 289.083 81.3412 289.437 81.4037ZM306.687 81.4037C306.333 81.6954 306.135 82.2162 306.093 82.9662C306.072 83.6954 306.197 84.4454 306.468 85.2162C306.76 85.9662 307.197 86.6329 307.781 87.2162C308.364 87.7996 309.093 88.0912 309.968 88.0912C310.531 88.0912 311.01 87.9558 311.406 87.685C311.822 87.4142 312.156 87.0808 312.406 86.685C312.676 86.2683 312.874 85.81 312.999 85.31C313.124 84.81 313.187 84.3204 313.187 83.8412C313.187 83.1537 313.051 82.5808 312.781 82.1225C312.531 81.6642 312.187 81.2683 311.749 80.935C311.333 80.5808 310.843 80.2892 310.281 80.06C309.739 79.81 309.187 79.56 308.624 79.31C308.104 79.1017 307.479 78.8412 306.749 78.5287C306.02 78.1954 305.322 77.7683 304.656 77.2475C303.989 76.7058 303.416 76.0496 302.937 75.2787C302.479 74.4871 302.249 73.5183 302.249 72.3725C302.249 71.6225 302.447 70.8621 302.843 70.0912C303.239 69.3204 303.801 68.6225 304.531 67.9975C305.26 67.3517 306.135 66.8308 307.156 66.435C308.197 66.0392 309.364 65.8412 310.656 65.8412C311.926 65.8412 312.958 65.9558 313.749 66.185C314.541 66.4142 315.156 66.7162 315.593 67.0912C316.031 67.4454 316.322 67.8412 316.468 68.2787C316.635 68.6954 316.718 69.0912 316.718 69.4662C316.718 69.8412 316.604 70.2267 316.374 70.6225C316.145 70.9975 315.874 71.3517 315.562 71.685C315.249 71.9975 314.926 72.2787 314.593 72.5287C314.26 72.7579 313.989 72.9142 313.781 72.9975C313.885 72.7267 313.989 72.3517 314.093 71.8725C314.197 71.3933 314.166 70.9142 313.999 70.435C313.854 69.9558 313.489 69.5392 312.906 69.185C312.343 68.8308 311.426 68.6537 310.156 68.6537C309.426 68.6537 308.718 68.7683 308.031 68.9975C307.343 69.2267 306.729 69.5287 306.187 69.9037C305.666 70.2579 305.249 70.6642 304.937 71.1225C304.624 71.5808 304.468 72.0496 304.468 72.5287C304.468 72.9871 304.624 73.4142 304.937 73.81C305.27 74.185 305.708 74.5496 306.249 74.9037C306.812 75.2371 307.447 75.5704 308.156 75.9037C308.885 76.2371 309.645 76.5704 310.437 76.9037C311.208 77.2371 311.968 77.6017 312.718 77.9975C313.468 78.3725 314.135 78.81 314.718 79.31C315.322 79.81 315.801 80.3725 316.156 80.9975C316.51 81.6225 316.687 82.3412 316.687 83.1537C316.687 84.0287 316.52 84.8725 316.187 85.685C315.874 86.4767 315.416 87.1746 314.812 87.7787C314.229 88.3829 313.51 88.8621 312.656 89.2162C311.801 89.5912 310.833 89.7787 309.749 89.7787C308.791 89.7787 307.885 89.6225 307.031 89.31C306.176 88.9975 305.426 88.5912 304.781 88.0912C304.156 87.5912 303.656 87.0392 303.281 86.435C302.906 85.8308 302.718 85.2371 302.718 84.6537C302.718 84.0287 302.854 83.4975 303.124 83.06C303.416 82.6225 303.77 82.2787 304.187 82.0287C304.604 81.7579 305.031 81.5704 305.468 81.4662C305.926 81.3621 306.333 81.3412 306.687 81.4037Z" fill="#B7C5F2" fill-opacity="0.47"/>
<path d="M102.988 268.06C102.636 266.771 102.382 265.71 102.226 264.876C102.07 264.043 101.959 263.386 101.894 262.904C101.842 262.409 101.822 262.057 101.835 261.849C101.848 261.628 101.855 261.491 101.855 261.439C101.842 261.231 101.868 261.009 101.933 260.775C102.011 260.54 102.193 260.345 102.48 260.189C102.818 259.968 103.131 259.844 103.417 259.818C103.717 259.779 103.88 259.772 103.906 259.798C103.841 259.942 103.801 260.104 103.788 260.287C103.775 260.469 103.788 260.736 103.828 261.087C103.867 261.426 103.925 261.888 104.003 262.474C104.094 263.047 104.212 263.809 104.355 264.759C104.459 265.462 104.57 266.146 104.687 266.81C104.817 267.474 104.941 268.106 105.058 268.705C105.188 269.29 105.312 269.837 105.429 270.345C105.546 270.853 105.657 271.302 105.761 271.693C105.839 271.354 105.917 270.964 105.995 270.521C106.087 270.065 106.178 269.583 106.269 269.076C106.373 268.568 106.484 268.047 106.601 267.513C106.731 266.979 106.868 266.452 107.011 265.931C107.154 265.293 107.311 264.649 107.48 263.997C107.623 263.438 107.786 262.839 107.968 262.201C108.163 261.55 108.372 260.951 108.593 260.404C108.906 260.221 109.199 260.104 109.472 260.052C109.759 260 110.006 259.987 110.214 260.013C110.449 260.039 110.67 260.091 110.878 260.169C110.748 260.443 110.611 260.762 110.468 261.126C110.325 261.478 110.182 261.849 110.038 262.24C109.908 262.617 109.778 263.008 109.648 263.412C109.518 263.815 109.394 264.206 109.277 264.583C109.003 265.482 108.73 266.4 108.456 267.337C108.235 268.119 108.02 268.913 107.812 269.72C107.63 270.41 107.441 271.152 107.245 271.947C107.063 272.741 106.9 273.49 106.757 274.193C106.757 274.258 106.679 274.33 106.523 274.408C106.38 274.486 106.204 274.551 105.995 274.603C105.8 274.668 105.585 274.707 105.351 274.72C105.13 274.746 104.934 274.727 104.765 274.662C104.531 274.063 104.309 273.386 104.101 272.63C103.893 271.862 103.704 271.139 103.535 270.462C103.339 269.668 103.157 268.867 102.988 268.06ZM113.617 269.681C113.656 270.319 113.753 270.866 113.91 271.322C114.066 271.777 114.255 272.149 114.476 272.435C114.697 272.721 114.938 272.93 115.199 273.06C115.459 273.203 115.706 273.275 115.941 273.275C116.188 273.275 116.436 273.197 116.683 273.04C116.943 272.871 117.178 272.624 117.386 272.298C117.594 271.96 117.757 271.55 117.874 271.068C117.992 270.573 118.037 269.994 118.011 269.33C118.011 268.718 117.998 267.988 117.972 267.142C117.946 266.413 117.907 265.514 117.855 264.447C117.816 263.379 117.751 262.122 117.66 260.677C117.647 260.586 117.712 260.488 117.855 260.384C118.011 260.267 118.193 260.169 118.402 260.091C118.623 260.013 118.844 259.961 119.066 259.935C119.287 259.909 119.469 259.935 119.613 260.013C119.717 261.172 119.788 262.285 119.828 263.353C119.88 264.421 119.912 265.365 119.925 266.185C119.938 267.149 119.938 268.053 119.925 268.9C119.964 269.928 119.867 270.814 119.632 271.556C119.398 272.298 119.079 272.904 118.675 273.372C118.272 273.854 117.816 274.212 117.308 274.447C116.8 274.681 116.292 274.798 115.785 274.798C115.029 274.811 114.385 274.662 113.851 274.349C113.317 274.037 112.881 273.555 112.542 272.904C112.217 272.253 111.976 271.439 111.82 270.462C111.663 269.486 111.585 268.34 111.585 267.025C111.572 266.387 111.592 265.723 111.644 265.033C111.683 264.447 111.742 263.802 111.82 263.099C111.898 262.383 112.015 261.686 112.171 261.009C112.158 260.71 112.256 260.488 112.464 260.345C112.686 260.202 112.926 260.098 113.187 260.033C113.486 259.968 113.831 259.942 114.222 259.955C114.027 261.53 113.884 262.923 113.792 264.134C113.714 265.345 113.662 266.361 113.636 267.181C113.597 268.145 113.591 268.978 113.617 269.681ZM122.663 262.22C122.585 262.142 122.52 262.051 122.468 261.947C122.429 261.843 122.397 261.745 122.37 261.654C122.331 261.55 122.312 261.439 122.312 261.322C122.299 261.218 122.299 261.113 122.312 261.009C122.325 260.931 122.338 260.853 122.351 260.775C122.364 260.684 122.397 260.619 122.449 260.58C122.553 260.553 122.67 260.534 122.8 260.521C122.943 260.495 123.074 260.469 123.191 260.443C123.334 260.417 123.477 260.391 123.62 260.365C123.673 260.287 123.777 260.208 123.933 260.13C124.102 260.039 124.278 259.961 124.46 259.896C124.656 259.831 124.838 259.785 125.007 259.759C125.176 259.72 125.294 259.72 125.359 259.759V260.169C125.697 260.13 126.049 260.098 126.413 260.072C126.778 260.033 127.169 260.013 127.585 260.013C128.093 260 128.568 259.987 129.011 259.974C129.389 259.961 129.766 259.961 130.144 259.974C130.535 259.974 130.834 259.981 131.042 259.994C131.147 260.007 131.225 260.085 131.277 260.228C131.342 260.358 131.361 260.527 131.335 260.736C131.322 260.944 131.257 261.172 131.14 261.419C131.023 261.667 130.841 261.901 130.593 262.122C130.281 262.057 129.955 262.005 129.617 261.966C129.278 261.927 128.966 261.895 128.679 261.869C128.341 261.843 128.015 261.836 127.703 261.849C127.299 261.849 126.902 261.862 126.511 261.888C126.12 261.901 125.743 261.921 125.378 261.947C125.391 262.585 125.398 263.314 125.398 264.134C125.411 264.942 125.424 265.762 125.437 266.595C125.606 266.582 125.775 266.569 125.945 266.556C126.114 266.543 126.29 266.53 126.472 266.517C126.941 266.491 127.397 266.465 127.839 266.439C128.295 266.413 128.686 266.426 129.011 266.478C129.35 266.517 129.604 266.615 129.773 266.771C129.942 266.927 129.981 267.175 129.89 267.513L129.617 268.451C129.591 268.386 129.519 268.333 129.402 268.294C129.298 268.242 129.174 268.203 129.031 268.177C128.874 268.138 128.699 268.106 128.503 268.08C128.048 268.027 127.546 268.021 126.999 268.06C126.453 268.099 125.932 268.158 125.437 268.236V268.255C125.45 269.401 125.443 270.352 125.417 271.107C125.404 271.862 125.385 272.448 125.359 272.865C125.528 272.839 125.691 272.819 125.847 272.806C126.016 272.793 126.192 272.774 126.374 272.747C126.843 272.708 127.331 272.682 127.839 272.669C128.269 272.656 128.744 272.656 129.265 272.669C129.799 272.669 130.313 272.702 130.808 272.767C130.886 272.897 130.912 273.067 130.886 273.275C130.86 273.483 130.814 273.685 130.749 273.88C130.671 274.115 130.574 274.362 130.456 274.622C129.87 274.557 129.304 274.512 128.757 274.486C128.21 274.46 127.722 274.44 127.292 274.427C126.785 274.414 126.309 274.414 125.867 274.427C125.059 274.401 124.421 274.44 123.953 274.544C123.484 274.662 123.152 274.746 122.956 274.798C122.826 274.837 122.729 274.818 122.663 274.74C122.598 274.662 122.527 274.531 122.449 274.349C122.37 274.18 122.344 273.939 122.37 273.626C122.37 273.6 122.377 273.561 122.39 273.509C122.403 273.47 122.442 273.438 122.507 273.412C122.585 273.386 122.709 273.353 122.878 273.314C123.048 273.275 123.256 273.229 123.503 273.177C123.529 272.643 123.549 271.966 123.562 271.146C123.575 270.326 123.594 269.492 123.62 268.646C123.399 268.607 123.204 268.431 123.035 268.119C122.865 267.793 122.787 267.435 122.8 267.044C122.878 267.018 122.963 266.999 123.054 266.986C123.158 266.973 123.256 266.953 123.347 266.927C123.451 266.901 123.555 266.882 123.66 266.869C123.673 266.53 123.679 266.224 123.679 265.951C123.679 265.677 123.686 265.436 123.699 265.228C123.725 264.681 123.731 264.141 123.718 263.607C123.705 263.06 123.692 262.559 123.679 262.103C123.562 262.116 123.438 262.129 123.308 262.142C123.204 262.155 123.093 262.168 122.976 262.181C122.859 262.194 122.755 262.207 122.663 262.22Z" fill="#B7C5F2" fill-opacity="0.5"/>
<path d="M282.517 231.72C283.012 231.72 283.526 231.798 284.06 231.955C284.594 232.111 285.082 232.365 285.525 232.716C285.981 233.055 286.352 233.504 286.638 234.064C286.925 234.611 287.068 235.281 287.068 236.076C287.068 236.792 286.931 237.488 286.658 238.165C286.397 238.843 286.02 239.461 285.525 240.021C285.043 240.581 284.457 241.063 283.767 241.466C283.077 241.857 282.309 242.124 281.462 242.267C281.462 242.801 281.482 243.263 281.521 243.654C281.534 244.018 281.547 244.331 281.56 244.591C281.586 244.839 281.606 245.053 281.619 245.236C281.645 245.418 281.671 245.581 281.697 245.724C281.723 245.88 281.755 246.03 281.794 246.173C281.534 246.369 281.286 246.512 281.052 246.603C280.818 246.694 280.609 246.759 280.427 246.798C280.219 246.85 280.023 246.863 279.841 246.837C279.776 246.668 279.717 246.479 279.665 246.271C279.613 246.076 279.574 245.815 279.548 245.49C279.535 245.164 279.529 244.754 279.529 244.259C279.529 243.751 279.542 243.107 279.568 242.326C279.464 242.313 279.353 242.306 279.236 242.306C279.119 242.293 279.008 242.274 278.904 242.247C278.813 242.039 278.754 241.857 278.728 241.701C278.702 241.544 278.689 241.414 278.689 241.31C278.689 241.18 278.702 241.076 278.728 240.997C278.832 241.011 278.936 241.024 279.04 241.037C279.145 241.037 279.242 241.037 279.333 241.037C279.438 241.05 279.535 241.056 279.626 241.056C279.652 240.457 279.678 239.839 279.704 239.201C279.744 238.55 279.77 237.918 279.783 237.306C279.809 236.694 279.828 236.108 279.841 235.548C279.867 234.975 279.887 234.468 279.9 234.025C279.509 234.285 279.164 234.624 278.865 235.04C278.578 235.457 278.389 235.939 278.298 236.486C278.129 236.46 277.986 236.382 277.869 236.251C277.751 236.108 277.654 235.965 277.576 235.822C277.484 235.652 277.406 235.464 277.341 235.255C277.276 235.008 277.276 234.761 277.341 234.513C277.393 234.253 277.484 234.012 277.615 233.79C277.745 233.556 277.895 233.354 278.064 233.185C278.233 233.003 278.396 232.859 278.552 232.755C278.839 232.586 279.125 232.436 279.411 232.306C279.698 232.163 280.023 232.046 280.388 231.955C280.531 231.811 280.688 231.681 280.857 231.564C281.039 231.447 281.215 231.375 281.384 231.349C281.592 231.297 281.71 231.434 281.736 231.759C281.853 231.746 281.977 231.74 282.107 231.74C282.237 231.727 282.374 231.72 282.517 231.72ZM281.462 240.802C281.814 240.698 282.198 240.542 282.615 240.333C283.031 240.125 283.422 239.852 283.786 239.513C284.151 239.162 284.457 238.732 284.704 238.224C284.952 237.716 285.076 237.104 285.076 236.388C285.076 235.841 284.978 235.379 284.783 235.001C284.6 234.611 284.359 234.298 284.06 234.064C283.76 233.817 283.428 233.641 283.064 233.537C282.712 233.419 282.361 233.361 282.009 233.361C281.944 233.361 281.879 233.361 281.814 233.361C281.749 233.361 281.684 233.367 281.619 233.38C281.579 233.797 281.56 234.246 281.56 234.728C281.56 235.053 281.553 235.451 281.54 235.919C281.527 236.375 281.514 236.87 281.501 237.404C281.488 237.938 281.475 238.497 281.462 239.083C281.462 239.669 281.462 240.242 281.462 240.802ZM290.607 241.681C290.646 242.319 290.744 242.866 290.9 243.322C291.056 243.777 291.245 244.149 291.466 244.435C291.688 244.721 291.928 244.93 292.189 245.06C292.449 245.203 292.697 245.275 292.931 245.275C293.178 245.275 293.426 245.197 293.673 245.04C293.934 244.871 294.168 244.624 294.376 244.298C294.585 243.96 294.747 243.55 294.865 243.068C294.982 242.573 295.027 241.994 295.001 241.33C295.001 240.718 294.988 239.988 294.962 239.142C294.936 238.413 294.897 237.514 294.845 236.447C294.806 235.379 294.741 234.122 294.65 232.677C294.637 232.586 294.702 232.488 294.845 232.384C295.001 232.267 295.184 232.169 295.392 232.091C295.613 232.013 295.835 231.961 296.056 231.935C296.277 231.909 296.46 231.935 296.603 232.013C296.707 233.172 296.779 234.285 296.818 235.353C296.87 236.421 296.902 237.365 296.915 238.185C296.928 239.149 296.928 240.053 296.915 240.9C296.954 241.928 296.857 242.814 296.622 243.556C296.388 244.298 296.069 244.904 295.665 245.372C295.262 245.854 294.806 246.212 294.298 246.447C293.79 246.681 293.283 246.798 292.775 246.798C292.02 246.811 291.375 246.662 290.841 246.349C290.307 246.037 289.871 245.555 289.533 244.904C289.207 244.253 288.966 243.439 288.81 242.462C288.654 241.486 288.576 240.34 288.576 239.025C288.563 238.387 288.582 237.723 288.634 237.033C288.673 236.447 288.732 235.802 288.81 235.099C288.888 234.383 289.005 233.686 289.161 233.009C289.148 232.71 289.246 232.488 289.454 232.345C289.676 232.202 289.917 232.098 290.177 232.033C290.477 231.968 290.822 231.942 291.212 231.955C291.017 233.53 290.874 234.923 290.783 236.134C290.704 237.345 290.652 238.361 290.626 239.181C290.587 240.145 290.581 240.978 290.607 241.681ZM303.814 246.662C303.202 246.662 302.629 246.499 302.095 246.173C301.574 245.848 301.112 245.379 300.708 244.767C300.305 244.155 299.986 243.413 299.751 242.54C299.53 241.655 299.419 240.659 299.419 239.552C299.419 238.445 299.569 237.417 299.869 236.466C300.168 235.516 300.565 234.689 301.06 233.986C301.555 233.283 302.128 232.736 302.779 232.345C303.443 231.942 304.126 231.74 304.829 231.74C305.546 231.74 306.132 231.837 306.587 232.033C307.043 232.228 307.401 232.495 307.661 232.833C307.922 233.159 308.098 233.543 308.189 233.986C308.28 234.428 308.313 234.891 308.286 235.372C308.273 235.685 308.208 236.004 308.091 236.33C307.974 236.642 307.831 236.922 307.661 237.169C307.492 237.417 307.31 237.606 307.115 237.736C306.919 237.866 306.731 237.892 306.548 237.814C306.405 237.775 306.249 237.729 306.079 237.677C305.767 237.573 305.396 237.423 304.966 237.228C305.227 237.046 305.467 236.837 305.689 236.603C305.871 236.395 306.034 236.141 306.177 235.841C306.333 235.542 306.411 235.197 306.411 234.806C306.411 234.468 306.366 234.181 306.275 233.947C306.197 233.699 306.086 233.504 305.943 233.361C305.813 233.205 305.663 233.094 305.494 233.029C305.324 232.951 305.155 232.912 304.986 232.912C304.556 232.912 304.126 233.081 303.697 233.419C303.28 233.758 302.902 234.233 302.564 234.845C302.238 235.444 301.971 236.16 301.763 236.994C301.555 237.827 301.451 238.732 301.451 239.708C301.451 240.477 301.522 241.193 301.665 241.857C301.822 242.508 302.023 243.074 302.271 243.556C302.518 244.025 302.805 244.396 303.13 244.669C303.469 244.93 303.827 245.06 304.204 245.06C304.491 245.06 304.764 244.982 305.025 244.826C305.285 244.669 305.507 244.455 305.689 244.181C305.871 243.908 306.014 243.576 306.119 243.185C306.236 242.794 306.294 242.365 306.294 241.896C306.294 241.466 306.281 241.134 306.255 240.9C306.242 240.652 306.223 240.47 306.197 240.353C306.184 240.223 306.164 240.145 306.138 240.119C306.125 240.093 306.119 240.08 306.119 240.08C306.132 240.08 306.236 240.086 306.431 240.099C306.626 240.112 306.841 240.145 307.076 240.197C307.323 240.236 307.551 240.307 307.759 240.412C307.967 240.503 308.104 240.633 308.169 240.802C308.221 240.971 308.254 241.29 308.267 241.759C308.28 242.215 308.273 242.723 308.247 243.283C308.234 243.83 308.215 244.376 308.189 244.923C308.176 245.47 308.169 245.919 308.169 246.271C308.169 246.362 308.078 246.466 307.896 246.583C307.727 246.701 307.531 246.798 307.31 246.876C307.102 246.968 306.906 247.02 306.724 247.033C306.542 247.046 306.444 247 306.431 246.896V245.665V245.04C306.223 245.457 305.91 245.828 305.494 246.154C305.077 246.492 304.517 246.662 303.814 246.662Z" fill="#B7C5F2" fill-opacity="0.7"/>
<path d="M455.316 216.472C454.52 216.472 453.843 216.303 453.285 215.964C452.743 215.626 452.303 215.194 451.964 214.669C451.643 214.162 451.406 213.586 451.253 212.943C451.118 212.3 451.05 211.673 451.05 211.064C451.05 210.539 451.118 210.048 451.253 209.591C451.406 209.117 451.541 208.796 451.66 208.626C451.744 208.508 451.854 208.381 451.99 208.246C452.125 208.11 452.32 208.017 452.574 207.966C452.844 207.915 453.115 207.856 453.386 207.789C453.623 207.738 453.852 207.695 454.072 207.662C454.309 207.628 454.52 207.594 454.706 207.56C454.453 207.848 454.241 208.178 454.072 208.55C453.902 208.923 453.775 209.312 453.691 209.718C453.606 210.108 453.547 210.488 453.513 210.861C453.479 211.233 453.479 211.572 453.513 211.876C453.564 212.723 453.809 213.417 454.249 213.958C454.706 214.483 455.206 214.746 455.747 214.746C456.171 214.746 456.535 214.619 456.839 214.365C457.144 214.128 457.398 213.815 457.601 213.425C457.804 213.036 457.965 212.587 458.083 212.08C458.202 211.572 458.286 211.064 458.337 210.556C458.388 210.031 458.422 209.524 458.439 209.033C458.456 208.525 458.464 208.085 458.464 207.712C458.464 207.086 458.43 206.4 458.363 205.656C458.312 204.911 458.244 204.166 458.16 203.421C458.075 202.677 457.982 201.974 457.88 201.314C457.796 200.637 457.719 200.07 457.652 199.613C456.975 199.714 456.399 199.841 455.925 199.994C455.451 200.146 455.011 200.273 454.605 200.374C454.419 200.408 454.3 200.374 454.249 200.273C453.962 199.799 453.809 199.376 453.792 199.003C453.775 198.631 453.792 198.352 453.843 198.165C453.86 198.081 453.953 198.005 454.122 197.937C454.732 197.734 455.519 197.539 456.484 197.353C457.449 197.167 458.54 197.048 459.759 196.997C460.098 196.997 460.419 197.006 460.724 197.023C460.995 197.04 461.274 197.074 461.562 197.124C461.867 197.175 462.137 197.251 462.374 197.353C462.476 197.438 462.552 197.548 462.603 197.683C462.654 197.802 462.696 197.928 462.73 198.064C462.764 198.233 462.781 198.402 462.781 198.572C462.781 198.758 462.764 198.944 462.73 199.13C462.696 199.3 462.654 199.486 462.603 199.689C462.552 199.892 462.484 200.095 462.4 200.298C462.315 200.197 462.222 200.104 462.12 200.019C462.036 199.917 461.909 199.833 461.74 199.765C461.57 199.68 461.35 199.621 461.079 199.587C460.809 199.537 460.445 199.503 459.988 199.486C460.14 200.434 460.267 201.263 460.369 201.974C460.487 202.685 460.58 203.379 460.648 204.056C460.732 204.733 460.792 205.444 460.826 206.189C460.876 206.934 460.902 207.814 460.902 208.83C460.902 210.218 460.749 211.402 460.445 212.384C460.14 213.349 459.725 214.136 459.201 214.746C458.693 215.355 458.1 215.795 457.423 216.066C456.746 216.337 456.044 216.472 455.316 216.472ZM467.792 209.464C467.505 209.701 467.344 210.124 467.31 210.734C467.293 211.326 467.395 211.936 467.615 212.562C467.852 213.171 468.207 213.713 468.681 214.187C469.155 214.661 469.747 214.898 470.458 214.898C470.915 214.898 471.305 214.788 471.626 214.568C471.965 214.348 472.236 214.077 472.439 213.755C472.659 213.417 472.82 213.044 472.921 212.638C473.023 212.232 473.074 211.834 473.074 211.445C473.074 210.886 472.964 210.421 472.744 210.048C472.54 209.676 472.261 209.354 471.906 209.083C471.567 208.796 471.169 208.559 470.712 208.372C470.272 208.169 469.824 207.966 469.367 207.763C468.943 207.594 468.436 207.382 467.843 207.128C467.251 206.858 466.684 206.511 466.142 206.087C465.6 205.647 465.135 205.114 464.745 204.488C464.373 203.845 464.187 203.057 464.187 202.126C464.187 201.517 464.348 200.899 464.669 200.273C464.991 199.647 465.448 199.08 466.04 198.572C466.633 198.047 467.344 197.624 468.173 197.302C469.02 196.981 469.967 196.82 471.017 196.82C472.05 196.82 472.887 196.913 473.531 197.099C474.174 197.285 474.673 197.531 475.029 197.835C475.384 198.123 475.621 198.445 475.74 198.8C475.875 199.139 475.943 199.46 475.943 199.765C475.943 200.07 475.85 200.383 475.663 200.705C475.477 201.009 475.257 201.297 475.003 201.568C474.749 201.822 474.487 202.05 474.216 202.253C473.945 202.44 473.725 202.567 473.556 202.634C473.641 202.414 473.725 202.109 473.81 201.72C473.895 201.331 473.869 200.942 473.734 200.552C473.615 200.163 473.319 199.824 472.845 199.537C472.388 199.249 471.643 199.105 470.611 199.105C470.018 199.105 469.443 199.198 468.884 199.384C468.326 199.57 467.826 199.816 467.386 200.121C466.963 200.408 466.624 200.738 466.37 201.111C466.117 201.483 465.99 201.864 465.99 202.253C465.99 202.626 466.117 202.973 466.37 203.294C466.641 203.599 466.997 203.895 467.437 204.183C467.894 204.454 468.41 204.725 468.986 204.996C469.578 205.266 470.196 205.537 470.839 205.808C471.466 206.079 472.083 206.375 472.693 206.697C473.302 207.001 473.844 207.357 474.318 207.763C474.809 208.169 475.198 208.626 475.486 209.134C475.773 209.642 475.917 210.226 475.917 210.886C475.917 211.597 475.782 212.283 475.511 212.943C475.257 213.586 474.885 214.153 474.394 214.644C473.92 215.135 473.336 215.524 472.642 215.812C471.948 216.117 471.161 216.269 470.281 216.269C469.502 216.269 468.766 216.142 468.072 215.888C467.378 215.634 466.768 215.304 466.244 214.898C465.736 214.492 465.329 214.043 465.025 213.552C464.72 213.061 464.568 212.579 464.568 212.105C464.568 211.597 464.678 211.165 464.898 210.81C465.135 210.455 465.423 210.175 465.761 209.972C466.1 209.752 466.447 209.6 466.802 209.515C467.175 209.43 467.505 209.414 467.792 209.464Z" fill="#B7C5F2" fill-opacity="0.6"/>
<path d="M334.265 152.435C334.057 153.018 333.973 153.581 334.015 154.122C334.098 154.622 334.203 155.143 334.328 155.685C334.411 155.977 334.578 156.518 334.828 157.31C335.036 158.018 335.328 159.018 335.703 160.31C336.078 161.56 336.598 163.31 337.265 165.56C337.182 165.893 337.057 166.164 336.89 166.372C336.765 166.539 336.619 166.706 336.453 166.872C336.286 167.039 336.098 167.185 335.89 167.31C335.307 167.685 334.744 167.789 334.203 167.622C333.703 167.456 333.369 167.227 333.203 166.935C333.119 166.768 332.828 166.247 332.328 165.372C331.828 164.497 331.307 163.518 330.765 162.435C330.223 161.352 329.723 160.289 329.265 159.247C328.807 158.164 328.557 157.372 328.515 156.872C328.432 155.831 328.703 154.977 329.328 154.31C329.953 153.602 330.682 153.06 331.515 152.685C331.848 152.56 332.182 152.456 332.515 152.372C333.14 152.247 333.723 152.268 334.265 152.435Z" fill="#B7C5F2" fill-opacity="0.69"/>
<path d="M412.009 16.8455C412.836 16.8455 413.552 17.0109 414.159 17.3417C414.82 17.6724 415.344 18.1134 415.73 18.6646C416.171 19.1608 416.474 19.712 416.639 20.3184C416.86 20.9248 416.97 21.5036 416.97 22.0548C416.97 23.433 416.667 24.7284 416.061 25.9411C415.509 27.1539 414.848 28.2013 414.076 29.0833C413.304 30.0204 412.533 30.737 411.761 31.2331C410.989 31.7844 410.438 32.06 410.107 32.06C409.942 32.06 409.776 31.9773 409.611 31.8119C409.501 31.7017 409.39 31.5363 409.28 31.3158C409.17 31.0953 409.06 30.7646 408.949 30.3236C409.446 29.6069 409.997 28.8352 410.603 28.0083C411.21 27.2366 411.568 26.2443 411.678 25.0316C411.403 25.1418 411.072 25.2245 410.686 25.2796C410.3 25.3348 409.887 25.3623 409.446 25.3623C408.343 25.3623 407.461 25.0867 406.8 24.5354C406.193 23.9842 405.89 23.3227 405.89 22.551C405.89 21.9997 406.028 21.3933 406.303 20.7318C406.579 20.0703 406.965 19.464 407.461 18.9127C408.012 18.3063 408.646 17.8102 409.363 17.4243C410.135 17.0385 411.017 16.8455 412.009 16.8455ZM413.497 0.0599976C414.379 0.0599976 415.234 0.363184 416.061 0.969558C416.887 1.57593 417.301 2.56818 417.301 3.9463C417.301 5.37955 416.667 6.67498 415.399 7.83261C414.186 8.99023 412.45 9.56904 410.19 9.56904C409.363 9.56904 408.674 9.45879 408.123 9.23829C407.626 8.96267 407.213 8.65948 406.882 8.32873C406.552 7.99798 406.331 7.63967 406.221 7.2538C406.111 6.86792 406.055 6.50961 406.055 6.17886C406.055 5.46224 406.248 4.74561 406.634 4.02899C407.02 3.31237 407.544 2.67843 408.205 2.12718C408.922 1.52081 409.721 1.02468 410.603 0.638809C411.54 0.252935 412.505 0.0599976 413.497 0.0599976Z" fill="#B7C5F2" fill-opacity="0.45"/>
<path d="M177.589 205.451C177.719 205.555 177.824 205.685 177.902 205.841C178.006 205.997 178.084 206.167 178.136 206.349C178.214 206.557 178.266 206.779 178.292 207.013C178.318 207.247 178.331 207.482 178.331 207.716C178.331 207.925 178.318 208.133 178.292 208.341C178.266 208.55 178.227 208.745 178.175 208.927C177.186 209.552 176.287 210.138 175.48 210.685C174.699 211.206 174.035 211.662 173.488 212.052C172.837 212.521 172.264 212.951 171.769 213.341C172.212 213.784 172.759 214.266 173.41 214.787C173.956 215.255 174.62 215.815 175.402 216.466C176.183 217.091 177.081 217.807 178.097 218.615C178.149 218.823 178.162 219.07 178.136 219.357C178.136 219.617 178.11 219.878 178.058 220.138C178.006 220.425 177.941 220.724 177.863 221.037C177.811 221.271 177.759 221.466 177.706 221.622C177.654 221.753 177.602 221.883 177.55 222.013C177.524 222.117 177.498 222.143 177.472 222.091C176.196 221.102 175.076 220.177 174.113 219.318C173.175 218.458 172.394 217.716 171.769 217.091C171.014 216.362 170.376 215.698 169.855 215.099C169.751 214.969 169.66 214.747 169.581 214.435C169.503 214.096 169.451 213.758 169.425 213.419C169.399 213.055 169.386 212.729 169.386 212.443C169.412 212.13 169.477 211.935 169.581 211.857C169.92 211.544 170.298 211.219 170.714 210.88C171.131 210.516 171.548 210.151 171.964 209.787C172.407 209.422 172.85 209.07 173.292 208.732C173.735 208.367 174.152 208.042 174.542 207.755C174.933 207.443 175.311 207.143 175.675 206.857C175.988 206.596 176.313 206.349 176.652 206.115C177.016 205.854 177.329 205.633 177.589 205.451ZM189.683 199.826C190.126 199.461 190.581 199.201 191.05 199.044C191.545 198.888 192.001 198.784 192.417 198.732C192.886 198.68 193.355 198.68 193.824 198.732C192.808 201.102 191.897 203.237 191.089 205.138C190.308 207.039 189.657 208.693 189.136 210.099C188.485 211.714 187.938 213.172 187.495 214.474C186.87 216.037 186.285 217.56 185.738 219.044C185.191 220.529 184.735 221.883 184.37 223.107C184.032 224.331 183.798 225.372 183.667 226.232C183.537 227.117 183.563 227.755 183.745 228.146C183.511 228.276 183.225 228.406 182.886 228.537C182.574 228.667 182.248 228.758 181.91 228.81C181.571 228.862 181.232 228.875 180.894 228.849C180.581 228.823 180.321 228.706 180.113 228.497C179.8 228.211 179.683 227.807 179.761 227.287C179.839 226.766 179.982 226.206 180.191 225.607C180.295 225.346 180.516 224.747 180.855 223.81C181.193 222.846 181.597 221.714 182.066 220.412C182.535 219.083 183.042 217.651 183.589 216.115C184.162 214.578 184.722 213.068 185.269 211.583L186.636 207.872C187.053 206.753 187.522 205.503 188.042 204.122C188.589 202.716 189.136 201.284 189.683 199.826ZM195.8 205.451C196.035 205.633 196.321 205.854 196.66 206.115C197.024 206.349 197.363 206.596 197.675 206.857C198.04 207.143 198.417 207.443 198.808 207.755C199.589 208.354 200.436 209.044 201.347 209.826C202.285 210.581 203.092 211.258 203.769 211.857C203.873 211.935 203.938 212.13 203.964 212.443C203.99 212.729 203.977 213.055 203.925 213.419C203.899 213.758 203.847 214.096 203.769 214.435C203.691 214.747 203.6 214.969 203.495 215.099C202.975 215.698 202.35 216.362 201.62 217.091C200.995 217.716 200.201 218.458 199.238 219.318C198.3 220.177 197.193 221.102 195.917 222.091C195.891 222.143 195.852 222.117 195.8 222.013C195.774 221.883 195.735 221.753 195.683 221.622C195.605 221.466 195.54 221.271 195.488 221.037C195.41 220.724 195.344 220.425 195.292 220.138C195.24 219.878 195.201 219.617 195.175 219.357C195.175 219.07 195.201 218.823 195.253 218.615C196.269 217.807 197.167 217.091 197.949 216.466C198.73 215.815 199.394 215.255 199.941 214.787C200.566 214.266 201.113 213.784 201.581 213.341C201.087 212.951 200.514 212.521 199.863 212.052C199.316 211.662 198.639 211.206 197.831 210.685C197.05 210.138 196.165 209.552 195.175 208.927C195.097 208.745 195.045 208.55 195.019 208.341C195.019 208.133 195.019 207.925 195.019 207.716C195.019 207.482 195.032 207.247 195.058 207.013C195.084 206.779 195.136 206.557 195.214 206.349C195.266 206.167 195.331 205.997 195.41 205.841C195.514 205.685 195.644 205.555 195.8 205.451Z" fill="#B7C5F2" fill-opacity="0.35"/>
</svg>
