<svg width="12" height="14" viewBox="0 0 12 14" fill="none" xmlns="http://www.w3.org/2000/svg">
<path d="M6.49996 9.0134C19.5 9.51343 -2.76981 -2.48755 2.99998 2.51294C6.52995 5.57225 2.18503 7.13387 1.25646 8C1.21874 8.03975 1.18176 8.08057 1.14617 8.12194C0.81278 8.59076 1.84064 8.83419 6.49996 9.0134Z" fill="url(#paint0_radial_3_2825)"/>
<path d="M6.49996 9.0134C19.5 9.51343 -2.76981 -2.48755 2.99998 2.51294C6.52995 5.57225 2.18503 7.13387 1.25646 8C1.21874 8.03975 1.18176 8.08057 1.14617 8.12194C0.81278 8.59076 1.84064 8.83419 6.49996 9.0134Z" fill="#0A1A3D" fill-opacity="0.2"/>
<path d="M2.99998 2.51294C-2.76981 -2.48755 19.5 9.51343 6.49996 9.0134C1.84064 8.83419 0.81278 8.59076 1.14617 8.12194M2.99998 2.51294C6.52995 5.57225 2.18503 7.13387 1.25646 8C1.21874 8.03975 1.18176 8.08057 1.14617 8.12194M2.99998 2.51294C6.70183 5.72121 1.74296 7.2827 1.14617 8.12194M1.99997 13C0.0796719 10.5996 0.286385 9.12112 1.14617 8.12194M10.4484 6.99997C12.3482 9.74156 10.9428 11.1341 10 13" stroke="url(#paint1_linear_3_2825)" stroke-linecap="round" style="mix-blend-mode:multiply"/>
<path d="M5.5 6.00002L8 6C8.44845 6 8 6.50001 6.99999 6.50001C5.99998 6.50001 5 6.00004 5.5 6.00002Z" fill="#DAE2FF"/>
<path d="M5.5 6.00002L8 6C8.44845 6 8 6.50001 6.99999 6.50001C5.99998 6.50001 5 6.00004 5.5 6.00002Z" stroke="url(#paint2_linear_3_2825)" stroke-linecap="round" style="mix-blend-mode:multiply"/>
<defs>
<radialGradient id="paint0_radial_3_2825" cx="0" cy="0" r="1" gradientUnits="userSpaceOnUse" gradientTransform="translate(5.95353 7.14572) rotate(90) scale(5.85428 5.43741)">
<stop stop-color="#505D84"/>
<stop offset="1" stop-color="#212F53"/>
</radialGradient>
<linearGradient id="paint1_linear_3_2825" x1="5.95353" y1="1.29144" x2="5.95353" y2="13" gradientUnits="userSpaceOnUse">
<stop stop-color="#D9DFFF"/>
<stop offset="0.520833" stop-color="#D6DCF9"/>
<stop offset="0.71875" stop-color="#C6CEFB"/>
<stop offset="1" stop-color="#C5CFFF"/>
</linearGradient>
<linearGradient id="paint2_linear_3_2825" x1="6.7705" y1="6" x2="6.7705" y2="6.50001" gradientUnits="userSpaceOnUse">
<stop stop-color="#D9DFFF"/>
<stop offset="0.520833" stop-color="#D6DCF9"/>
<stop offset="0.71875" stop-color="#C6CEFB"/>
<stop offset="1" stop-color="#C5CFFF"/>
</linearGradient>
</defs>
</svg>
