<svg width="412" height="328" fill="none" xmlns="http://www.w3.org/2000/svg"><g clip-path="url(#clip0_882_3714)"><path d="M116.538 279.261c.261-1.345-1.622-2.663-4.208-2.945-2.586-.281-4.894.582-5.156 1.927-.261 1.345 1.623 2.663 4.208 2.945 2.586.281 4.894-.581 5.156-1.927z" fill="#212F53"/><path d="M147.322 277.015c.262-1.345-1.622-2.664-4.207-2.945-2.586-.281-4.894.581-5.156 1.926-.262 1.345 1.622 2.664 4.208 2.945 2.585.281 4.894-.581 5.155-1.926z" fill="#0A1A3D"/><path d="M108.108 260.624c.262-1.345-1.622-2.664-4.208-2.945-2.585-.282-4.894.581-5.155 1.926-.262 1.345 1.622 2.664 4.207 2.945 2.586.281 4.894-.581 5.156-1.926z" fill="#FFE262"/><path d="M94.731 252.989c.013-1.235-.908-2.241-2.057-2.247-1.149-.007-2.09.989-2.103 2.224-.012 1.235.909 2.241 2.058 2.247 1.148.007 2.09-.989 2.102-2.224z" fill="#212F53"/><path d="M90.195 238.769c.012-1.235-.909-2.241-2.057-2.248-1.149-.006-2.09.99-2.103 2.224-.012 1.235.909 2.242 2.058 2.248 1.148.007 2.09-.989 2.102-2.224z" fill="#0A1A3D"/><path d="M125.471 263.795c.012-1.235-.909-2.241-2.058-2.247-1.148-.007-2.09.989-2.102 2.224-.013 1.235.909 2.241 2.057 2.248 1.149.006 2.09-.99 2.103-2.225z" fill="#212F53"/><path d="M110.594 269.35c.013-1.235-.908-2.241-2.057-2.248-1.149-.006-2.09.99-2.103 2.225-.012 1.234.909 2.241 2.058 2.247 1.148.007 2.09-.989 2.102-2.224z" fill="#FFE262"/><path d="M131.303 279.616c.012-1.235-.909-2.241-2.057-2.248-1.149-.006-2.09.99-2.103 2.225-.012 1.235.909 2.241 2.057 2.247 1.149.007 2.09-.989 2.103-2.224z" fill="#0A1A3D"/><path d="M353.191 207.159c.262-1.345-1.622-2.663-4.208-2.945-2.585-.281-4.894.581-5.155 1.927-.262 1.345 1.622 2.663 4.208 2.945 2.585.281 4.893-.581 5.155-1.927z" fill="#212F53"/><path d="M383.976 204.913c.261-1.345-1.623-2.664-4.208-2.945-2.586-.281-4.894.581-5.156 1.926-.261 1.345 1.623 2.664 4.208 2.945 2.586.281 4.894-.581 5.156-1.926z" fill="#0A1A3D"/><path d="M344.761 188.521c.261-1.345-1.622-2.663-4.208-2.945-2.586-.281-4.894.581-5.156 1.926-.261 1.346 1.623 2.664 4.208 2.945 2.586.282 4.894-.581 5.156-1.926z" fill="#FFE262"/><path d="M331.385 180.887c.012-1.235-.909-2.242-2.058-2.248-1.148-.007-2.09.989-2.102 2.224-.013 1.235.908 2.241 2.057 2.248 1.149.006 2.09-.989 2.103-2.224z" fill="#212F53"/><path d="M326.848 166.667c.013-1.235-.908-2.241-2.057-2.248-1.149-.006-2.09.99-2.103 2.224-.012 1.235.909 2.242 2.058 2.248 1.148.007 2.09-.989 2.102-2.224z" fill="#0A1A3D"/><path d="M362.124 191.693c.013-1.235-.908-2.241-2.057-2.248-1.149-.006-2.09.989-2.103 2.224-.012 1.235.909 2.242 2.058 2.248 1.148.007 2.09-.989 2.102-2.224z" fill="#212F53"/><path d="M347.248 197.248c.012-1.235-.909-2.242-2.058-2.248-1.148-.007-2.09.989-2.102 2.224-.013 1.235.908 2.241 2.057 2.248 1.149.006 2.09-.99 2.103-2.224z" fill="#FFE262"/><path d="M367.956 207.514c.013-1.235-.908-2.241-2.057-2.248-1.149-.006-2.09.99-2.103 2.225-.012 1.234.909 2.241 2.058 2.247 1.148.007 2.09-.989 2.102-2.224z" fill="#0A1A3D"/><path d="M238.621 73.723c.262-1.345-1.622-2.663-4.208-2.945-2.586-.28-4.894.581-5.156 1.927-.261 1.345 1.623 2.663 4.208 2.945 2.586.28 4.894-.582 5.156-1.927z" fill="#EEF0FF"/><path d="M269.405 71.477c.262-1.345-1.622-2.664-4.207-2.945-2.586-.281-4.894.58-5.156 1.926-.262 1.345 1.622 2.664 4.208 2.945 2.586.281 4.894-.581 5.155-1.926z" fill="#0A1A3D"/><path d="M230.191 55.086c.262-1.346-1.622-2.664-4.208-2.945-2.585-.282-4.894.58-5.155 1.926-.262 1.345 1.622 2.663 4.208 2.945 2.585.281 4.893-.581 5.155-1.926z" fill="#FFE262"/><path d="M216.814 47.451c.013-1.235-.908-2.241-2.057-2.248-1.149-.006-2.09.99-2.102 2.225-.013 1.235.908 2.24 2.057 2.247 1.149.007 2.09-.989 2.102-2.224z" fill="#212F53"/><path d="M212.278 33.23c.013-1.234-.909-2.24-2.057-2.247-1.149-.006-2.09.99-2.103 2.224-.012 1.235.909 2.242 2.057 2.248 1.149.007 2.091-.99 2.103-2.224z" fill="#0A1A3D"/><path d="M247.554 58.257c.012-1.235-.909-2.24-2.057-2.247-1.149-.007-2.09.989-2.103 2.224-.012 1.235.909 2.241 2.057 2.247 1.149.007 2.09-.989 2.103-2.224z" fill="#212F53"/><path d="M232.677 63.812c.013-1.235-.908-2.241-2.057-2.248-1.149-.006-2.09.99-2.102 2.224-.013 1.235.908 2.242 2.057 2.248 1.149.007 2.09-.99 2.102-2.224z" fill="#FFE262"/><path d="M253.386 74.078c.012-1.235-.909-2.241-2.057-2.248-1.149-.006-2.09.99-2.103 2.225-.012 1.234.909 2.24 2.057 2.247 1.149.007 2.09-.989 2.103-2.224z" fill="#0A1A3D"/></g><path d="M288.628 112.222a15.209 15.209 0 0014.669-2.579c5.138-4.304 6.749-11.395 8.059-17.96l3.877-19.421-8.116 5.578c-5.837 4.01-11.806 8.15-15.847 13.96-4.042 5.81-5.806 13.742-2.559 20.029" fill="#EEF0FF"/><path d="M289.322 135.734c-.822-5.972-1.667-12.021-1.09-18.057.511-5.361 2.15-10.598 5.486-14.891a24.813 24.813 0 016.368-5.759c.637-.4 1.223.606.589 1.006a23.562 23.562 0 00-9.333 11.239c-2.032 5.158-2.358 10.78-2.008 16.26.212 3.313.66 6.605 1.113 9.893a.603.603 0 01-.408.716.588.588 0 01-.717-.407z" fill="#B7C5F2"/><path d="M297.234 125.167a11.183 11.183 0 009.744 5.019c4.932-.234 9.044-3.67 12.746-6.932l10.948-9.647-7.246-.347c-5.211-.248-10.556-.481-15.519 1.123-4.964 1.604-9.541 5.464-10.449 10.591" fill="#EEF0FF"/><path d="M287 139.168c3.954-6.983 8.54-14.744 16.735-17.224a18.704 18.704 0 017.04-.726c.747.064.56 1.214-.186 1.15a17.375 17.375 0 00-11.233 2.966c-3.168 2.152-5.634 5.144-7.721 8.316-1.279 1.943-2.424 3.969-3.57 5.992-.366.647-1.436.18-1.065-.474z" fill="#B7C5F2"/><path d="M128.444 212.395a20.953 20.953 0 01-10.502.855 20.87 20.87 0 01-9.576-4.366c-7.032-5.859-9.237-15.511-11.03-24.449-1.77-8.811-3.538-17.623-5.307-26.435l11.109 7.593c7.989 5.46 16.158 11.096 21.69 19.005 5.531 7.909 7.946 18.705 3.502 27.263" fill="#EEF0FF"/><path d="M127.7 243.599c1.157-8.115 2.346-16.333 1.535-24.534-.721-7.284-3.027-14.398-7.724-20.231a34.512 34.512 0 00-8.965-7.824c-.896-.545-1.721.823-.828 1.366 5.948 3.621 10.548 8.967 13.138 15.269 2.861 7.008 3.32 14.647 2.827 22.092-.298 4.502-.93 8.974-1.566 13.441a.795.795 0 00.087.595c.107.181.28.316.486.378.21.055.434.027.623-.076a.804.804 0 00.387-.476z" fill="#B7C5F2"/><path d="M117.011 229.579a15.062 15.062 0 01-5.723 5.014 15.52 15.52 0 01-7.512 1.639c-6.7-.31-12.286-4.864-17.314-9.188L71.59 214.256l9.843-.458c7.078-.33 14.34-.638 21.081 1.488 6.742 2.126 12.96 7.242 14.193 14.038" fill="#EEF0FF"/><path d="M130.533 248.761c-5.352-9.685-11.56-20.448-22.653-23.888a24.751 24.751 0 00-9.529-1.006c-1.011.089-.759 1.684.251 1.595a23.093 23.093 0 0115.206 4.114c4.288 2.984 7.626 7.133 10.451 11.532 1.731 2.695 3.281 5.505 4.832 8.31.495.897 1.944.25 1.442-.657z" fill="#B7C5F2"/><path d="M95.501 103.957L42.961 93.18l-.683-.14a1.927 1.927 0 00-1.043.074c-.333.12-.625.33-.842.606a1.815 1.815 0 00-.192 1.958l21.085 41.302c.136.265.336.494.582.668a1.922 1.922 0 001.727.249c.287-.098.546-.264.753-.482l14.38-15.022a1.091 1.091 0 01.806-.35 1.16 1.16 0 01.588.147c.178.1.326.246.427.423l2.996 5.35c.192.357.5.641.874.806a1.88 1.88 0 001.197.108l.014-.003a1.85 1.85 0 001.032-.616c.263-.313.412-.704.421-1.11l.519-12.394c.006-.154.044-.306.113-.445.074-.138.174-.261.295-.362l8.308-6.758a1.823 1.823 0 00.627-1.867 1.846 1.846 0 00-.521-.886 1.908 1.908 0 00-.923-.479zm.337 2.665l-8.308 6.758a1.813 1.813 0 00-.292.292L42.872 94.283a.77.77 0 00-.632.01.747.747 0 00-.36.357.726.726 0 00.249.913l36.539 25.953a1.81 1.81 0 00-.49.37l-14.38 15.023a1.138 1.138 0 01-.99.338 1.13 1.13 0 01-.848-.599L40.874 95.346a1.09 1.09 0 01.12-1.172 1.154 1.154 0 011.127-.41l.699.144 52.524 10.773c.209.043.4.143.554.288a1.087 1.087 0 01.291 1.144 1.11 1.11 0 01-.351.509z" fill="#DAE2FF"/><g clip-path="url(#clip1_882_3714)"><path d="M211.244 299.627a8.696 8.696 0 008.276 2.096c3.698-1.053 6.207-4.398 8.435-7.54l6.59-9.289-5.554 1.021c-3.995.734-8.088 1.505-11.567 3.607-3.478 2.102-6.265 5.853-6.044 9.919" fill="#C0C6DD"/><path d="M206.081 312.142c.974-3.331 1.954-6.707 3.674-9.742 1.527-2.696 3.614-5.061 6.368-6.532a14.19 14.19 0 014.683-1.527c.427-.061.496.606.071.666a13.507 13.507 0 00-7.52 3.709c-2.275 2.232-3.767 5.109-4.87 8.07-.668 1.79-1.207 3.624-1.743 5.458a.345.345 0 01-.382.281.337.337 0 01-.279-.383h-.002z" fill="#F2F2F2"/><path d="M313.34 178.004a4.44 4.44 0 013.693.752c.524.388.956.887 1.266 1.461.31.574.491 1.21.53 1.861l15.239 4.296-6.218 5.4-13.517-4.907a4.472 4.472 0 01-2.967-1.152 4.494 4.494 0 01-1.456-2.837 4.504 4.504 0 01.791-3.091 4.476 4.476 0 012.639-1.783zm39.158 130.11l-4.442-.001-2.113-17.179h6.556l-.001 17.18z" fill="#FFB4A5"/><path d="M353.63 312.431h-14.322v-.182c0-1.482.588-2.904 1.633-3.953a5.568 5.568 0 013.942-1.637l8.748.001-.001 5.771z" fill="#191B24"/><path d="M378.525 308.114l-4.442-.001-2.113-17.179h6.556l-.001 17.18z" fill="#FFB4A5"/><path d="M379.658 312.431h-14.322v-.182c0-1.482.587-2.904 1.633-3.953a5.566 5.566 0 013.941-1.637h.001l8.747.001v5.771zM348.869 209.51l-6.543 45.445 1.63 47.881 9.825.785 3.072-42.94 7.821-23.944 4.598 34.131.189 31.968 10.146.785 3.538-67.208-2.603-29.229-31.673 2.326z" fill="#191B24"/><path d="M367.793 148.665c5.716 0 10.35-4.647 10.35-10.379 0-5.732-4.634-10.379-10.35-10.379-5.717 0-10.351 4.647-10.351 10.379 0 5.732 4.634 10.379 10.351 10.379z" fill="#FFB4A5"/><path d="M361.413 154.311l-11.427 57.726s19.239 5.536 27.667.425 4.651-20.891 4.651-20.891l-1.543-26.85-2.853-6.79-2.42-5.605-14.075 1.985z" fill="#E1E2EE"/><path d="M358.068 195.286l3.947-42.096-3.156 2.311-11.038 3.595-.755 29.637-7.722 38.973s5.519 10.799 12.359-7.066l6.365-25.354z" fill="#191B24"/><path d="M353.133 163.528l-5.312-4.433-11.939 26.006-13.322-2.926-.63 7.89 19.303 7.66 13.154-18.363-1.254-15.834zm20.665 22.544l1.488-34.26 5.475 4.251 9.777 2.733-1.433 27.276 2.063 42.324-10.251 3.255-2.878-26.706-4.241-18.873z" fill="#191B24"/><path d="M374.456 213.651a4.459 4.459 0 012.171-3.089 4.448 4.448 0 013.756-.315l10.046-12.266 2.433 7.879-9.913 10.441a4.49 4.49 0 01-2.244 2.261 4.477 4.477 0 01-5.68-1.772 4.497 4.497 0 01-.569-3.139z" fill="#FFB4A5"/><path d="M383.992 162.598l6.546-3.803 16.472 32.618-16.059 22.362-9.16-7.344 11.122-14.545-10.137-15.621 1.216-13.667zm-6.464-32.61l.502-1.013-2.525-1.258s-2.786-4.544-7.826-3.267c-5.04 1.277-7.308 2.041-7.308 2.041l-2.518 1.271 1.264 1.261-2.268.765 1.515.754-1.763 1.016.949 5.208s1.576-3.95 4.606-2.44c3.03 1.509 8.572-.781 8.572-.781l4.815 9.344s.993-3.275 2.764-2.402c0 0 4.525-7.225-.779-10.499z" fill="#191B24"/><path d="M314.654 145.216h-.066l-37.959 16.253-51.936 22.238a1.678 1.678 0 01-1.283.007l-53.582-22.291-38.892-16.181-.059-.026h-.066a2.315 2.315 0 00-1.636.68 2.328 2.328 0 00-.679 1.641v100.795c.001.616.245 1.206.679 1.641a2.31 2.31 0 001.636.68h183.843a2.31 2.31 0 001.636-.68 2.328 2.328 0 00.679-1.641V147.537a2.328 2.328 0 00-.679-1.641 2.315 2.315 0 00-1.636-.68z" fill="#EEF0FF"/><path d="M314.819 145.879a.326.326 0 01-.188-.06l-91.446-63.86a1.654 1.654 0 00-1.894.003l-90.787 63.857a.33.33 0 01-.515-.329.328.328 0 01.136-.214l90.786-63.857a2.32 2.32 0 012.652-.004l91.446 63.86a.34.34 0 01.124.165.332.332 0 01-.314.439z" fill="#3F3D56"/><path d="M135.692 148.143l86.635-64.385 87.293 68.966-82.829 49.237-44.969-10.278-46.13-43.54z" fill="#C0C6DD"/><path d="M185.618 232.373h-42.8a1.99 1.99 0 01-1.851-1.234 2.01 2.01 0 011.08-2.623 1.99 1.99 0 01.765-.153h42.806a1.997 1.997 0 012.006 2.002 2.007 2.007 0 01-2 2.008h-.006zm-27.444-8.621h-15.356a1.995 1.995 0 01-1.851-1.234 2.002 2.002 0 01.431-2.187 1.984 1.984 0 011.414-.589h15.362a1.998 1.998 0 012 2.002 2.005 2.005 0 01-1.994 2.008h-.006z" fill="#212F53"/><path d="M223.546 184.004c-.325 0-.648-.063-.949-.186l-53.43-22.231V92a2.323 2.323 0 012.314-2.321h102.503a2.31 2.31 0 011.636.68c.434.435.678 1.025.679 1.64v69.636l-.101.043-51.675 22.129c-.309.13-.641.197-.977.197z" fill="#6F8EE0"/><path d="M314.158 145.216h-.066l-37.959 16.253-51.936 22.238a1.678 1.678 0 01-1.283.007l-53.582-22.291-38.892-16.181-.059-.026h-.066a2.315 2.315 0 00-1.636.68 2.328 2.328 0 00-.679 1.641v100.795c.001.616.245 1.206.679 1.641a2.31 2.31 0 001.636.68h183.843a2.31 2.31 0 001.636-.68 2.328 2.328 0 00.679-1.641V147.537a2.328 2.328 0 00-.679-1.641 2.315 2.315 0 00-1.636-.68zm1.654 103.116a1.653 1.653 0 01-1.654 1.658H130.315a1.653 1.653 0 01-1.654-1.658V147.537a1.656 1.656 0 011.591-1.658l39.08 16.26 53.328 22.188a2.347 2.347 0 001.799-.01l51.674-22.128 38.092-16.31c.426.018.829.201 1.125.51.295.309.461.72.462 1.148v100.795z" fill="#3F3D56"/><path d="M215.228 115.69h-36.372a2.642 2.642 0 01-1.868-.778 2.659 2.659 0 010-3.748 2.639 2.639 0 011.868-.779h36.372c.7.001 1.372.281 1.867.779a2.655 2.655 0 01-1.867 4.526zm-18.848-11.273h-17.524a2.64 2.64 0 01-1.871-.777 2.655 2.655 0 010-3.75 2.642 2.642 0 011.871-.778h17.524c.702 0 1.375.28 1.871.777a2.657 2.657 0 010 3.751 2.64 2.64 0 01-1.871.777zm53.556 37.799h-55.55a2.654 2.654 0 01-1.87-4.528 2.637 2.637 0 011.87-.777h55.55a2.651 2.651 0 012.645 2.652 2.654 2.654 0 01-2.645 2.653zm0 12.267h-55.55a2.634 2.634 0 01-1.873-.775 2.665 2.665 0 01-.575-2.893 2.638 2.638 0 011.434-1.436 2.654 2.654 0 011.014-.201h55.55a2.654 2.654 0 011.873.775 2.661 2.661 0 010 3.755 2.634 2.634 0 01-1.873.775z" fill="#212F53"/><path d="M411.596 312.85H305.472a.402.402 0 01-.403-.404.403.403 0 01.403-.405h106.124a.403.403 0 01.404.405.402.402 0 01-.404.404zm-185.212 0h-39.141a.404.404 0 110-.809h39.141a.403.403 0 01.403.405.404.404 0 01-.403.404z" fill="#E1E2EE"/><path d="M201.635 300.34a8.683 8.683 0 004.241-1.219 8.723 8.723 0 003.1-3.147c1.882-3.361 1.309-7.508.679-11.31l-1.86-11.247-3.22 4.651c-2.316 3.346-4.676 6.787-5.665 10.737-.988 3.95-.325 8.58 2.69 11.307" fill="#C0C6DD"/><path d="M206.775 312.864c-1.652-3.051-3.331-6.137-4.247-9.505-.812-2.992-.996-6.145-.078-9.134a14.314 14.314 0 012.246-4.395c.261-.345.779.079.52.422a13.575 13.575 0 00-2.724 7.948c-.044 3.19.922 6.285 2.222 9.165.785 1.742 1.693 3.423 2.603 5.103a.345.345 0 01-.074.468.333.333 0 01-.467-.073l-.001.001z" fill="#F2F2F2"/></g><defs><clipPath id="clip0_882_3714"><path fill="#fff" d="M0 0h384v328H0z"/></clipPath><clipPath id="clip1_882_3714"><path fill="#fff" transform="translate(128 81)" d="M0 0h284v232H0z"/></clipPath></defs></svg>