<svg width="1439" height="1040" fill="none" xmlns="http://www.w3.org/2000/svg"><path fill-rule="evenodd" clip-rule="evenodd" d="M1.426 376l3.119-5h82.96l2.51 4.025-.701.975H1.426zm-12.476 20l3.12-5h86.452l-3.598 5H-11.05zM-36 436l3.119-5h82.624l-3.597 5H-36zm183.854 31.75H23.303L31.756 456h108.769l7.329 11.75zM137.406 451l-9.357-15H46.146l-10.792 15h-47.58a2.5 2.5 0 100 5h43.982l3.598-5h102.052zm-12.475-20H49.743l10.792-15h55.039l9.357 15zm-12.476-20l-9.356-15H74.924l-10.792 15H16.525a2.5 2.5 0 100 5h44.01l3.597-5h48.323zM99.98 391H78.522l10.792-15h1.31l9.356 15z" fill="url(#paint0_linear_218_7144)" fill-opacity=".69" style="mix-blend-mode:multiply"/><path d="M561.007 738.106c-1.034-1.387.712-3.133 2.099-2.099l11.717 8.734a1.502 1.502 0 001.793 0l11.717-8.734c1.386-1.034 3.133.712 2.099 2.099l-8.734 11.717a1.499 1.499 0 000 1.793l8.734 11.717c1.034 1.386-.713 3.133-2.099 2.099l-11.717-8.734a1.499 1.499 0 00-1.793 0l-11.717 8.734c-1.387 1.034-3.133-.713-2.099-2.099l8.734-11.717a1.499 1.499 0 000-1.793l-8.734-11.717z" fill="#B7C5F2" fill-opacity=".6"/><circle cx="245" cy="693" r="16" stroke="#505D84" stroke-opacity=".49" stroke-width="8"/><circle cx="975" cy="419" r="20" fill="#DCE2FF"/><path fill-rule="evenodd" clip-rule="evenodd" d="M13.406 719.122a2 2 0 012.675-.918l74.664 36.501a2 2 0 01-1.757 3.594l-74.664-36.502a2 2 0 01-.918-2.675zm-3.923 11.44a.5.5 0 01.669-.23l74.664 36.501a.5.5 0 01-.44.899L9.713 731.23a.499.499 0 01-.23-.668zm-45.33-11.52a1.5 1.5 0 012.006-.689L116.19 791.7a1.5 1.5 0 01-1.317 2.695l-150.031-73.346a1.5 1.5 0 01-.69-2.007zm34.34 32.861a1 1 0 011.337-.459l74.665 36.502a1 1 0 11-.879 1.796l-74.664-36.501a1 1 0 01-.46-1.338zm-19.371 3.888a1.5 1.5 0 012.006-.689l101.967 49.849a1.5 1.5 0 11-1.317 2.695L-20.19 757.797a1.5 1.5 0 01-.688-2.006zm-4.52 10.471a1 1 0 011.337-.459l89.84 43.92a1 1 0 11-.879 1.796l-89.839-43.92a1 1 0 01-.46-1.337zm36.428 31.842a1 1 0 011.338-.459l17.967 8.784a1 1 0 11-.878 1.797l-17.968-8.784a1 1 0 01-.46-1.338z" fill="#B7C5F2" fill-opacity=".63"/><path d="M28.702 748.299l74.664 36.502" stroke="#3F3D56" stroke-opacity=".4" stroke-width="4" stroke-linecap="round" stroke-linejoin="round"/><path d="M23.432 759.08l74.664 36.502" stroke="#3F3D56" stroke-opacity=".4" stroke-linecap="round" stroke-linejoin="round"/><path d="M-19.522 751.438l150.031 73.347" stroke="#3F3D56" stroke-opacity=".4" stroke-width="3" stroke-linecap="round" stroke-linejoin="round"/><path d="M12.89 780.642l74.665 36.501" stroke="#3F3D56" stroke-opacity=".4" stroke-width="2" stroke-linecap="round" stroke-linejoin="round"/><path d="M-6.031 784.749l101.967 49.849" stroke="#3F3D56" stroke-opacity=".4" stroke-width="3" stroke-linecap="round" stroke-linejoin="round"/><path d="M15.875 808.815l47.614 23.278m-38.061-5.251l17.968 8.784" stroke="#3F3D56" stroke-opacity=".4" stroke-width="2" stroke-linecap="round" stroke-linejoin="round"/><path fill-rule="evenodd" clip-rule="evenodd" d="M996.657 117.204l-2.386-19.47 17.649 6.112-15.263 13.358zm1.097 8.948l16.076-12.988-1.23-9.082 8.72 3.023-7.49 6.059.78 5.796 12.28-9.927 2.99 1.036-14.85 12.002.78 5.796 19.64-15.869 11.55 4-29.56 23.888.78 5.795 34.35-27.755 31.85 11.033-78.55 63.468-2.88-23.503 19.65 9.504-4.42-32.747-16.44 13.289-.72-5.85 16.38-13.234-.42-3.112-16.35 13.206-.713-5.849 16.273-13.152-.42-3.112-16.238 13.123-.717-5.849 16.175-13.07-.42-3.111-16.14 13.041-.716-5.849zm18.476 4.827l.79 5.795 14.52-11.733a2.5 2.5 0 00.37-3.515 2.505 2.505 0 00-3.52-.374l-12.16 9.827z" fill="#B7C5F2" fill-opacity=".3"/><path d="M483.154 160.478c1.104-3.87 6.588-3.87 7.692 0l1.776 6.22a4 4 0 004.819 2.783l6.274-1.573c3.904-.979 6.646 3.771 3.847 6.662l-4.5 4.648a4 4 0 000 5.564l4.5 4.648c2.799 2.891.057 7.641-3.847 6.662l-6.274-1.573a4 4 0 00-4.819 2.783l-1.776 6.22c-1.104 3.87-6.588 3.87-7.692 0l-1.776-6.22a4 4 0 00-4.819-2.783l-6.274 1.573c-3.904.979-6.646-3.771-3.847-6.662l4.5-4.648a4 4 0 000-5.564l-4.5-4.648c-2.799-2.891-.057-7.641 3.847-6.662l6.274 1.573a4 4 0 004.819-2.783l1.776-6.22z" fill="url(#paint1_linear_218_7144)"/><path d="M741.409 384.481l9.242 43.585c.697 3.077 2.516 3.842 5.1 2.393l14.082-10.377 6.795 6.535c.752.752 1.381 1.381 2.83 1.381l-1.012-14.342-26.1-23.584c-1.134-1.011.247-1.572 1.764-.56l32.266 20.316 13.89-4.347c3.022-.944 3.077-3.022-.628-4.471l-54.333-20.932c-2.515-.943-4.716.561-3.896 4.403z" fill="url(#paint2_linear_218_7144)" style="mix-blend-mode:multiply"/><path d="M784.356 416.5c293.304 263.864-133 453.5-120 253.5s473.504 94 120 228" stroke="url(#paint3_linear_218_7144)" stroke-width="6" stroke-linecap="round" stroke-linejoin="round" stroke-dasharray="10 10" style="mix-blend-mode:multiply"/><path fill-rule="evenodd" clip-rule="evenodd" d="M1255 474l-5.25-3h-10.5l-5.25 3h21zm-24.5 2l-5.25 3h38.5l-5.25-3h-28zm-14 8l5.25-3h45.5l5.25 3h-56zm-3.5 2l-5.25 3h73.5l-5.25-3h-63zm-14 8l5.25-3h80.5l5.25 3h-91zm-3.5 2l-3.5 2v60l1.75 1h101.5l1.75-1v-2h-104c-.55 0-1-.448-1-1s.45-1 1-1h104v-3h-104c-.55 0-1-.448-1-1s.45-1 1-1h104v-3h-104c-.55 0-1-.448-1-1s.45-1 1-1h104v-3h-104c-.55 0-1-.448-1-1s.45-1 1-1h104v-3h-104c-.55 0-1-.448-1-1s.45-1 1-1h104v-3h-104c-.55 0-1-.448-1-1s.45-1 1-1h104v-3h-104c-.55 0-1-.448-1-1s.45-1 1-1h104v-3h-104c-.55 0-1-.448-1-1s.45-1 1-1h104v-3h-104c-.55 0-1-.448-1-1s.45-1 1-1h104v-3h-104c-.55 0-1-.448-1-1s.45-1 1-1h104v-3h-104c-.55 0-1-.448-1-1s.45-1 1-1h104v-3h-104c-.55 0-1-.448-1-1s.45-1 1-1h104v-1l-3.5-2h-98zm7 68l-5.25-3h94.5l-5.25 3h-84zm3.5 2l5.25 3h66.5l5.25-3h-77zm14 8l-5.25-3h59.5l-5.25 3h-49zm3.5 2l5.25 3h31.5l5.25-3h-42zm14 8l-5.25-3h24.5l-5.25 3h-14zm7-116l1.75 1h-3.5l1.75-1zm-3.5 118l3.5 2 3.5-2h-7z" fill="url(#paint4_linear_218_7144)" style="mix-blend-mode:multiply"/><path d="M406.408 930.269c36.136 6.68 48.357-17.29 80.269 24.765 31.911 42.055 47.774 45.566 32.084 67.266-15.689 21.69-18.585 18.4-74.987 13.29-55.112 13.38-23.864-13.11-75.19-48.188-45.762-40.121 1.687-63.812 37.824-57.133z" fill="url(#paint5_linear_218_7144)" fill-opacity=".3" style="mix-blend-mode:multiply"/><path d="M465.439 894.578c6.769-2.402 7.03 7.336 7.03 7.336-3.648 5.219-6.092 6.72-11.617 5.232 0 0-5.468-2.024-5.897-6.153-.429-4.128 3.714-4.013 10.484-6.415z" fill="url(#paint6_linear_218_7144)"/><path d="M402.988 893.866c6.481-3.01 16.393-12.32 24.27-.831 7.878 11.489-7.564 10.641-11.925 21.34-4.362 10.7-17.543 6.902-17.543 6.902-10.845-9.901-1.283-24.4 5.198-27.411z" fill="url(#paint7_linear_218_7144)"/><path fill-rule="evenodd" clip-rule="evenodd" d="M1436.48 779.5L1395 713l-41.48 66.5h82.96zm2.51 4.025l-.7.975h-87.89l-9.36 15h86.46l-3.6 5h-85.97l-21.84 35h82.63l-3.6 5h-82.14L1269 915h252l-24.17-38.75h-124.55l8.45-11.75h108.77l-3.12-5h-102.05l10.79-15h81.9l-3.11-5h-75.19l10.79-15h55.04l-3.12-5h-48.32l10.79-15h28.17l-3.11-5h-21.46l10.79-15h1.31l-.61-.975zm-25.88 35.975l-3.6 5h-44.01a2.5 2.5 0 010-5h47.61zm-28.78 40l-3.6 5h-43.98a2.5 2.5 0 010-5h47.58z" fill="#B7C5F2" fill-opacity=".35"/><defs><linearGradient id="paint0_linear_218_7144" x1="55.927" y1="371" x2="55.927" y2="467.75" gradientUnits="userSpaceOnUse"><stop stop-color="#D9DFFF"/><stop offset=".521" stop-color="#D6DCF9"/><stop offset=".719" stop-color="#C6CEFB"/><stop offset="1" stop-color="#C5CFFF"/></linearGradient><linearGradient id="paint1_linear_218_7144" x1="405.09" y1="123.639" x2="556.528" y2="279.293" gradientUnits="userSpaceOnUse"><stop stop-color="#F5F7FF"/><stop offset=".333" stop-color="#DEE2FF"/><stop offset=".677" stop-color="#D9E1FF"/><stop offset="1" stop-color="#F2F5FF"/></linearGradient><linearGradient id="paint2_linear_218_7144" x1="771.857" y1="379.805" x2="771.857" y2="431.167" gradientUnits="userSpaceOnUse"><stop stop-color="#D9DFFF"/><stop offset=".521" stop-color="#D6DCF9"/><stop offset=".719" stop-color="#C6CEFB"/><stop offset="1" stop-color="#C5CFFF"/></linearGradient><linearGradient id="paint3_linear_218_7144" x1="917.876" y1="526.637" x2="681.519" y2="813.172" gradientUnits="userSpaceOnUse"><stop stop-color="#D9DFFF"/><stop offset=".521" stop-color="#D6DCF9"/><stop offset=".719" stop-color="#C6CEFB"/><stop offset="1" stop-color="#C5CFFF"/></linearGradient><linearGradient id="paint4_linear_218_7144" x1="1244.5" y1="468" x2="1244.5" y2="588" gradientUnits="userSpaceOnUse"><stop stop-color="#D9DFFF"/><stop offset=".521" stop-color="#D6DCF9"/><stop offset=".719" stop-color="#C6CEFB"/><stop offset="1" stop-color="#C5CFFF"/></linearGradient><linearGradient id="paint5_linear_218_7144" x1="497.399" y1="923.719" x2="395.601" y2="1021.28" gradientUnits="userSpaceOnUse"><stop stop-color="#D9DFFF"/><stop offset=".521" stop-color="#D6DCF9"/><stop offset=".719" stop-color="#C6CEFB"/><stop offset="1" stop-color="#C5CFFF"/></linearGradient><linearGradient id="paint6_linear_218_7144" x1="389.683" y1="743.319" x2="321.8" y2="1218.82" gradientUnits="userSpaceOnUse"><stop stop-color="#F5F7FF"/><stop offset=".333" stop-color="#EBEDFF"/><stop offset=".677" stop-color="#EBEFFF"/><stop offset="1" stop-color="#F2F5FF"/></linearGradient><linearGradient id="paint7_linear_218_7144" x1="389.683" y1="743.319" x2="321.8" y2="1218.82" gradientUnits="userSpaceOnUse"><stop stop-color="#F5F7FF"/><stop offset=".333" stop-color="#EBEDFF"/><stop offset=".677" stop-color="#EBEFFF"/><stop offset="1" stop-color="#F2F5FF"/></linearGradient></defs></svg>