<svg width="18" height="20" viewBox="0 0 18 20" fill="none" xmlns="http://www.w3.org/2000/svg">
<g id="Abubakr__logo">
<g id="Vector 14">
<mask id="path-1-outside-1_13_24" maskUnits="userSpaceOnUse" x="2" y="2" width="15" height="16" fill="black">
<rect fill="white" x="2" y="2" width="15" height="16"/>
<path d="M10.5619 12.1176C12.7042 12.197 12.1032 11.8864 12.8614 11.5137C13.241 10.5818 14.063 11.164 14.5209 11.4883C14.3927 11.3983 13.6508 11.0085 13.6979 11.0387C13.7745 11.0879 14.8168 11.6755 14.8369 11.6549C16.7868 7.78611 0.491926 -0.354584 6.30709 4.50217C10.5984 8.08622 5.40505 9.78816 4.27621 10.8028C4.23035 10.8494 4.09671 11.0248 4.05344 11.0732C4.05156 11.0758 4.05546 11.0676 4.01912 11.124C4.01312 11.1333 3.88335 11.3379 3.88335 11.3379L3.87976 11.3426C3.86494 11.3619 3.26294 12.4953 3.2577 12.5C3.24619 12.5103 3.84993 11.3674 3.88335 11.3379C4.45644 10.3384 5.15327 11.7702 5.15327 11.7702C5.17156 11.7907 5.18998 11.8107 5.20853 11.83C7.3564 13.5674 7.71049 12.0119 10.5619 12.1176Z"/>
<path fill-rule="evenodd" clip-rule="evenodd" d="M3.86353 11.3602C3.86647 11.3551 4.00252 11.1428 4.01912 11.124C4.1545 10.9708 4.59183 10.678 5.15327 11.7702C5.15327 11.7702 4.45644 10.3384 3.88335 11.3379L3.87976 11.3426C3.86494 11.3619 3.26294 12.4953 3.2577 12.5C3.26231 12.4941 3.85892 11.3659 3.86353 11.3602ZM5.20853 11.83C5.18998 11.8107 5.17156 11.7907 5.15327 11.7702C5.17855 11.7866 5.19664 11.8067 5.20853 11.83Z"/>
<path fill-rule="evenodd" clip-rule="evenodd" d="M3.88335 11.3379C3.88335 11.3379 4.01312 11.1333 4.01912 11.124C4.1545 10.9708 4.59183 10.678 5.15327 11.7702C5.15327 11.7702 4.45644 10.3384 3.88335 11.3379Z"/>
<path fill-rule="evenodd" clip-rule="evenodd" d="M12.8614 11.5137C12.9863 11.2138 13.2461 10.9066 13.6979 11.0387C13.6508 11.0085 14.3927 11.3983 14.5209 11.4883C14.063 11.164 13.241 10.5818 12.8614 11.5137Z"/>
<path d="M12.8614 11.5137C12.8614 11.5137 13.1953 13.0979 12.4768 14.1229C11.7583 15.1479 13.7142 17.757 13.2878 16.788C12.8614 15.819 13.2148 14.5888 13.9186 14.1229C14.604 13.6692 14.8258 11.7125 14.8369 11.6549C14.8168 11.6755 13.7745 11.0879 13.6979 11.0387C13.2461 10.9066 12.9863 11.2138 12.8614 11.5137Z"/>
<path d="M4.68856 16.788C4.38129 17.5335 6.01318 15.2297 5.11495 14.1229C4.27156 13.0837 5.80818 12.5678 5.20853 11.83C5.18998 11.8107 5.17156 11.7907 5.15327 11.7702C4.59183 10.678 4.1545 10.9708 4.01912 11.124C4.01312 11.1333 3.88335 11.3379 3.88335 11.3379L3.87976 11.3426C3.86494 11.3619 3.26294 12.4953 3.2577 12.5C2.76238 13.1375 3.08012 13.8506 3.38656 14.1229C3.70118 14.4025 4.99583 16.0425 4.68856 16.788Z"/>
</mask>
<path d="M10.5619 12.1176C12.7042 12.197 12.1032 11.8864 12.8614 11.5137C13.241 10.5818 14.063 11.164 14.5209 11.4883C14.3927 11.3983 13.6508 11.0085 13.6979 11.0387C13.7745 11.0879 14.8168 11.6755 14.8369 11.6549C16.7868 7.78611 0.491926 -0.354584 6.30709 4.50217C10.5984 8.08622 5.40505 9.78816 4.27621 10.8028C4.23035 10.8494 4.09671 11.0248 4.05344 11.0732C4.05156 11.0758 4.05546 11.0676 4.01912 11.124C4.01312 11.1333 3.88335 11.3379 3.88335 11.3379L3.87976 11.3426C3.86494 11.3619 3.26294 12.4953 3.2577 12.5C3.24619 12.5103 3.84993 11.3674 3.88335 11.3379C4.45644 10.3384 5.15327 11.7702 5.15327 11.7702C5.17156 11.7907 5.18998 11.8107 5.20853 11.83C7.3564 13.5674 7.71049 12.0119 10.5619 12.1176Z" fill="url(#paint0_radial_13_24)"/>
<path d="M10.5619 12.1176C12.7042 12.197 12.1032 11.8864 12.8614 11.5137C13.241 10.5818 14.063 11.164 14.5209 11.4883C14.3927 11.3983 13.6508 11.0085 13.6979 11.0387C13.7745 11.0879 14.8168 11.6755 14.8369 11.6549C16.7868 7.78611 0.491926 -0.354584 6.30709 4.50217C10.5984 8.08622 5.40505 9.78816 4.27621 10.8028C4.23035 10.8494 4.09671 11.0248 4.05344 11.0732C4.05156 11.0758 4.05546 11.0676 4.01912 11.124C4.01312 11.1333 3.88335 11.3379 3.88335 11.3379L3.87976 11.3426C3.86494 11.3619 3.26294 12.4953 3.2577 12.5C3.24619 12.5103 3.84993 11.3674 3.88335 11.3379C4.45644 10.3384 5.15327 11.7702 5.15327 11.7702C5.17156 11.7907 5.18998 11.8107 5.20853 11.83C7.3564 13.5674 7.71049 12.0119 10.5619 12.1176Z" fill="#0A1A3D" fill-opacity="0.2"/>
<path fill-rule="evenodd" clip-rule="evenodd" d="M3.86353 11.3602C3.86647 11.3551 4.00252 11.1428 4.01912 11.124C4.1545 10.9708 4.59183 10.678 5.15327 11.7702C5.15327 11.7702 4.45644 10.3384 3.88335 11.3379L3.87976 11.3426C3.86494 11.3619 3.26294 12.4953 3.2577 12.5C3.26231 12.4941 3.85892 11.3659 3.86353 11.3602ZM5.20853 11.83C5.18998 11.8107 5.17156 11.7907 5.15327 11.7702C5.17855 11.7866 5.19664 11.8067 5.20853 11.83Z" fill="url(#paint1_radial_13_24)"/>
<path fill-rule="evenodd" clip-rule="evenodd" d="M3.86353 11.3602C3.86647 11.3551 4.00252 11.1428 4.01912 11.124C4.1545 10.9708 4.59183 10.678 5.15327 11.7702C5.15327 11.7702 4.45644 10.3384 3.88335 11.3379L3.87976 11.3426C3.86494 11.3619 3.26294 12.4953 3.2577 12.5C3.26231 12.4941 3.85892 11.3659 3.86353 11.3602ZM5.20853 11.83C5.18998 11.8107 5.17156 11.7907 5.15327 11.7702C5.17855 11.7866 5.19664 11.8067 5.20853 11.83Z" fill="#0A1A3D" fill-opacity="0.2"/>
<path fill-rule="evenodd" clip-rule="evenodd" d="M3.88335 11.3379C3.88335 11.3379 4.01312 11.1333 4.01912 11.124C4.1545 10.9708 4.59183 10.678 5.15327 11.7702C5.15327 11.7702 4.45644 10.3384 3.88335 11.3379Z" fill="url(#paint2_radial_13_24)"/>
<path fill-rule="evenodd" clip-rule="evenodd" d="M3.88335 11.3379C3.88335 11.3379 4.01312 11.1333 4.01912 11.124C4.1545 10.9708 4.59183 10.678 5.15327 11.7702C5.15327 11.7702 4.45644 10.3384 3.88335 11.3379Z" fill="#0A1A3D" fill-opacity="0.2"/>
<path fill-rule="evenodd" clip-rule="evenodd" d="M12.8614 11.5137C12.9863 11.2138 13.2461 10.9066 13.6979 11.0387C13.6508 11.0085 14.3927 11.3983 14.5209 11.4883C14.063 11.164 13.241 10.5818 12.8614 11.5137Z" fill="url(#paint3_radial_13_24)"/>
<path fill-rule="evenodd" clip-rule="evenodd" d="M12.8614 11.5137C12.9863 11.2138 13.2461 10.9066 13.6979 11.0387C13.6508 11.0085 14.3927 11.3983 14.5209 11.4883C14.063 11.164 13.241 10.5818 12.8614 11.5137Z" fill="#0A1A3D" fill-opacity="0.2"/>
<path d="M12.8614 11.5137C12.8614 11.5137 13.1953 13.0979 12.4768 14.1229C11.7583 15.1479 13.7142 17.757 13.2878 16.788C12.8614 15.819 13.2148 14.5888 13.9186 14.1229C14.604 13.6692 14.8258 11.7125 14.8369 11.6549C14.8168 11.6755 13.7745 11.0879 13.6979 11.0387C13.2461 10.9066 12.9863 11.2138 12.8614 11.5137Z" fill="url(#paint4_radial_13_24)"/>
<path d="M12.8614 11.5137C12.8614 11.5137 13.1953 13.0979 12.4768 14.1229C11.7583 15.1479 13.7142 17.757 13.2878 16.788C12.8614 15.819 13.2148 14.5888 13.9186 14.1229C14.604 13.6692 14.8258 11.7125 14.8369 11.6549C14.8168 11.6755 13.7745 11.0879 13.6979 11.0387C13.2461 10.9066 12.9863 11.2138 12.8614 11.5137Z" fill="#0A1A3D" fill-opacity="0.2"/>
<path d="M4.68856 16.788C4.38129 17.5335 6.01318 15.2297 5.11495 14.1229C4.27156 13.0837 5.80818 12.5678 5.20853 11.83C5.18998 11.8107 5.17156 11.7907 5.15327 11.7702C4.59183 10.678 4.1545 10.9708 4.01912 11.124C4.01312 11.1333 3.88335 11.3379 3.88335 11.3379L3.87976 11.3426C3.86494 11.3619 3.26294 12.4953 3.2577 12.5C2.76238 13.1375 3.08012 13.8506 3.38656 14.1229C3.70118 14.4025 4.99583 16.0425 4.68856 16.788Z" fill="url(#paint5_radial_13_24)"/>
<path d="M4.68856 16.788C4.38129 17.5335 6.01318 15.2297 5.11495 14.1229C4.27156 13.0837 5.80818 12.5678 5.20853 11.83C5.18998 11.8107 5.17156 11.7907 5.15327 11.7702C4.59183 10.678 4.1545 10.9708 4.01912 11.124C4.01312 11.1333 3.88335 11.3379 3.88335 11.3379L3.87976 11.3426C3.86494 11.3619 3.26294 12.4953 3.2577 12.5C2.76238 13.1375 3.08012 13.8506 3.38656 14.1229C3.70118 14.4025 4.99583 16.0425 4.68856 16.788Z" fill="#0A1A3D" fill-opacity="0.2"/>
<path d="M6.6276 4.11841C6.41565 3.94139 6.10034 3.96971 5.92333 4.18166C5.74631 4.3936 5.77463 4.70891 5.98658 4.88593L6.6276 4.11841ZM12.8614 11.5137L12.3984 11.3251C12.2945 11.5802 12.4164 11.8712 12.6711 11.9761C12.9257 12.0809 13.2172 11.9601 13.323 11.7059L12.8614 11.5137ZM5.15327 11.7702L4.70858 11.9988C4.72789 12.0364 4.75188 12.0713 4.77998 12.1029L5.15327 11.7702ZM14.8369 11.6549L15.1951 12.0037C15.3048 11.8911 15.3552 11.7333 15.331 11.5779C15.3068 11.4225 15.2109 11.2876 15.0721 11.2136L14.8369 11.6549ZM3.86353 11.3602L3.47563 11.0447C3.45915 11.065 3.44429 11.0865 3.43117 11.1091L3.86353 11.3602ZM3.88335 11.3379L4.28099 11.641C4.28968 11.6296 4.29788 11.6178 4.30557 11.6057L3.88335 11.3379ZM3.87976 11.3426L4.27626 11.6472L4.2774 11.6457L3.87976 11.3426ZM2.92478 12.127C2.71875 12.3108 2.70079 12.6269 2.88466 12.8329C3.06852 13.0389 3.3846 13.0569 3.59062 12.873L2.92478 12.127ZM4.84748 12.1759C5.03851 12.3753 5.35502 12.3821 5.55443 12.1911C5.75383 12.0001 5.76062 11.6835 5.56959 11.4841L4.84748 12.1759ZM4.01912 11.124L3.64445 10.7929C3.6277 10.8119 3.61241 10.8321 3.59871 10.8533L4.01912 11.124ZM14.5209 11.4883L14.2337 11.8975C14.4594 12.0559 14.7707 12.0017 14.9296 11.7764C15.0885 11.551 15.0349 11.2396 14.8099 11.0802L14.5209 11.4883ZM5.98658 4.88593C7.06648 5.78785 7.41603 6.49445 7.45707 7.01554C7.49721 7.52515 7.2526 8.00201 6.78388 8.47743C6.31355 8.95448 5.681 9.36492 5.08184 9.73482C4.79186 9.91385 4.5004 10.0892 4.26437 10.2477C4.04162 10.3973 3.79926 10.5756 3.65112 10.7764L4.45576 11.3701C4.48899 11.3251 4.59373 11.2311 4.82195 11.0778C5.03688 10.9335 5.30027 10.7752 5.60716 10.5857C6.20173 10.2187 6.93105 9.75251 7.49598 9.1795C8.06251 8.60488 8.52654 7.85822 8.45398 6.93702C8.38233 6.02729 7.79783 5.09577 6.6276 4.11841L5.98658 4.88593ZM5.15327 11.7702C5.60285 11.5514 5.60279 11.5513 5.60272 11.5511C5.60269 11.5511 5.60262 11.5509 5.60256 11.5508C5.60246 11.5506 5.60234 11.5503 5.60221 11.5501C5.60195 11.5496 5.60165 11.5489 5.6013 11.5482C5.6006 11.5468 5.59973 11.5451 5.59869 11.543C5.5966 11.5388 5.59382 11.5333 5.59037 11.5265C5.58348 11.5131 5.57387 11.4946 5.56174 11.4723C5.53758 11.4277 5.50287 11.3665 5.4592 11.2967C5.37505 11.1623 5.24407 10.9745 5.07718 10.8163C4.92371 10.6709 4.65434 10.469 4.30189 10.4843C3.91196 10.5012 3.63421 10.7672 3.44959 11.0892L4.31711 11.5866C4.41903 11.4089 4.44329 11.4791 4.3452 11.4833C4.2846 11.4859 4.29689 11.4546 4.38926 11.5421C4.46821 11.617 4.54726 11.7246 4.61167 11.8275C4.64228 11.8763 4.66649 11.9191 4.68268 11.949C4.69072 11.9638 4.69664 11.9752 4.70023 11.9822C4.70203 11.9857 4.70323 11.9881 4.70381 11.9893C4.70411 11.9899 4.70424 11.9901 4.70422 11.9901C4.70421 11.9901 4.70416 11.99 4.70407 11.9898C4.70403 11.9897 4.70397 11.9896 4.70391 11.9895C4.70388 11.9894 4.70382 11.9893 4.7038 11.9893C4.70375 11.9891 4.70368 11.989 5.15327 11.7702ZM3.48328 11.038C3.47168 11.0531 3.46346 11.0656 3.46092 11.0695C3.45723 11.0751 3.4543 11.0798 3.45254 11.0827C3.449 11.0885 3.44605 11.0935 3.4443 11.0965C3.44062 11.1029 3.4369 11.1095 3.43378 11.1151C3.42729 11.1267 3.41908 11.1417 3.40989 11.1585C3.39131 11.1927 3.36603 11.2395 3.33662 11.2942C3.27769 11.4039 3.20062 11.548 3.12414 11.6912C3.04751 11.8346 2.9715 11.9769 2.91423 12.0839C2.88556 12.1374 2.8619 12.1815 2.84534 12.2122C2.83697 12.2277 2.83091 12.2389 2.82708 12.2458C2.82502 12.2496 2.82447 12.2506 2.82488 12.2499C2.82505 12.2495 2.82548 12.2488 2.8261 12.2477C2.82665 12.2468 2.82783 12.2447 2.82942 12.2421C2.83051 12.2402 2.83422 12.2341 2.83936 12.2262C2.84174 12.2226 2.84722 12.2142 2.85474 12.204C2.85481 12.2039 2.88173 12.1654 2.92478 12.127L3.59062 12.873C3.63372 12.8346 3.6607 12.796 3.66084 12.7958C3.66844 12.7854 3.67402 12.777 3.67651 12.7732C3.68187 12.765 3.68588 12.7583 3.68734 12.7559C3.69083 12.75 3.69368 12.745 3.69494 12.7428C3.69792 12.7375 3.70106 12.7318 3.7037 12.727C3.70927 12.7169 3.7167 12.7032 3.72532 12.6872C3.74274 12.655 3.76708 12.6096 3.79582 12.5559C3.85336 12.4484 3.92975 12.3054 4.00613 12.1624C4.08266 12.0192 4.15919 11.8761 4.21747 11.7676C4.24667 11.7133 4.27089 11.6684 4.28809 11.6368C4.29679 11.6209 4.30305 11.6095 4.30701 11.6024C4.30911 11.5986 4.30962 11.5978 4.30908 11.5987C4.3089 11.599 4.30726 11.6018 4.30475 11.6059C4.3035 11.608 4.30102 11.612 4.2977 11.617C4.29554 11.6203 4.28762 11.6324 4.27625 11.6472L3.48328 11.038ZM5.56959 11.4841C5.55528 11.4692 5.54093 11.4537 5.52655 11.4375L4.77998 12.1029C4.80219 12.1278 4.82469 12.1521 4.84748 12.1759L5.56959 11.4841ZM3.43117 11.1091C3.42751 11.1154 3.4095 11.1459 3.39396 11.1878C3.38926 11.2005 3.36404 11.2662 3.36269 11.3545C3.362 11.3999 3.36637 11.4984 3.4254 11.6048C3.49599 11.7321 3.61697 11.82 3.75445 11.8505C3.86915 11.8759 3.96167 11.8544 4.00335 11.8422C4.05018 11.8285 4.08511 11.8107 4.10398 11.8004C4.14169 11.7796 4.16822 11.7586 4.17843 11.7503C4.20173 11.7314 4.21835 11.7144 4.22409 11.7084C4.24792 11.6839 4.26734 11.6588 4.27603 11.6475L3.4835 11.0377C3.4779 11.045 3.48762 11.0314 3.50612 11.0124C3.51053 11.0078 3.52609 10.9918 3.5486 10.9735C3.55841 10.9656 3.58461 10.9447 3.62206 10.9241C3.6408 10.9138 3.67561 10.8962 3.72234 10.8825C3.76392 10.8703 3.85636 10.8488 3.97101 10.8742C4.10842 10.9047 4.22935 10.9925 4.29991 11.1198C4.3589 11.2262 4.36326 11.3246 4.36257 11.3698C4.36123 11.4579 4.33607 11.5234 4.33151 11.5357C4.31624 11.5768 4.29875 11.6064 4.29588 11.6113L3.43117 11.1091ZM4.25142 11.6757C4.26301 11.6614 4.27179 11.6489 4.27235 11.6481C4.27521 11.6441 4.2777 11.6405 4.27935 11.6381C4.28276 11.6331 4.28635 11.6278 4.28954 11.623C4.29611 11.6132 4.30438 11.6007 4.3133 11.5871C4.33123 11.5599 4.35434 11.5245 4.37676 11.4903C4.39951 11.4556 4.42158 11.4219 4.43843 11.3964C4.44695 11.3835 4.45334 11.3739 4.45748 11.3678C4.45969 11.3645 4.46019 11.3638 4.45957 11.3647C4.45935 11.365 4.45757 11.3676 4.45486 11.3712C4.45351 11.3731 4.4509 11.3766 4.44746 11.381C4.44502 11.3842 4.43725 11.3941 4.4264 11.4063L3.68048 10.7402C3.66267 10.7602 3.64968 10.7782 3.64945 10.7785C3.64558 10.7838 3.64234 10.7884 3.64038 10.7912C3.63628 10.797 3.63217 10.8031 3.62881 10.808C3.62182 10.8184 3.61324 10.8313 3.60422 10.8449C3.586 10.8725 3.56275 10.908 3.54019 10.9424C3.51729 10.9774 3.49508 11.0113 3.47795 11.0374C3.46934 11.0505 3.46263 11.0606 3.45808 11.0674C3.45699 11.0691 3.45613 11.0703 3.45549 11.0713C3.45482 11.0723 3.45456 11.0726 3.45463 11.0726C3.45467 11.0725 3.4549 11.0722 3.45527 11.0716C3.45562 11.0711 3.45632 11.0701 3.45726 11.0688C3.45812 11.0676 3.45982 11.0652 3.46208 11.0622C3.46372 11.0599 3.46874 11.0532 3.47563 11.0447L4.25142 11.6757ZM3.48571 11.0348L3.48212 11.0395L4.2774 11.6457L4.28099 11.641L3.48571 11.0348ZM3.88335 11.3379C4.30557 11.6057 4.30557 11.6057 4.30557 11.6057C4.30557 11.6057 4.30557 11.6057 4.30557 11.6057C4.30558 11.6057 4.30558 11.6057 4.30559 11.6057C4.3056 11.6057 4.30563 11.6056 4.30566 11.6056C4.30572 11.6055 4.30581 11.6053 4.30594 11.6052C4.30618 11.6048 4.30655 11.6042 4.30702 11.6034C4.30797 11.6019 4.30937 11.5997 4.31115 11.5969C4.31471 11.5913 4.3198 11.5833 4.32592 11.5737C4.33818 11.5543 4.35458 11.5285 4.37116 11.5024C4.38775 11.4762 4.4045 11.4498 4.41747 11.4294C4.42396 11.4192 4.42947 11.4105 4.43353 11.4041C4.43816 11.3968 4.43978 11.3943 4.43952 11.3947L3.59871 10.8533C3.59453 10.8598 3.55902 10.9158 3.5268 10.9666C3.5102 10.9927 3.49378 11.0186 3.48151 11.0379C3.47538 11.0476 3.47029 11.0556 3.46672 11.0613C3.46494 11.0641 3.46354 11.0663 3.46259 11.0678C3.46212 11.0685 3.46175 11.0691 3.4615 11.0695C3.46138 11.0697 3.46129 11.0698 3.46122 11.0699C3.46119 11.07 3.46117 11.07 3.46115 11.07C3.46115 11.0701 3.46114 11.0701 3.46114 11.0701C3.46113 11.0701 3.46113 11.0701 3.46113 11.0701C3.46113 11.0701 3.46113 11.0701 3.88335 11.3379ZM4.39379 11.4551C4.39329 11.4557 4.39318 11.4558 4.39335 11.4556C4.39352 11.4554 4.39362 11.4554 4.39352 11.4554C4.39343 11.4555 4.39281 11.456 4.39156 11.4568C4.3903 11.4576 4.38812 11.4588 4.38496 11.4603C4.36815 11.4681 4.34062 11.4733 4.31674 11.4679C4.28662 11.4611 4.44435 11.4847 4.70858 11.9988L5.59796 11.5416C5.30075 10.9634 4.95909 10.5874 4.5361 10.4922C4.07952 10.3896 3.76434 10.6573 3.64445 10.7929L4.39379 11.4551ZM4.39379 11.4551C4.41182 11.4347 4.4307 11.4126 4.44757 11.3904C4.45575 11.3796 4.46879 11.3618 4.48233 11.3397C4.48923 11.3284 4.49912 11.3113 4.50926 11.2899C4.51836 11.2706 4.53451 11.2337 4.5456 11.1847C4.55138 11.1592 4.55731 11.1238 4.55797 11.0814C4.55863 11.0389 4.55411 10.9824 4.53373 10.9193C4.51261 10.854 4.47605 10.7871 4.42012 10.7283C4.36464 10.6699 4.30202 10.6321 4.24418 10.6088C4.18815 10.5862 4.13762 10.5776 4.10035 10.5744C4.06285 10.5712 4.03122 10.5727 4.00849 10.5749C3.96492 10.5791 3.93145 10.5882 3.91607 10.5926C3.89891 10.5976 3.88572 10.6025 3.88218 10.6038C3.88149 10.604 3.87736 10.6056 3.88032 10.6045C3.88074 10.6043 3.88606 10.6023 3.89288 10.6C3.89793 10.5983 3.91581 10.5922 3.93939 10.5867C3.95147 10.5838 3.97277 10.5793 3.99972 10.5764C4.01364 10.5749 4.03211 10.5735 4.05388 10.5735C4.07521 10.5735 4.10466 10.5749 4.13919 10.5809C4.17329 10.5868 4.22022 10.5986 4.27186 10.6237C4.32496 10.6495 4.38478 10.6903 4.43699 10.7528C4.49023 10.8165 4.52388 10.8888 4.54053 10.9609C4.55654 11.0303 4.5551 11.0912 4.54936 11.1364C4.54366 11.1813 4.53282 11.2178 4.52357 11.2434C4.51415 11.2694 4.50404 11.2906 4.49593 11.306C4.48024 11.3359 4.46472 11.358 4.45576 11.3701L3.65112 10.7764C3.64608 10.7832 3.64002 10.7918 3.63348 10.8019C3.62703 10.8119 3.61909 10.8249 3.61082 10.8407C3.60269 10.8561 3.59257 10.8773 3.58314 10.9034C3.57834 10.9167 3.57337 10.9322 3.5689 10.9497C3.56444 10.9671 3.56024 10.9875 3.55733 11.0104C3.55159 11.0556 3.55015 11.1166 3.56617 11.1859C3.57424 11.2209 3.58657 11.2571 3.60422 11.2932C3.62192 11.3294 3.64392 11.3633 3.66972 11.3941C3.69545 11.4249 3.72343 11.4509 3.75197 11.4724C3.78036 11.4939 3.80858 11.5104 3.83489 11.5232C3.86111 11.536 3.88584 11.5451 3.90783 11.5518C3.92981 11.5585 3.95 11.563 3.96762 11.5661C3.98526 11.5691 4.0013 11.571 4.01525 11.572C4.02924 11.5731 4.04192 11.5735 4.053 11.5735C4.07479 11.5735 4.09329 11.5721 4.10724 11.5706C4.12141 11.5691 4.13356 11.5671 4.14308 11.5654C4.15271 11.5636 4.16105 11.5618 4.16778 11.5602C4.18089 11.5572 4.19147 11.5541 4.19825 11.5521C4.20531 11.55 4.21106 11.548 4.21487 11.5467C4.21877 11.5454 4.22194 11.5443 4.22391 11.5436C4.22591 11.5429 4.22749 11.5423 4.22818 11.542C4.22868 11.5418 4.22954 11.5415 4.22905 11.5417C4.22892 11.5417 4.22817 11.542 4.2272 11.5424C4.22531 11.5431 4.22137 11.5445 4.21633 11.5462C4.21129 11.5479 4.20407 11.5503 4.19529 11.5529C4.18661 11.5554 4.17481 11.5586 4.16066 11.5616C4.14674 11.5646 4.12769 11.568 4.10484 11.5702C4.09322 11.5713 4.07981 11.5722 4.06491 11.5725C4.05004 11.5727 4.03287 11.5723 4.01387 11.5707C3.99489 11.569 3.97314 11.566 3.94938 11.5608C3.9256 11.5555 3.89901 11.5478 3.87079 11.5365C3.84246 11.5251 3.81244 11.5099 3.78225 11.49C3.75193 11.47 3.72256 11.4459 3.69544 11.4174C3.66829 11.3888 3.64502 11.3576 3.6258 11.3246C3.60665 11.2917 3.59247 11.2587 3.58221 11.2269C3.56192 11.1642 3.55744 11.1079 3.55809 11.0658C3.55842 11.0444 3.56011 11.0251 3.56231 11.0085C3.56451 10.9918 3.56735 10.9768 3.57028 10.9639C3.57605 10.9384 3.58294 10.9174 3.5887 10.9018C3.59455 10.8859 3.60039 10.8726 3.60523 10.8624C3.61013 10.8521 3.61474 10.8433 3.61859 10.8363C3.62248 10.8292 3.62605 10.8231 3.62906 10.8182C3.63494 10.8086 3.64 10.8011 3.64332 10.7964C3.64676 10.7915 3.64951 10.7878 3.65119 10.7856C3.65438 10.7814 3.65578 10.7798 3.65416 10.7817C3.65274 10.7834 3.64969 10.787 3.64445 10.7929L4.39379 11.4551ZM13.323 11.7059C13.3656 11.6036 13.4145 11.5448 13.4475 11.5212C13.4601 11.5122 13.4684 11.5095 13.476 11.5082C13.4838 11.507 13.5086 11.5042 13.5576 11.5186L13.8382 10.5588C13.4674 10.4504 13.1304 10.519 12.8666 10.7072C12.6256 10.8792 12.4821 11.1239 12.3999 11.3215L13.323 11.7059ZM13.9681 10.618C13.9703 10.6194 13.983 10.6275 13.9987 10.6394C14.0044 10.6437 14.0262 10.6603 14.0509 10.6852C14.0619 10.6962 14.0901 10.7254 14.1178 10.7691C14.1303 10.7888 14.2254 10.9324 14.1866 11.1322C14.1327 11.4101 13.9006 11.5026 13.8095 11.5239C13.7235 11.544 13.654 11.5356 13.6359 11.5334C13.5874 11.5275 13.5509 11.5155 13.5447 11.5136C13.5223 11.5064 13.5055 11.4992 13.5033 11.4983C13.4901 11.4927 13.4823 11.4886 13.4925 11.4937C13.5042 11.4994 13.5263 11.5107 13.5583 11.5273C13.6209 11.5598 13.7112 11.6074 13.8074 11.659C13.9037 11.7107 14.0039 11.7653 14.087 11.8118C14.1286 11.8352 14.1643 11.8556 14.1922 11.8722C14.2235 11.8907 14.2347 11.8982 14.2337 11.8975L14.8082 11.079C14.7131 11.0122 14.461 10.8748 14.28 10.7778C14.1806 10.7244 14.0862 10.6746 14.0189 10.6397C13.9859 10.6226 13.9569 10.6077 13.9364 10.5976C13.9306 10.5947 13.9116 10.5852 13.8926 10.5772C13.889 10.5757 13.8711 10.568 13.8479 10.5606C13.8414 10.5586 13.8045 10.5465 13.7559 10.5406C13.7377 10.5384 13.6681 10.53 13.5821 10.5501C13.4909 10.5714 13.2588 10.6639 13.2049 10.9418C13.1661 11.1417 13.2611 11.2854 13.2737 11.3052C13.3014 11.3488 13.3297 11.3781 13.3408 11.3893C13.3657 11.4143 13.3877 11.4311 13.3938 11.4357C13.4102 11.4482 13.424 11.457 13.4277 11.4594L13.9681 10.618ZM14.8099 11.0802C14.6028 10.9335 14.1982 10.6378 13.7713 10.542C13.5406 10.4903 13.2592 10.4855 12.9861 10.6272C12.7129 10.769 12.5233 11.0184 12.3984 11.3251L13.3245 11.7023C13.3894 11.5431 13.4448 11.5158 13.4468 11.5148C13.4489 11.5137 13.4728 11.4999 13.5524 11.5178C13.7458 11.5612 13.9812 11.7187 14.232 11.8963L14.8099 11.0802ZM14.4788 11.306C14.6173 11.1637 14.7834 11.157 14.8163 11.1557C14.8712 11.1537 14.9132 11.1614 14.929 11.1645C14.9642 11.1715 14.989 11.1807 14.9923 11.1819C15.0042 11.1862 15.0076 11.1883 14.9958 11.1828C14.9758 11.1735 14.9413 11.1563 14.8921 11.1307C14.7958 11.0806 14.6654 11.0099 14.5302 10.9352C14.3956 10.861 14.2592 10.7845 14.152 10.7237C14.0983 10.6932 14.0525 10.6671 14.0183 10.6473C13.9789 10.6245 13.9657 10.6164 13.9681 10.618L13.4277 11.4594C13.4836 11.4953 13.7815 11.6642 14.047 11.8107C14.1844 11.8866 14.3232 11.962 14.4304 12.0177C14.4829 12.0451 14.5337 12.0708 14.5749 12.0899C14.5936 12.0986 14.6216 12.1112 14.651 12.1219C14.6631 12.1262 14.6949 12.1376 14.7352 12.1456C14.7535 12.1492 14.7977 12.1572 14.8541 12.155C14.8887 12.1537 15.0559 12.1466 15.1951 12.0037L14.4788 11.306ZM13.5576 11.5186C13.5203 11.5077 13.4956 11.4948 13.5117 11.5023C13.5164 11.5045 13.5261 11.5092 13.5418 11.5172C13.5727 11.5328 13.6159 11.5554 13.669 11.5837C13.7747 11.64 13.9104 11.714 14.0462 11.7887C14.3093 11.9332 14.5876 12.0886 14.6018 12.0961L15.0721 11.2136C15.0745 11.2149 15.0626 11.2083 15.0275 11.1888C14.9968 11.1717 14.9538 11.1478 14.9027 11.1194C14.8004 11.0627 14.665 10.9877 14.5279 10.9123C14.391 10.8371 14.2509 10.7606 14.1395 10.7013C14.0841 10.6717 14.0334 10.6452 13.9929 10.6247C13.973 10.6146 13.9525 10.6045 13.9338 10.5958C13.9265 10.5924 13.8848 10.5724 13.8382 10.5588L13.5576 11.5186ZM6.30709 4.50217L6.94811 3.73465L6.30709 4.50217ZM10.5619 12.1176L10.599 11.1183L10.599 11.1183L10.5619 12.1176ZM4.27621 10.8028L3.60771 10.0591C3.59262 10.0727 3.57795 10.0867 3.56372 10.1012L4.27621 10.8028ZM12.8614 11.5137L13.84 11.3075C13.7763 11.0055 13.5768 10.7498 13.2992 10.6146C13.0217 10.4795 12.6973 10.4801 12.4203 10.6163L12.8614 11.5137ZM4.05344 11.0732L3.30753 10.4072C3.28684 10.4304 3.26724 10.4545 3.2488 10.4795L4.05344 11.0732ZM5.69823 10.9317C5.23516 10.6308 4.61578 10.7622 4.3148 11.2252C4.01383 11.6883 4.14524 12.3077 4.60831 12.6087L5.69823 10.9317ZM5.11495 14.1229L4.33848 14.7531L4.33848 14.7531L5.11495 14.1229ZM3.38656 14.1229L2.72234 14.8704L2.72234 14.8704L3.38656 14.1229ZM13.9186 14.1229L14.4706 14.9568L14.4706 14.9568L13.9186 14.1229ZM14.8369 11.6549L13.9439 11.2048C13.9024 11.2871 13.8725 11.3749 13.855 11.4655L14.8369 11.6549ZM3.86353 11.3602L4.63931 11.9912C4.67227 11.9507 4.702 11.9076 4.72824 11.8625L3.86353 11.3602ZM4.54445 12.0882C4.95883 11.7231 4.99876 11.0912 4.63364 10.6768C4.26853 10.2624 3.63662 10.2225 3.22225 10.5876L4.54445 12.0882ZM3.2577 12.5L4.04737 13.1135L4.04737 13.1135L3.2577 12.5ZM5.20853 11.83L4.31723 12.2834C4.34929 12.3465 4.38794 12.4059 4.43254 12.4608L5.20853 11.83ZM4.01912 11.124L4.76845 11.7862C4.80192 11.7483 4.83247 11.708 4.85983 11.6655L4.01912 11.124ZM5.66606 5.26969C6.65706 6.09736 6.92184 6.67394 6.96935 7.0001C7.01012 7.28005 6.91778 7.57389 6.58192 7.94593C6.23271 8.33277 5.71815 8.6903 5.14678 9.04409C4.93126 9.17754 4.53129 9.41654 4.33457 9.53917C4.09207 9.69035 3.82038 9.86797 3.60771 10.0591L4.94472 11.5466C5.01425 11.484 5.15179 11.3865 5.3926 11.2364C5.6792 11.0577 5.83663 10.9693 6.19968 10.7445C6.78544 10.3818 7.51267 9.89959 8.06649 9.2861C8.63366 8.65783 9.1056 7.79075 8.94847 6.71186C8.79807 5.67918 8.10277 4.69901 6.94811 3.73465L5.66606 5.26969ZM3.56372 10.1012C3.53677 10.1285 3.51413 10.1542 3.50066 10.1696C3.48534 10.1873 3.4706 10.2048 3.45778 10.2203C3.43231 10.2511 3.40542 10.2846 3.38282 10.3128C3.35788 10.344 3.33923 10.3675 3.32147 10.3896C3.30014 10.416 3.29895 10.4168 3.30753 10.4072L4.79935 11.7393C4.82956 11.7055 4.86131 11.6661 4.87864 11.6446C4.89953 11.6187 4.92528 11.5863 4.94489 11.5618C4.96684 11.5344 4.98466 11.5123 4.9985 11.4955C5.00533 11.4873 5.00889 11.4831 5.00984 11.482C5.01262 11.4788 5.00419 11.4888 4.98871 11.5045L3.56372 10.1012ZM4.33848 14.7531C4.35151 14.7691 4.39871 14.8396 4.3859 15.0504C4.37306 15.2618 4.30317 15.5171 4.19949 15.7674C4.09466 16.0204 3.9855 16.1966 3.95012 16.2441C3.93995 16.2577 3.95888 16.2296 4.00341 16.1874C4.0211 16.1707 4.08608 16.1096 4.1895 16.053C4.23449 16.0284 4.61599 15.8141 5.07325 16.0243C5.58517 16.2597 5.63934 16.7535 5.64635 16.8403C5.65748 16.9782 5.63506 17.081 5.63001 17.1043C5.61624 17.168 5.60108 17.1982 5.61311 17.1691L3.76402 16.4069C3.73763 16.4709 3.69921 16.5705 3.67515 16.6818C3.66496 16.729 3.64063 16.8501 3.65283 17.0012C3.66091 17.1012 3.71911 17.603 4.23776 17.8415C4.70175 18.0548 5.09268 17.8387 5.14951 17.8076C5.26479 17.7445 5.34404 17.6723 5.37816 17.64C5.45553 17.5668 5.51591 17.49 5.55362 17.4394C5.70973 17.23 5.89479 16.9008 6.04724 16.5328C6.20085 16.1619 6.35131 15.6803 6.38222 15.1717C6.41316 14.6626 6.32751 14.0301 5.89142 13.4927L4.33848 14.7531ZM5.61311 17.1691C5.82552 16.6537 5.71831 16.1299 5.61254 15.7951C5.4964 15.4275 5.31044 15.0683 5.12707 14.7643C4.77149 14.1747 4.30874 13.6046 4.05079 13.3754L2.72234 14.8704C2.71857 14.8671 2.74314 14.8897 2.79789 14.9513C2.84769 15.0074 2.90993 15.0815 2.97956 15.1702C3.11971 15.3486 3.27698 15.5693 3.41447 15.7972C3.55568 16.0313 3.65544 16.2393 3.70546 16.3977C3.76584 16.5888 3.70524 16.5495 3.76402 16.4069L5.61311 17.1691ZM12.4203 10.6163C12.1162 10.7657 11.9289 10.9229 11.7915 11.0546C11.6462 11.1939 11.7097 11.13 11.7566 11.1047C11.8175 11.0719 11.8184 11.0956 11.6262 11.1134C11.434 11.1312 11.1207 11.1376 10.599 11.1183L10.5249 13.1169C11.0743 13.1373 11.4892 13.1347 11.8106 13.1049C12.1318 13.0752 12.4315 13.0128 12.7048 12.8657C12.964 12.7261 13.1533 12.5196 13.1755 12.4984C13.2056 12.4695 13.2275 12.4481 13.3026 12.4112L12.4203 10.6163ZM12.8614 11.5137C11.8829 11.7199 11.8829 11.7196 11.8828 11.7194C11.8828 11.7193 11.8828 11.7191 11.8827 11.7189C11.8827 11.7186 11.8826 11.7183 11.8825 11.718C11.8824 11.7175 11.8823 11.717 11.8823 11.7167C11.8821 11.716 11.882 11.7156 11.882 11.7156C11.882 11.7156 11.8823 11.7171 11.8829 11.7198C11.8839 11.7253 11.8859 11.7362 11.8886 11.7518C11.894 11.7832 11.9018 11.8334 11.9097 11.8983C11.9258 12.0296 11.9411 12.2141 11.9386 12.4218C11.9332 12.8668 11.8472 13.2788 11.6579 13.5489L13.2956 14.6969C13.8248 13.9419 13.9311 13.0493 13.9385 12.4461C13.9423 12.1296 13.9191 11.8539 13.895 11.6562C13.8829 11.5566 13.8703 11.475 13.8602 11.4158C13.8551 11.3861 13.8507 11.3619 13.8472 11.3437C13.8454 11.3346 13.8439 11.327 13.8427 11.321C13.8421 11.3179 13.8416 11.3153 13.8411 11.3131C13.8409 11.3119 13.8407 11.3109 13.8405 11.31C13.8404 11.3095 13.8403 11.3091 13.8402 11.3087C13.8402 11.3085 13.8401 11.3082 13.8401 11.3081C13.84 11.3078 13.84 11.3075 12.8614 11.5137ZM11.6579 13.5489C11.2413 14.1433 11.2858 14.8402 11.3802 15.3065C11.4814 15.8064 11.6897 16.2913 11.8872 16.6678C12.08 17.0353 12.3071 17.3834 12.4974 17.5944C12.5391 17.6406 12.6312 17.7399 12.7581 17.8238C12.8081 17.8569 12.974 17.9643 13.2146 17.9929C13.3512 18.0091 13.5453 18.0035 13.7514 17.9105C13.9662 17.8137 14.1173 17.6565 14.2104 17.4963C14.3682 17.2249 14.3512 16.9659 14.3466 16.9004C14.3394 16.7984 14.3191 16.7145 14.3056 16.665C14.2775 16.5623 14.2379 16.4644 14.2031 16.3853L12.3725 17.1907C12.3909 17.2327 12.3861 17.228 12.3765 17.193C12.3723 17.1774 12.3572 17.121 12.3515 17.0405C12.3484 16.9964 12.3292 16.7529 12.4813 16.4912C12.5717 16.3358 12.7191 16.1821 12.9294 16.0873C13.131 15.9963 13.3198 15.9913 13.4503 16.0068C13.6787 16.0339 13.8294 16.1345 13.8613 16.1556C13.9155 16.1914 13.95 16.2231 13.9613 16.2336C13.9689 16.2407 13.9743 16.2462 13.9773 16.2493C13.9805 16.2526 13.9822 16.2545 13.9824 16.2547C13.9826 16.2549 13.9793 16.2512 13.9723 16.2426C13.9656 16.2343 13.9567 16.2229 13.9457 16.2082C13.9236 16.1785 13.8963 16.1396 13.865 16.0919C13.8021 15.9962 13.7299 15.8752 13.6583 15.7387C13.5099 15.4559 13.3905 15.1569 13.3404 14.9095C13.2835 14.6287 13.353 14.615 13.2956 14.6969L11.6579 13.5489ZM13.3666 13.289C12.754 13.6946 12.3762 14.3632 12.2098 15.0218C12.0403 15.693 12.0573 16.4744 12.3725 17.1907L14.2031 16.3853C14.0919 16.1326 14.0725 15.8144 14.1489 15.5117C14.2285 15.1965 14.3794 15.0171 14.4706 14.9568L13.3666 13.289ZM6.94811 3.73465C6.59949 3.44348 6.35071 3.215 6.18286 3.04242C5.99704 2.85136 5.96675 2.78524 5.9823 2.81703C5.98766 2.82799 6.06292 2.97511 6.04269 3.20089C6.01558 3.50343 5.83502 3.76338 5.58913 3.90055C5.40572 4.00285 5.25369 4.00002 5.24078 4C5.20973 3.99995 5.21109 3.9963 5.25808 4.00603C5.47001 4.0499 5.90462 4.2091 6.52925 4.51118C7.13095 4.80217 7.8467 5.19499 8.59803 5.65785C10.1122 6.59064 11.7033 7.76623 12.7819 8.90865C13.3242 9.48309 13.6893 9.99957 13.8712 10.4282C14.0489 10.8468 14.0111 11.0715 13.9439 11.2048L15.7299 12.1049C16.1502 11.271 16.0298 10.395 15.7123 9.64686C15.399 8.90882 14.8563 8.19253 14.2361 7.53563C12.9896 6.21536 11.236 4.93393 9.64705 3.95505C8.84683 3.46207 8.07143 3.03539 7.4 2.71068C6.75151 2.39706 6.13103 2.14434 5.66354 2.04756C5.54067 2.02212 5.39566 2.00026 5.24417 2C5.11083 1.99978 4.8643 2.01475 4.61481 2.15392C4.30283 2.32795 4.08459 2.64382 4.05067 3.02241C4.02363 3.32423 4.12294 3.5675 4.18569 3.69579C4.31601 3.96223 4.53382 4.21545 4.74913 4.43683C4.98241 4.67669 5.28779 4.95376 5.66606 5.26969L6.94811 3.73465ZM4.04737 13.1135C4.08074 13.0706 4.10366 13.0333 4.10452 13.0319C4.11131 13.0211 4.11647 13.0124 4.11887 13.0083C4.12396 12.9997 4.12788 12.9928 4.12935 12.9902C4.13282 12.984 4.1357 12.9788 4.13697 12.9765C4.13999 12.971 4.14315 12.9651 4.14576 12.9602C4.15131 12.9499 4.15868 12.9362 4.1672 12.9202C4.18443 12.8879 4.20849 12.8426 4.23687 12.7892C4.29371 12.6821 4.36904 12.54 4.44412 12.3984C4.51933 12.2566 4.59429 12.1152 4.65072 12.0089C4.67899 11.9557 4.70229 11.9119 4.71854 11.8815C4.72676 11.8661 4.73262 11.8551 4.73622 11.8485C4.7382 11.8448 4.73851 11.8442 4.73784 11.8454C4.73776 11.8456 4.73562 11.8495 4.73252 11.855C4.73126 11.8572 4.72719 11.8643 4.7217 11.8735C4.71913 11.8778 4.71339 11.8874 4.70575 11.8993C4.70517 11.9002 4.6786 11.9429 4.63931 11.9912L3.08774 10.7292C3.04842 10.7775 3.02179 10.8203 3.02115 10.8213C3.01343 10.8334 3.0076 10.843 3.00493 10.8475C2.99922 10.8571 2.99486 10.8647 2.99325 10.8676C2.98943 10.8743 2.98629 10.88 2.98495 10.8824C2.98175 10.8883 2.97846 10.8944 2.97581 10.8993C2.97016 10.9097 2.96272 10.9236 2.95418 10.9396C2.93691 10.972 2.9128 11.0173 2.88442 11.0708C2.82755 11.1778 2.7522 11.3199 2.6771 11.4616C2.60188 11.6035 2.52691 11.7449 2.47044 11.8512C2.44217 11.9045 2.41883 11.9484 2.40253 11.9789C2.39429 11.9944 2.38837 12.0055 2.38467 12.0123C2.38266 12.0161 2.38221 12.0169 2.38269 12.016C2.3827 12.016 2.38459 12.0125 2.38734 12.0076C2.38846 12.0056 2.39209 11.9992 2.39697 11.991C2.39926 11.9871 2.40433 11.9786 2.41105 11.9679C2.41184 11.9666 2.43471 11.9294 2.46804 11.8865L4.04737 13.1135ZM4.60831 12.6087C4.49868 12.5374 4.39139 12.4292 4.31723 12.2834L6.09984 11.3766C6.00189 11.1841 5.85842 11.0359 5.69823 10.9317L4.60831 12.6087ZM4.43254 12.4608C4.42088 12.4464 4.38002 12.3883 4.36079 12.2903C4.34179 12.1934 4.35581 12.1181 4.36446 12.0869C4.3706 12.0647 4.37219 12.0716 4.34143 12.1282C4.30319 12.1986 4.27705 12.2381 4.20546 12.3614C4.0978 12.5469 3.89626 12.9021 3.86113 13.3521C3.82167 13.8574 3.99602 14.3311 4.33848 14.7531L5.89142 13.4927C5.81218 13.3951 5.86233 13.4146 5.85506 13.5078C5.8521 13.5457 5.8391 13.531 5.93522 13.3654C5.98651 13.277 6.20091 12.9497 6.29211 12.6199C6.34731 12.4203 6.37642 12.1756 6.32338 11.9052C6.27011 11.6337 6.1461 11.3981 5.98453 11.1993L4.43254 12.4608ZM4.57964 12.6075C5.17693 13.0907 5.72828 13.4105 6.29519 13.56C6.88334 13.7151 7.3915 13.6611 7.83825 13.5619C8.71849 13.3664 9.27042 13.0704 10.5249 13.1169L10.599 11.1183C9.00201 11.0591 7.95117 11.4881 7.40454 11.6095C7.13785 11.6687 6.97655 11.6713 6.80511 11.6261C6.61244 11.5753 6.31408 11.4381 5.83743 11.0525L4.57964 12.6075ZM4.05079 13.3754C4.06631 13.3892 4.05565 13.3831 4.03779 13.3516C4.02151 13.3228 4.00939 13.2905 4.00368 13.2606C3.99834 13.2327 3.99951 13.2125 4.00279 13.1974C4.0055 13.185 4.01342 13.1572 4.04737 13.1135L2.46804 11.8865C2.0256 12.4559 1.93535 13.0927 2.03926 13.6362C2.13605 14.1425 2.40262 14.5863 2.72234 14.8704L4.05079 13.3754ZM14.4706 14.9568C14.8713 14.6915 15.1106 14.284 15.2537 13.9815C15.4086 13.654 15.5196 13.2981 15.599 12.9899C15.7482 12.4107 15.8367 11.7518 15.8188 11.8442L13.855 11.4655C13.8261 11.6156 13.7981 11.9638 13.6623 12.4908C13.5992 12.7356 13.5255 12.9576 13.4457 13.1264C13.3541 13.3202 13.3087 13.3274 13.3666 13.289L14.4706 14.9568ZM2.5918 11.754C2.59712 11.7492 2.77524 11.5749 3.0675 11.5183C3.24548 11.5001 3.64507 11.5782 3.84572 11.6913C3.99868 11.8287 4.18171 12.118 4.2255 12.2489C4.2822 12.4675 4.24671 12.6477 4.24391 12.6645C4.23461 12.7202 4.22251 12.763 4.21687 12.7822C4.20484 12.823 4.19279 12.8539 4.1889 12.8638C4.18344 12.8778 4.17878 12.8887 4.17616 12.8948C4.17091 12.9069 4.16673 12.9158 4.16534 12.9188C4.16351 12.9227 4.16224 12.9253 4.16186 12.9261C4.16123 12.9274 4.1635 12.9227 4.17068 12.9087C4.18388 12.8828 4.20484 12.8423 4.2321 12.7902C4.28613 12.6869 4.36026 12.5465 4.43602 12.4045C4.51204 12.2619 4.58798 12.1209 4.64609 12.0153C4.67558 11.9616 4.69782 11.922 4.71214 11.8972C4.71987 11.8838 4.72121 11.8819 4.71817 11.8868C4.71714 11.8884 4.70941 11.9008 4.6973 11.9181C4.69135 11.9265 4.67914 11.9437 4.66223 11.9648C4.65201 11.9776 4.60975 12.0307 4.54445 12.0882L3.22225 10.5876C3.1559 10.6461 3.11232 10.7006 3.1005 10.7154C3.08201 10.7385 3.06794 10.7582 3.05986 10.7697C3.0435 10.793 3.03049 10.8135 3.02321 10.8251C3.00766 10.8499 2.99261 10.8755 2.98065 10.8962C2.9556 10.9396 2.92528 10.9939 2.89365 11.0514C2.82952 11.168 2.74899 11.3177 2.67133 11.4632C2.59342 11.6093 2.51668 11.7546 2.45971 11.8636C2.43146 11.9176 2.40688 11.965 2.38914 11.9998C2.38085 12.016 2.3713 12.0349 2.36307 12.0518C2.36047 12.0572 2.35081 12.077 2.34062 12.1005C2.3376 12.1075 2.33261 12.1193 2.32688 12.1339C2.32274 12.1444 2.3105 12.1759 2.29835 12.2171C2.29265 12.2365 2.28051 12.2794 2.27119 12.3353C2.26837 12.3522 2.23288 12.5325 2.28959 12.7512C2.33339 12.882 2.51643 13.1714 2.66941 13.3088C2.87008 13.4219 3.26969 13.5 3.4477 13.4818C3.74001 13.4252 3.9182 13.2509 3.92361 13.246L2.5918 11.754ZM3.2488 10.4795C3.26187 10.4618 3.2814 10.4365 3.30702 10.4078C3.33509 10.3763 3.36161 10.3506 3.38401 10.3305C3.39299 10.3224 3.40029 10.3162 3.40087 10.3157C3.40328 10.3136 3.39801 10.3181 3.39307 10.3224C3.37898 10.3348 3.3613 10.351 3.34166 10.3709C3.30579 10.4071 3.28002 10.4387 3.26646 10.4559C3.25244 10.4737 3.24161 10.4886 3.23554 10.4971C3.22344 10.514 3.21289 10.5298 3.20591 10.5403C3.1979 10.5524 3.18881 10.5664 3.1784 10.5825L4.85983 11.6655C4.8676 11.6534 4.87164 11.6473 4.87319 11.6449C4.87391 11.6439 4.87345 11.6446 4.87211 11.6465C4.87093 11.6483 4.86763 11.6531 4.86287 11.6598C4.8604 11.6632 4.85701 11.6679 4.85286 11.6735C4.84877 11.679 4.84313 11.6864 4.83622 11.6952C4.82937 11.7039 4.81992 11.7155 4.80824 11.729C4.7963 11.7428 4.78123 11.7595 4.76313 11.7778C4.75404 11.787 4.74488 11.7959 4.73566 11.8045C4.72643 11.8131 4.71842 11.8203 4.7123 11.8256C4.7094 11.8282 4.70707 11.8302 4.70577 11.8313C4.70514 11.8319 4.70464 11.8323 4.70449 11.8324C4.70408 11.8328 4.70463 11.8323 4.70474 11.8322C4.70527 11.8318 4.70742 11.8299 4.71013 11.8275C4.71298 11.8251 4.71702 11.8215 4.72182 11.8172C4.73179 11.8082 4.74433 11.7966 4.75841 11.7826C4.77253 11.7685 4.78615 11.7541 4.79927 11.7394C4.82506 11.7105 4.84477 11.685 4.85808 11.667L3.2488 10.4795ZM4.72824 11.8625C4.72402 11.8697 4.72064 11.8753 4.71934 11.8775C4.71766 11.8802 4.71631 11.8824 4.71551 11.8838C4.71392 11.8863 4.71271 11.8883 4.71224 11.889C4.71123 11.8906 4.71062 11.8916 4.71079 11.8913C4.711 11.891 4.71186 11.8896 4.71358 11.887C4.71688 11.8818 4.72189 11.8739 4.7282 11.8641C4.74081 11.8445 4.75756 11.8185 4.77455 11.7924C4.79192 11.7657 4.80784 11.7414 4.81941 11.7241C4.82545 11.7151 4.82796 11.7115 4.82777 11.7117C4.82754 11.7121 4.82678 11.7132 4.82558 11.7148C4.82444 11.7164 4.82233 11.7194 4.81944 11.7233C4.81678 11.7269 4.81184 11.7335 4.80526 11.742C4.79991 11.7488 4.78672 11.7655 4.76845 11.7862L3.26978 10.4618C3.23744 10.4984 3.21381 10.5308 3.2099 10.5361C3.20085 10.5484 3.19308 10.5594 3.1878 10.567C3.17699 10.5825 3.16612 10.5985 3.15703 10.6121C3.13833 10.6401 3.11694 10.6728 3.09786 10.7021C3.07184 10.7421 3.01671 10.8271 2.99881 10.8579L4.72824 11.8625Z" fill="#EEF0FF" mask="url(#path-1-outside-1_13_24)"/>
</g>
<path id="Vector 15" d="M9.08291 9.50002L10.6415 9.5C10.9211 9.5 10.6415 10.0092 10.0181 10.0092C9.39463 10.0092 8.77119 9.50004 9.08291 9.50002Z" fill="#EEF0FF" stroke="#EEF0FF" stroke-linecap="round"/>
</g>
<defs>
<radialGradient id="paint0_radial_13_24" cx="0" cy="0" r="1" gradientUnits="userSpaceOnUse" gradientTransform="translate(9 10) rotate(90) scale(7 6)">
<stop stop-color="#505D84"/>
<stop offset="1" stop-color="#212F53"/>
</radialGradient>
<radialGradient id="paint1_radial_13_24" cx="0" cy="0" r="1" gradientUnits="userSpaceOnUse" gradientTransform="translate(9 10) rotate(90) scale(7 6)">
<stop stop-color="#505D84"/>
<stop offset="1" stop-color="#212F53"/>
</radialGradient>
<radialGradient id="paint2_radial_13_24" cx="0" cy="0" r="1" gradientUnits="userSpaceOnUse" gradientTransform="translate(9 10) rotate(90) scale(7 6)">
<stop stop-color="#505D84"/>
<stop offset="1" stop-color="#212F53"/>
</radialGradient>
<radialGradient id="paint3_radial_13_24" cx="0" cy="0" r="1" gradientUnits="userSpaceOnUse" gradientTransform="translate(9 10) rotate(90) scale(7 6)">
<stop stop-color="#505D84"/>
<stop offset="1" stop-color="#212F53"/>
</radialGradient>
<radialGradient id="paint4_radial_13_24" cx="0" cy="0" r="1" gradientUnits="userSpaceOnUse" gradientTransform="translate(9 10) rotate(90) scale(7 6)">
<stop stop-color="#505D84"/>
<stop offset="1" stop-color="#212F53"/>
</radialGradient>
<radialGradient id="paint5_radial_13_24" cx="0" cy="0" r="1" gradientUnits="userSpaceOnUse" gradientTransform="translate(9 10) rotate(90) scale(7 6)">
<stop stop-color="#505D84"/>
<stop offset="1" stop-color="#212F53"/>
</radialGradient>
</defs>
</svg>
