<svg width="12" height="14" fill="none" xmlns="http://www.w3.org/2000/svg"><path d="M6.5 9.013c13 .5-9.27-11.5-3.5-6.5C6.53 5.573 2.185 7.133 1.256 8a3.38 3.38 0 00-.11.122c-.333.469.695.712 5.354.891z" fill="url(#paint0_radial_3_2825)"/><path d="M6.5 9.013c13 .5-9.27-11.5-3.5-6.5C6.53 5.573 2.185 7.133 1.256 8a3.38 3.38 0 00-.11.122c-.333.469.695.712 5.354.891z" fill="#0A1A3D" fill-opacity=".2"/><path d="M3 2.513c-5.77-5 16.5 7 3.5 6.5-4.66-.179-5.687-.422-5.354-.891M3 2.512C6.53 5.573 2.185 7.135 1.256 8a3.38 3.38 0 00-.11.122M3 2.512c3.702 3.21-1.257 4.77-1.854 5.61M2 13C.08 10.6.286 9.121 1.146 8.122M10.448 7c1.9 2.742.495 4.134-.448 6" stroke="url(#paint1_linear_3_2825)" stroke-linecap="round" style="mix-blend-mode:multiply"/><path d="M5.5 6H8c.448 0 0 .5-1 .5S5 6 5.5 6z" fill="#DAE2FF"/><path d="M5.5 6H8c.448 0 0 .5-1 .5S5 6 5.5 6z" stroke="url(#paint2_linear_3_2825)" stroke-linecap="round" style="mix-blend-mode:multiply"/><defs><linearGradient id="paint1_linear_3_2825" x1="5.954" y1="1.291" x2="5.954" y2="13" gradientUnits="userSpaceOnUse"><stop stop-color="#D9DFFF"/><stop offset=".521" stop-color="#D6DCF9"/><stop offset=".719" stop-color="#C6CEFB"/><stop offset="1" stop-color="#C5CFFF"/></linearGradient><linearGradient id="paint2_linear_3_2825" x1="6.771" y1="6" x2="6.771" y2="6.5" gradientUnits="userSpaceOnUse"><stop stop-color="#D9DFFF"/><stop offset=".521" stop-color="#D6DCF9"/><stop offset=".719" stop-color="#C6CEFB"/><stop offset="1" stop-color="#C5CFFF"/></linearGradient><radialGradient id="paint0_radial_3_2825" cx="0" cy="0" r="1" gradientUnits="userSpaceOnUse" gradientTransform="matrix(0 5.85428 -5.43741 0 5.954 7.146)"><stop stop-color="#505D84"/><stop offset="1" stop-color="#212F53"/></radialGradient></defs></svg>